<svg width="2" height="2" viewBox="0 0 2 2" fill="none" xmlns="http://www.w3.org/2000/svg">
<path d="M1.70752 1.70668C1.56772 1.84665 1.38953 1.94202 1.19552 1.9807C1.0015 2.01938 0.800371 1.99963 0.617576 1.92398C0.434781 1.84833 0.278529 1.72017 0.168595 1.5557C0.0586617 1.39122 0 1.19782 0 0.999992C0 0.80216 0.0586617 0.608784 0.168595 0.444309C0.278529 0.279834 0.434781 0.151657 0.617576 0.076004C0.800371 0.000351003 1.0015 -0.0193779 1.19552 0.019303C1.38953 0.057984 1.56772 0.153331 1.70752 0.293302C1.8948 0.480805 1.99999 0.734979 1.99999 0.999992C1.99999 1.265 1.8948 1.51918 1.70752 1.70668Z" fill="#A1529C"/>
</svg>
