<svg width="9" height="10" viewBox="0 0 9 10" fill="none" xmlns="http://www.w3.org/2000/svg">
<path d="M7.29665 7.89147C8.11052 7.2271 8.66283 6.29777 8.85619 5.26734C9.04956 4.23692 8.87155 3.17155 8.35358 2.2591C7.8356 1.34664 7.0109 0.64568 6.0249 0.279809C5.03889 -0.0860615 3.95489 -0.0933473 2.96401 0.259228C1.97313 0.611803 1.13902 1.3016 0.608724 2.207C0.0784289 3.11241 -0.113989 4.17529 0.0653948 5.20822C0.244778 6.24116 0.784444 7.17782 1.58924 7.85308C2.39404 8.52833 3.4123 8.89882 4.46447 8.89921C4.81305 8.89762 5.16029 8.856 5.4993 8.77518L7.8802 10L7.29665 7.89147Z" fill="#FBB040"/>
</svg>
