<svg width="14" height="14" viewBox="0 0 14 14" fill="none" xmlns="http://www.w3.org/2000/svg">
<path d="M1.54921 1.95479C1.66964 1.36668 1.94367 0.820627 2.34366 0.371778C2.55428 0.159316 2.83428 0.028959 3.13299 0.00427985C3.43169 -0.0203993 3.72941 0.0622301 3.97228 0.237223C4.64756 0.862512 4.06762 2.0102 4.32184 2.88877C4.44577 3.21181 4.64999 3.49821 4.91539 3.7211C5.1808 3.94399 5.4987 4.09608 5.83923 4.1631C6.52079 4.2938 7.21124 4.37316 7.90477 4.40054C9.54997 4.64597 11.0578 5.45528 12.1686 6.68908C13.2793 7.92287 13.9235 9.50394 13.9902 11.16C14.0465 11.786 13.8587 12.4096 13.4659 12.9013C13.1542 13.1448 12.797 13.324 12.4151 13.4286C12.0332 13.5333 11.6343 13.5612 11.2414 13.5108C9.11149 13.5863 6.97973 13.4243 4.88589 13.028C3.02689 12.5926 -0.0158269 11.6191 6.19794e-05 9.39495C0.181497 6.85722 0.702482 4.35502 1.54921 1.95479Z" fill="#EEB399"/>
</svg>
