<svg width="15" height="17" viewBox="0 0 15 17" fill="none" xmlns="http://www.w3.org/2000/svg">
<path d="M2.32339 14.9626C1.48419 14.4471 0.782379 13.7372 0.277659 12.8935C0.0335916 12.464 -0.0532983 11.9634 0.0318174 11.4772C0.116933 10.991 0.368776 10.5494 0.744364 10.2276C1.17218 9.94083 1.75556 9.84009 2.02003 9.40611C2.3545 8.85588 1.97336 8.16615 1.89558 7.52293C1.88708 6.93169 2.0909 6.35688 2.47028 5.90217C2.84967 5.44745 3.37964 5.14276 3.96464 5.04304C4.34969 5.01087 4.71714 4.86821 5.02251 4.63231C5.62145 4.00459 4.87471 2.77239 5.48921 2.16016C5.9637 1.69518 6.86599 1.99742 7.34826 1.54019C7.61272 1.2922 7.6594 0.896966 7.85386 0.594729C8.0417 0.355583 8.29592 0.176687 8.58493 0.0802448C8.87395 -0.0161969 9.18503 -0.0259327 9.47955 0.0522549C10.0493 0.224359 10.5783 0.509006 11.0352 0.88922L13.3688 2.53215C13.8479 2.82959 14.2673 3.21328 14.6055 3.6636C15.2589 4.67881 14.9867 5.9885 14.6055 7.16645C14.0032 9.39216 13.0047 11.4921 11.6575 13.3662C10.5116 14.9433 8.91085 16.1353 7.06824 16.7838C5.4581 17.3573 3.63794 15.8926 2.32339 14.9626Z" fill="#A05E47"/>
</svg>
