<svg width="11" height="16" viewBox="0 0 11 16" fill="none" xmlns="http://www.w3.org/2000/svg">
<path d="M2.66622 0.155076C2.10115 -0.0241503 1.49807 -0.0485182 0.920287 0.0845476C0.633983 0.156646 0.383681 0.329848 0.215889 0.571957C0.0480975 0.814067 -0.0257712 1.10863 0.0080006 1.40091C0.212479 2.27849 1.47867 2.34117 2.10784 2.96801C2.32399 3.22948 2.46929 3.54178 2.52987 3.8751C2.59045 4.20842 2.56429 4.55164 2.45388 4.87202C2.23622 5.51135 1.97341 6.13452 1.66742 6.73687C1.05408 8.25668 0.998589 9.94335 1.51074 11.4999C2.02288 13.0565 3.06982 14.3831 4.46721 15.2462C4.97589 15.5983 5.60124 15.7414 6.21314 15.6458C6.9996 15.4578 7.42429 14.7291 7.78606 14.0787C8.88573 12.3167 9.77769 10.4342 10.4443 8.46852C10.9869 6.68203 11.624 3.62619 9.72074 2.56056C7.48567 1.45307 5.11369 0.644264 2.66622 0.155076Z" fill="#A05E47"/>
</svg>
