<svg width="12" height="25" viewBox="0 0 12 25" fill="none" xmlns="http://www.w3.org/2000/svg">
<path d="M5.13685 24.9999C5.032 24.9995 4.93002 24.9655 4.84585 24.903C4.76168 24.8405 4.69973 24.7527 4.66906 24.6524C4.10919 22.796 3.9324 21.1017 4.12025 19.6812C1.46703 18.721 0.266281 16.3662 0.823691 13.1862C0.970667 12.2734 1.2934 11.3978 1.77399 10.6079C0.818778 9.73004 0.23313 8.65329 0.055103 7.55811C-0.34024 5.0645 1.32214 1.59481 7.30754 0.0269419C7.3716 0.00480195 7.43956 -0.00383722 7.50712 0.0015606C7.57467 0.00695842 7.64037 0.0262807 7.7001 0.0583107C7.75982 0.0903406 7.81226 0.134379 7.85414 0.187668C7.89601 0.240956 7.92641 0.302338 7.9434 0.367944C7.9604 0.43355 7.96364 0.501965 7.9529 0.568882C7.94217 0.635798 7.91771 0.699764 7.88105 0.756765C7.84439 0.813765 7.79634 0.862562 7.7399 0.900082C7.68346 0.937603 7.61984 0.963041 7.5531 0.974787C2.20123 2.37691 0.688616 5.31497 1.01889 7.40464C1.1564 8.26408 1.61315 9.11738 2.35964 9.82704C3.5162 8.56488 5.20685 7.96696 7.27073 8.16708C9.37759 8.37089 11.7079 9.54587 11.6809 10.9062C11.6674 11.5975 11.0793 12.4545 8.35484 12.6116C5.91893 12.7528 3.95206 12.1721 2.54135 11.2156C2.15926 11.8766 1.90282 12.6026 1.78502 13.3569C1.19937 16.6915 2.7783 18.1096 4.31424 18.71C4.6261 17.605 5.20562 16.721 6.0405 16.1317C7.37386 15.1887 9.13693 15.2403 10.5317 16.263C11.7595 17.1605 11.4734 18.0507 11.2954 18.3932C10.5747 19.7769 7.57154 20.4706 5.0632 19.9488C4.92446 21.1975 5.10002 22.7052 5.60218 24.3688C5.62112 24.4305 5.62771 24.4954 5.62154 24.5597C5.61537 24.624 5.59657 24.6865 5.56624 24.7435C5.5359 24.8005 5.49462 24.851 5.44475 24.892C5.39488 24.9331 5.3374 24.9639 5.2756 24.9827C5.23045 24.9952 5.18369 25.001 5.13685 24.9999ZM5.24982 18.9838C7.53717 19.481 9.99885 18.7628 10.431 17.934C10.4801 17.8383 10.6336 17.5436 9.95709 17.0476C8.89138 16.2655 7.60835 16.2188 6.60895 16.9248C5.95577 17.3914 5.50029 18.0949 5.24982 18.9875V18.9838ZM3.13803 10.4336C4.37685 11.2562 6.12398 11.7559 8.30205 11.6294C10.2665 11.5152 10.7024 11.0511 10.706 10.8817C10.7159 10.3906 9.26832 9.33961 7.18111 9.13703C6.24677 9.04986 4.43701 9.08301 3.13803 10.4336Z" fill="#C474BF"/>
</svg>
