<svg width="11" height="4" viewBox="0 0 11 4" fill="none" xmlns="http://www.w3.org/2000/svg">
<g style="mix-blend-mode:multiply">
<path d="M2.31169 1.36812C4.54956 2.40223 8.07104 3.75444 10.9189 3.58853C10.944 3.57917 10.9654 3.562 10.9799 3.53955C10.9945 3.5171 11.0014 3.49056 10.9998 3.46385C10.9981 3.43715 10.9878 3.41169 10.9706 3.39123C10.9533 3.37078 10.93 3.35642 10.9039 3.35027C6.4444 3.60849 0.274656 0.0733037 0.213533 0.0371285C0.200181 0.0236004 0.183917 0.0132905 0.165978 0.00700888C0.148038 0.000727223 0.128892 -0.00137146 0.110017 0.000872276C0.0911429 0.00311601 0.0730384 0.00965503 0.0570719 0.0199673C0.0411053 0.0302796 0.0277 0.0440994 0.017892 0.0603806C0.00808399 0.0766619 0.00212436 0.0949694 0.000471926 0.113905C-0.00118051 0.13284 0.00152013 0.151903 0.00835968 0.169637C0.0151992 0.187371 0.0260021 0.20331 0.0399411 0.216232C0.0538801 0.229154 0.07059 0.23871 0.0887904 0.24419C0.119976 0.256664 0.991917 0.756881 2.31169 1.36812Z" fill="#E0B3A8"/>
</g>
</svg>
