<svg width="13" height="13" viewBox="0 0 13 13" fill="none" xmlns="http://www.w3.org/2000/svg">
<g clip-path="url(#clip0_17_5136)">
<path d="M11.375 5.41669C11.375 9.20835 6.5 12.4584 6.5 12.4584C6.5 12.4584 1.625 9.20835 1.625 5.41669C1.625 4.12376 2.13861 2.88378 3.05285 1.96954C3.96709 1.0553 5.20707 0.541688 6.5 0.541688C7.79293 0.541688 9.03291 1.0553 9.94715 1.96954C10.8614 2.88378 11.375 4.12376 11.375 5.41669Z" fill="#B0B1BC" stroke="#B0B1BC" stroke-width="1.5" stroke-linecap="round" stroke-linejoin="round"/>
<path d="M6.5 7.04169C7.39746 7.04169 8.125 6.31415 8.125 5.41669C8.125 4.51923 7.39746 3.79169 6.5 3.79169C5.60254 3.79169 4.875 4.51923 4.875 5.41669C4.875 6.31415 5.60254 7.04169 6.5 7.04169Z" fill="white" stroke="white" stroke-linecap="round" stroke-linejoin="round"/>
</g>
<defs>
<clipPath id="clip0_17_5136">
<rect width="12.25" height="12.25" fill="white" transform="scale(1.06122)"/>
</clipPath>
</defs>
</svg>
