<svg width="7" height="6" viewBox="0 0 7 6" fill="none" xmlns="http://www.w3.org/2000/svg">
<g style="mix-blend-mode:screen">
<path d="M5.24618 5.94586C4.95247 5.9456 4.66344 5.87229 4.40511 5.73253C4.14678 5.59277 3.92726 5.39094 3.76635 5.14522C3.30975 4.44705 2.59512 3.60088 1.78438 3.54144C1.54001 3.54332 1.29789 3.4946 1.07327 3.39834C0.84865 3.30209 0.646396 3.16038 0.479214 2.98214C0.312033 2.8039 0.183543 2.59298 0.101853 2.36266C0.0201642 2.13235 -0.012958 1.88761 0.00455258 1.64386C0.0220632 1.40012 0.0898286 1.16263 0.203601 0.946353C0.317373 0.730076 0.47469 0.539692 0.665633 0.387178C0.856576 0.234664 1.07702 0.123322 1.3131 0.0601622C1.54917 -0.00299748 1.79575 -0.0166079 2.03734 0.020185C3.84476 0.152991 5.42073 1.22682 6.71717 3.21511C6.88916 3.48168 6.98639 3.78957 6.99868 4.10658C7.01096 4.42359 6.93785 4.73807 6.787 5.01715C6.63615 5.29624 6.41309 5.52967 6.14114 5.69304C5.8692 5.85642 5.55837 5.94373 5.24113 5.94586H5.24618Z" fill="#3D2D2B"/>
</g>
</svg>
