<svg width="1" height="4" viewBox="0 0 1 4" fill="none" xmlns="http://www.w3.org/2000/svg">
<path d="M0.33468 3.99999C0.24721 3.99999 0.163322 3.96538 0.101471 3.90376C0.0396207 3.84214 0.00484847 3.75856 0.00484847 3.67141V0.395207C-0.00347584 0.346669 -0.0010581 0.296906 0.0119235 0.249393C0.0249051 0.201881 0.0481399 0.157762 0.0800093 0.120125C0.111879 0.0824882 0.151615 0.0522497 0.196436 0.0314986C0.241257 0.0107474 0.290081 0 0.339505 0C0.388929 0 0.437783 0.0107474 0.482604 0.0314986C0.527425 0.0522497 0.567132 0.0824882 0.599001 0.120125C0.630871 0.157762 0.654135 0.201881 0.667117 0.249393C0.680098 0.296906 0.682486 0.346669 0.674162 0.395207V3.63275C0.678203 3.67954 0.672443 3.72665 0.6572 3.7711C0.641957 3.81555 0.617589 3.85635 0.585651 3.8909C0.553712 3.92545 0.51489 3.95299 0.471681 3.97177C0.428471 3.99055 0.381823 4.00017 0.33468 3.99999Z" fill="#45596D"/>
</svg>
