<svg width="89" height="95" viewBox="0 0 89 95" fill="none" xmlns="http://www.w3.org/2000/svg">
<g filter="url(#filter0_d_16_4208)">
<path fill-rule="evenodd" clip-rule="evenodd" d="M20.1906 5.04765C14.6151 5.04765 10.0953 9.56746 10.0953 15.1429V43.6186C10.0953 49.1941 14.6151 53.7139 20.1906 53.7139H27.4541L32.6199 58.881C33.6056 59.8669 35.2039 59.8669 36.1896 58.881L41.3555 53.7139H48.6189C54.1944 53.7139 58.7142 49.1941 58.7142 43.6186V15.1429C58.7142 9.56746 54.1944 5.04765 48.6189 5.04765H20.1906Z" fill="white"/>
</g>
<rect x="19.1811" y="12.5967" width="30.2859" height="30.2859" rx="8" fill="#29D697"/>
<g clip-path="url(#clip0_16_4208)">
<path d="M40.9972 33.5478L35.0594 27.61L28.122 20.6726H27.5799L27.4692 20.9539C27.177 21.6964 27.0521 22.4558 27.1082 23.1499C27.1721 23.9411 27.4727 24.6261 27.9775 25.131L33.3932 30.5466L34.1075 29.8323L39.1143 35.4309C39.6123 35.9289 40.4696 35.9585 40.9972 35.4309C41.5164 34.9117 41.5164 34.067 40.9972 33.5478Z" fill="white"/>
<path d="M30.8833 29.2931L26.6418 33.5346C26.1227 34.0538 26.1227 34.8985 26.6418 35.4176C27.1349 35.9107 27.9881 35.9543 28.5247 35.4176L32.7663 31.176L30.8833 29.2931Z" fill="white"/>
<path d="M40.7479 23.1937L38.3418 25.5997L37.7141 24.9721L40.1202 22.566L39.4925 21.9384L37.0865 24.3444L36.4588 23.7167L38.8649 21.3107L38.2373 20.6831L35.0989 23.8214C34.715 24.2053 34.4858 24.7151 34.4534 25.2569C34.4452 25.3941 34.414 25.5292 34.3624 25.6576L36.4011 27.6962C36.5295 27.6445 36.6645 27.6135 36.8018 27.6053C37.3436 27.5729 37.8533 27.3436 38.2373 26.9597L41.3756 23.8214L40.7479 23.1937Z" fill="white"/>
</g>
<defs>
<filter id="filter0_d_16_4208" x="0" y="0" width="89" height="94.954" filterUnits="userSpaceOnUse" color-interpolation-filters="sRGB">
<feFlood flood-opacity="0" result="BackgroundImageFix"/>
<feColorMatrix in="SourceAlpha" type="matrix" values="0 0 0 0 0 0 0 0 0 0 0 0 0 0 0 0 0 0 127 0" result="hardAlpha"/>
<feOffset dx="10" dy="15"/>
<feGaussianBlur stdDeviation="10"/>
<feColorMatrix type="matrix" values="0 0 0 0 0.827451 0 0 0 0 0.819608 0 0 0 0 0.847059 0 0 0 0.45 0"/>
<feBlend mode="normal" in2="BackgroundImageFix" result="effect1_dropShadow_16_4208"/>
<feBlend mode="normal" in="SourceGraphic" in2="effect1_dropShadow_16_4208" result="shape"/>
</filter>
<clipPath id="clip0_16_4208">
<rect width="15" height="15" fill="white" transform="translate(26.2478 20.673) scale(1.00953)"/>
</clipPath>
</defs>
</svg>
