<svg width="3" height="9" viewBox="0 0 3 9" fill="none" xmlns="http://www.w3.org/2000/svg">
<path d="M1.94956 8.35483C1.92438 8.35525 1.89955 8.34889 1.87766 8.33643C1.85578 8.32398 1.83764 8.30587 1.82515 8.284C1.81265 8.26214 1.80626 8.23732 1.80664 8.21214C1.80702 8.18696 1.81415 8.16234 1.82729 8.14086C2.24055 7.4855 2.67705 6.69199 2.72474 6.45479C2.534 6.42789 1.93 6.5306 1.55586 6.59418C1.25231 6.65461 0.94519 6.69545 0.6364 6.71644C0.514132 6.71644 0.406536 6.62596 0.314835 6.44623C-0.102099 5.62948 -0.393093 2.53365 1.39569 0.0577293C1.41741 0.0277339 1.45017 0.00759907 1.48674 0.001752C1.52331 -0.00409507 1.5607 0.00482395 1.5907 0.0265504C1.6207 0.0482768 1.64083 0.0810292 1.64668 0.117602C1.65252 0.154175 1.64361 0.191576 1.62188 0.221572C0.19868 2.18886 0.126545 4.70513 0.424879 5.91803C0.519025 6.29951 0.621726 6.42544 0.649848 6.44012C0.937135 6.41482 1.22284 6.37401 1.50572 6.31785C2.45819 6.15646 2.83111 6.11122 2.95949 6.27139C3.01696 6.3423 3.16735 6.53059 2.0596 8.28758C2.04803 8.30683 2.03198 8.32299 2.01282 8.3347C1.99367 8.34641 1.97196 8.35331 1.94956 8.35483Z" fill="#2B1710"/>
</svg>
