<svg width="19" height="20" viewBox="0 0 19 20" fill="none" xmlns="http://www.w3.org/2000/svg">
<path d="M5.9822 3.7918V13.7768C5.34652 13.1984 4.50225 12.8454 3.57727 12.8454C1.60476 12.8454 0 14.4502 0 16.4227C0 18.3952 1.60476 20 3.57727 20C5.54732 20 7.15026 18.3992 7.15438 16.4302H7.15453V9.29518L17.4276 6.20803V11.3702C16.792 10.7919 15.9477 10.4388 15.0227 10.4388C13.0502 10.4388 11.4454 12.0436 11.4454 14.0161C11.4454 15.9886 13.0502 17.5934 15.0227 17.5934C16.9885 17.5934 18.5888 15.9994 18.5997 14.0361H18.6V0L5.9822 3.7918Z" fill="#6B7AED"/>
</svg>
