<svg width="14" height="10" viewBox="0 0 14 10" fill="none" xmlns="http://www.w3.org/2000/svg">
<path d="M13.8955 5.50866C13.983 6.33415 13.8661 7.16845 13.5548 7.93843C13.3891 8.3163 13.0974 8.62555 12.7292 8.81389C12.361 9.00223 11.9388 9.05811 11.5341 8.97206C11.1237 8.83322 10.7598 8.4861 10.334 8.53238C9.90821 8.57866 9.55979 9.18804 9.13397 9.55829C8.74235 9.86566 8.25244 10.0217 7.75448 9.99757C7.25653 9.97347 6.78407 9.7709 6.42419 9.42716C6.17644 9.21118 5.94417 8.93349 5.64997 8.89492C4.9222 8.80236 4.47317 9.92083 3.75314 9.82055C3.1957 9.74341 2.97892 8.98749 2.39825 8.89492C2.09717 8.90773 1.79851 8.95431 1.5079 9.03377C1.25327 9.03012 1.00546 8.95118 0.795936 8.80698C0.586414 8.66278 0.424617 8.45981 0.331067 8.22384C0.146994 7.74975 0.0626608 7.24303 0.08331 6.73512L0.0136329 4.35162C-0.0260885 3.88421 0.0211748 3.4135 0.153011 2.96318C0.509153 2.0144 1.53887 1.52074 2.47568 1.17363C4.28077 0.444575 6.20349 0.0473367 8.15072 0.0011624C9.78838 -0.0266235 11.3956 0.444322 12.7573 1.35104C13.9264 2.17639 13.8567 4.12793 13.8955 5.50866Z" fill="#EEB399"/>
</svg>
