<svg width="28" height="28" viewBox="0 0 28 28" fill="none" xmlns="http://www.w3.org/2000/svg">
<g clip-path="url(#clip0_16_1496)">
<path d="M19.2335 17.393C21.901 17.3459 22.488 13.6763 19.9709 12.8024L17.0646 15.9544C17.4272 16.8083 18.2823 17.393 19.2335 17.393Z" fill="white"/>
<path d="M27.8421 12.6305C27.4685 10.3888 26.4182 8.6585 24.7875 7.57812C24.0279 8.40255 21.9352 10.6713 21.1454 11.5282C22.4161 12.2169 23.2296 13.5506 23.2296 15.0385C23.2385 18.487 19.077 20.3184 16.541 17.9897C16.2992 18.5247 15.9601 19.017 15.5329 19.4443C13.8395 21.2801 8.59433 21.7239 6.35534 21.6587C6.28991 19.4141 6.73552 14.1714 8.56977 12.4811C9.50568 11.5457 10.7267 11.066 11.9558 11.0425C13.301 9.79791 15.1663 8.07176 16.506 6.83197C14.6452 7.32233 11.9196 8.62054 11.0882 7.39486C10.6992 6.47668 12.4679 4.3431 11.0724 2.55256C9.9287 1.11655 7.36909 1.38629 5.92264 2.4065C-1.12004 7.26899 -2.06175 17.9523 4.08642 23.8955C11.6129 31.4798 24.7421 28.0438 27.6266 17.766C27.7832 17.1191 28.2315 14.9986 27.8421 12.6305Z" fill="white"/>
<path d="M15.5328 12.4814C15.9901 12.9387 16.3463 13.4698 16.5902 14.048C17.5218 13.0392 22.4402 7.70294 23.2569 6.81796L27.6238 2.08177C28.1008 1.56428 28.1134 0.798444 27.6528 0.337298C27.1911 -0.123848 26.4242 -0.110719 25.9067 0.367932L19.5201 6.27858C18.1334 7.56153 15.3752 10.1151 13.9601 11.4245C14.5323 11.6641 15.0678 12.0164 15.5328 12.4814Z" fill="white"/>
<path d="M13.4967 13.0145C12.2507 12.4082 10.7408 12.6334 9.7304 13.6403C8.68678 14.563 8.09424 18.0747 8.03406 19.9793C9.94418 19.9172 13.4474 19.3281 14.3725 18.2829C14.9928 17.6626 15.3342 16.8382 15.3342 15.9619C15.334 15.0843 14.9923 14.2599 14.3725 13.6408V13.6403C14.1099 13.3772 13.8134 13.1688 13.4967 13.0145Z" fill="white"/>
</g>
<defs>
<clipPath id="clip0_16_1496">
<rect width="27.2494" height="27.2494" fill="white" transform="scale(1.02754)"/>
</clipPath>
</defs>
</svg>
