<svg width="9" height="7" viewBox="0 0 9 7" fill="none" xmlns="http://www.w3.org/2000/svg">
<path d="M8.23383 0.589013C7.95022 0.349068 7.61395 0.178921 7.25218 0.0923059C6.89041 0.00569077 6.51327 0.00503233 6.1512 0.0903884C5.44546 0.282517 4.84475 0.745134 4.48028 1.37716C4.31214 1.06359 4.08266 0.786757 3.80538 0.562991C3.5281 0.339225 3.20864 0.17306 2.86585 0.0743035C2.50468 -0.0189363 2.12631 -0.0245066 1.76253 0.0580559C1.39875 0.140618 1.06017 0.308905 0.775168 0.548799C0.404597 0.921843 0.152583 1.39543 0.0506496 1.91036C-0.0512838 2.42529 0.00136711 2.95874 0.202027 3.44403C0.625701 4.40963 1.3656 5.20349 2.30079 5.69587C2.96332 6.12953 3.70319 6.43256 4.48028 6.58856C5.2577 6.43831 5.99979 6.14366 6.66783 5.71999C7.6096 5.24013 8.35862 4.45417 8.79081 3.49228C8.99524 3.00748 9.05142 2.47334 8.95234 1.95685C8.85325 1.44036 8.6033 0.964523 8.23383 0.589013Z" fill="#FF5C5C"/>
</svg>
