<svg width="14" height="14" viewBox="0 0 14 14" fill="none" xmlns="http://www.w3.org/2000/svg">
<path d="M1.25882 1.94387C1.05903 1.9596 0.867167 2.02856 0.70332 2.14354C0.539473 2.25852 0.409675 2.41529 0.32752 2.59741C0.169518 2.96465 0.0869161 3.35968 0.0845754 3.75924C-0.0804794 4.98597 -0.00345459 6.23301 0.311326 7.43032C0.99158 9.52001 2.91897 10.9239 4.79777 12.0615C6.25473 13.0786 7.9345 13.7342 9.69721 13.9737C9.94895 14.0217 10.2089 14.0038 10.4516 13.9218C10.6943 13.8397 10.9115 13.6964 11.082 13.5058C11.4464 12.9329 10.9848 12.2068 10.5475 11.6904L9.47856 10.4156C9.81506 10.9833 10.2967 11.4519 10.8743 11.7737C11.4519 12.0954 12.1048 12.2588 12.7665 12.2471C12.9891 12.2532 13.2087 12.1943 13.3981 12.0777C13.529 11.9516 13.632 11.7995 13.7003 11.6314C13.7686 11.4633 13.8009 11.2827 13.7949 11.1014C13.9886 9.60186 13.9586 8.08201 13.7059 6.59122C13.4802 5.33558 12.9697 4.14787 12.2133 3.11873C11.4568 2.08959 10.4743 1.24621 9.34089 0.652944C8.19006 0.0888992 6.89534 -0.11657 5.62556 0.0633328C4.35579 0.243235 3.1699 0.800161 2.22252 1.66148" fill="#171C27"/>
</svg>
