<svg width="28" height="28" viewBox="0 0 28 28" fill="none" xmlns="http://www.w3.org/2000/svg">
<g clip-path="url(#clip0_16_1507)">
<path d="M13.1233 3.74873C12.9406 2.54561 12.5712 1.32772 12.033 0.137725C9.23825 0.530708 6.70863 1.74854 4.69794 3.53758L11.6443 10.484C13.0015 8.75803 13.5261 6.40057 13.1233 3.74873Z" fill="white"/>
<path d="M11.6517 12.8117C9.99269 14.1815 7.85824 14.8971 5.46015 14.8972C4.82479 14.8972 4.17117 14.847 3.50278 14.7455C2.33509 14.5682 1.15806 14.2355 0.00295312 13.7609C0.00169531 13.8404 0 13.9199 0 13.9998C0 17.5707 1.3376 20.8285 3.53805 23.3017L12.8399 13.9998L11.6517 12.8117Z" fill="white"/>
<path d="M10.4848 11.6431L3.53833 4.69669C1.74929 6.70738 0.53146 9.23694 0.138477 12.0317C1.32853 12.5699 2.54647 12.9394 3.74943 13.1221C6.40144 13.5249 8.75884 13.0002 10.4848 11.6431Z" fill="white"/>
<path d="M24.2512 14.8753C21.5993 14.4724 19.2418 14.9971 17.5159 16.3543L24.4623 23.3007C26.2513 21.29 27.4691 18.7604 27.8622 15.9657C26.6722 15.4276 25.4543 15.058 24.2512 14.8753Z" fill="white"/>
<path d="M15.1877 16.3474L13.9998 15.1595L4.69794 24.4613C7.17107 26.6618 10.429 27.9994 13.9998 27.9994C14.0797 27.9994 14.1592 27.9977 14.2387 27.9964C13.7642 26.8413 13.4315 25.6642 13.2541 24.4965C12.7696 21.3055 13.455 18.4459 15.1877 16.3474Z" fill="white"/>
<path d="M12.8118 11.6512L13.9997 12.8391L23.3015 3.5373C20.8284 1.33679 17.5705 -0.000752594 13.9997 -0.000752594C13.9198 -0.000752594 13.8403 0.000942713 13.7607 0.00225521C14.2353 1.15731 14.568 2.33423 14.7454 3.50208C15.2299 6.69314 14.5445 9.55274 12.8118 11.6512Z" fill="white"/>
<path d="M14.876 24.2497C15.0586 25.4526 15.4283 26.6706 15.9664 27.8607C18.7611 27.4677 21.2907 26.2498 23.3014 24.4608L16.3549 17.5144C14.9978 19.2403 14.4733 21.5978 14.876 24.2497Z" fill="white"/>
<path d="M16.3482 15.1865C18.4466 13.4537 21.3062 12.7684 24.4973 13.2529C25.6651 13.4303 26.8421 13.763 27.9971 14.2375C27.9984 14.158 28.0001 14.0785 28.0001 13.9985C28.0001 10.4277 26.6625 7.16981 24.4621 4.69669L15.1602 13.9986L16.3482 15.1865Z" fill="white"/>
</g>
<defs>
<clipPath id="clip0_16_1507">
<rect width="27.2494" height="27.2494" fill="white" transform="scale(1.02754)"/>
</clipPath>
</defs>
</svg>
