<svg width="35" height="35" viewBox="0 0 35 35" fill="none" xmlns="http://www.w3.org/2000/svg">
<path d="M17.5001 3.28106C9.65992 3.28106 3.2813 9.65967 3.2813 17.4998C3.2813 25.34 9.65992 31.7186 17.5001 31.7186C25.3402 31.7186 31.7188 25.34 31.7188 17.4998C31.7188 9.65967 25.3402 3.28106 17.5001 3.28106ZM19.6876 24.0623H15.3126C15.0225 24.0623 14.7443 23.9471 14.5392 23.742C14.334 23.5368 14.2188 23.2586 14.2188 22.9686C14.2188 22.6785 14.334 22.4003 14.5392 22.1952C14.7443 21.9901 15.0225 21.8748 15.3126 21.8748H19.6876C19.9776 21.8748 20.2558 21.9901 20.461 22.1952C20.6661 22.4003 20.7813 22.6785 20.7813 22.9686C20.7813 23.2586 20.6661 23.5368 20.461 23.742C20.2558 23.9471 19.9776 24.0623 19.6876 24.0623ZM22.9688 19.6873H12.0313C11.7412 19.6873 11.463 19.5721 11.2579 19.367C11.0528 19.1618 10.9376 18.8836 10.9376 18.5936C10.9376 18.3035 11.0528 18.0253 11.2579 17.8202C11.463 17.615 11.7412 17.4998 12.0313 17.4998H22.9688C23.2589 17.4998 23.5371 17.615 23.7422 17.8202C23.9473 18.0253 24.0626 18.3035 24.0626 18.5936C24.0626 18.8836 23.9473 19.1618 23.7422 19.367C23.5371 19.5721 23.2589 19.6873 22.9688 19.6873ZM25.1563 15.3123H9.84381C9.55373 15.3123 9.27553 15.1971 9.07041 14.992C8.86529 14.7868 8.75006 14.5086 8.75006 14.2186C8.75006 13.9285 8.86529 13.6503 9.07041 13.4452C9.27553 13.24 9.55373 13.1248 9.84381 13.1248H25.1563C25.4464 13.1248 25.7246 13.24 25.9297 13.4452C26.1348 13.6503 26.2501 13.9285 26.2501 14.2186C26.2501 14.5086 26.1348 14.7868 25.9297 14.992C25.7246 15.1971 25.4464 15.3123 25.1563 15.3123Z" fill="#5669FF"/>
</svg>
