<svg width="1" height="2" viewBox="0 0 1 2" fill="none" xmlns="http://www.w3.org/2000/svg">
<g style="mix-blend-mode:multiply">
<path d="M0.815184 1.54641C0.784116 1.53739 0.757382 1.5174 0.73995 1.49014C0.722519 1.46289 0.715582 1.43024 0.720423 1.39825C0.753791 1.19537 0.805846 0.511988 0.0690696 0.250379C0.0413445 0.235104 0.0199469 0.210478 0.00870327 0.180888C-0.0025404 0.151298 -0.00290058 0.118663 0.00768494 0.0888315C0.0182705 0.0589996 0.0391153 0.0339062 0.0664953 0.0180212C0.0938753 0.00213626 0.126007 -0.00349814 0.157159 0.00211907C0.89527 0.269067 1.06612 0.917738 0.979363 1.44096C0.973156 1.47502 0.953949 1.50534 0.925807 1.52552C0.897665 1.54569 0.86279 1.55414 0.828537 1.54908L0.815184 1.54641Z" fill="#F0D3CC"/>
</g>
</svg>
