<svg width="89" height="95" viewBox="0 0 89 95" fill="none" xmlns="http://www.w3.org/2000/svg">
<g filter="url(#filter0_d_16_4242)">
<path fill-rule="evenodd" clip-rule="evenodd" d="M20.1906 5.04765C14.6151 5.04765 10.0953 9.56746 10.0953 15.1429V43.6186C10.0953 49.1941 14.6151 53.7139 20.1906 53.7139H27.4541L32.6199 58.881C33.6056 59.8669 35.2039 59.8669 36.1896 58.881L41.3555 53.7139H48.6189C54.1944 53.7139 58.7142 49.1941 58.7142 43.6186V15.1429C58.7142 9.56746 54.1944 5.04765 48.6189 5.04765H20.1906Z" fill="white"/>
</g>
<rect x="19.1406" y="13.6511" width="30.2859" height="30.2859" rx="8" fill="#EE544A"/>
<g clip-path="url(#clip0_16_4242)">
<path d="M33.3048 23.7543C33.206 23.1036 33.0062 22.4449 32.7151 21.8014C31.2037 22.0139 29.8356 22.6725 28.7482 23.6401L32.5049 27.3969C33.2389 26.4634 33.5226 25.1884 33.3048 23.7543Z" fill="white"/>
<path d="M32.5088 28.6545C31.6116 29.3953 30.4572 29.7824 29.1603 29.7824C28.8167 29.7824 28.4632 29.7552 28.1017 29.7004C27.4702 29.6045 26.8336 29.4246 26.2089 29.1679C26.2083 29.2109 26.2073 29.2539 26.2073 29.2971C26.2073 31.2283 26.9307 32.9902 28.1208 34.3277L33.1514 29.2971L32.5088 28.6545Z" fill="white"/>
<path d="M31.8775 28.0229L28.1207 24.2662C27.1532 25.3536 26.4946 26.7216 26.282 28.2331C26.9256 28.5241 27.5843 28.724 28.2349 28.8228C29.6692 29.0407 30.9441 28.7569 31.8775 28.0229Z" fill="white"/>
<path d="M39.3226 29.7716C37.8885 29.5538 36.6135 29.8375 35.6801 30.5715L39.4368 34.3283C40.4044 33.2409 41.063 31.8728 41.2755 30.3614C40.632 30.0703 39.9733 29.8705 39.3226 29.7716Z" fill="white"/>
<path d="M34.4212 30.5679L33.7788 29.9254L28.7482 34.956C30.0857 36.1461 31.8476 36.8695 33.7788 36.8695C33.822 36.8695 33.865 36.8686 33.908 36.8679C33.6514 36.2432 33.4714 35.6066 33.3755 34.9751C33.1135 33.2493 33.4841 31.7028 34.4212 30.5679Z" fill="white"/>
<path d="M33.1363 28.0276L33.7787 28.67L38.8093 23.6394C37.4718 22.4493 35.7099 21.7259 33.7787 21.7259C33.7355 21.7259 33.6925 21.7269 33.6495 21.7276C33.9061 22.3523 34.0861 22.9888 34.182 23.6204C34.444 25.3461 34.0734 26.8927 33.1363 28.0276Z" fill="white"/>
<path d="M34.2525 34.8413C34.3513 35.4918 34.5512 36.1506 34.8422 36.7942C36.3537 36.5816 37.7217 35.923 38.8092 34.9554L35.0524 31.1987C34.3184 32.1321 34.0347 33.4071 34.2525 34.8413Z" fill="white"/>
<path d="M35.0488 29.9393C36.1837 29.0021 37.7302 28.6315 39.456 28.8935C40.0876 28.9895 40.7241 29.1694 41.3488 29.4261C41.3495 29.383 41.3504 29.34 41.3504 29.2968C41.3504 27.3656 40.627 25.6037 39.4369 24.2662L34.4063 29.2968L35.0488 29.9393Z" fill="white"/>
</g>
<defs>
<filter id="filter0_d_16_4242" x="0" y="0" width="89" height="94.9539" filterUnits="userSpaceOnUse" color-interpolation-filters="sRGB">
<feFlood flood-opacity="0" result="BackgroundImageFix"/>
<feColorMatrix in="SourceAlpha" type="matrix" values="0 0 0 0 0 0 0 0 0 0 0 0 0 0 0 0 0 0 127 0" result="hardAlpha"/>
<feOffset dx="10" dy="15"/>
<feGaussianBlur stdDeviation="10"/>
<feColorMatrix type="matrix" values="0 0 0 0 0.827451 0 0 0 0 0.819608 0 0 0 0 0.847059 0 0 0 0.45 0"/>
<feBlend mode="normal" in2="BackgroundImageFix" result="effect1_dropShadow_16_4242"/>
<feBlend mode="normal" in="SourceGraphic" in2="effect1_dropShadow_16_4242" result="shape"/>
</filter>
<clipPath id="clip0_16_4242">
<rect width="15" height="15" fill="white" transform="translate(26.2073 21.7273) scale(1.00953)"/>
</clipPath>
</defs>
</svg>
