<svg width="2" height="2" viewBox="0 0 2 2" fill="none" xmlns="http://www.w3.org/2000/svg">
<path d="M0.999999 2C0.802145 2 0.60873 1.94131 0.444244 1.83136C0.279758 1.7214 0.1516 1.56511 0.0759634 1.38229C0.000326218 1.19946 -0.0193857 0.998299 0.0193386 0.804271C0.0580628 0.610243 0.153471 0.43207 0.293495 0.292286C0.433519 0.152501 0.611867 0.0573984 0.805961 0.0190067C1.00006 -0.019385 1.20118 0.000663551 1.38387 0.0766139C1.56657 0.152564 1.72264 0.280994 1.83231 0.445668C1.94199 0.610342 2.00033 0.803861 1.99999 1.00172C1.99999 1.13296 1.97412 1.2629 1.92385 1.38413C1.87357 1.50536 1.79989 1.6155 1.707 1.70822C1.61412 1.80094 1.50387 1.87443 1.38256 1.9245C1.26124 1.97456 1.13124 2.00022 0.999999 2Z" fill="#A1529C"/>
</svg>
