<svg width="128" height="142" viewBox="0 0 128 142" fill="none" xmlns="http://www.w3.org/2000/svg">
<path d="M67.7061 88.9631C67.7061 88.9631 65.3832 78.1628 90.0063 78.402C114.629 78.6411 115.017 83.1155 115.644 88.9631H67.7061Z" fill="#406EB2"/>
<path d="M58.7319 141.715C58.7319 141.715 57.5008 120.184 60.7838 102.093C64.0669 84.0029 80.916 83.5786 80.916 83.5786C80.916 83.5786 99.5537 82.1129 112.508 84.7666C124.959 87.3124 129.094 108.543 126.446 141.707L58.7319 141.715Z" fill="#7298E2"/>
<path d="M73.862 102.302C62.6911 102.049 51.6641 99.7344 41.3408 95.4742C18.5683 85.9545 4.31319 67.9567 0.124159 43.4246C-0.266026 41.1372 0.271827 38.789 1.61939 36.8966C2.96696 35.0043 5.01385 33.7228 7.30978 33.334C9.60571 32.9453 11.9626 33.4812 13.862 34.8237C15.7613 36.1663 17.0476 38.2057 17.4378 40.4931C20.6125 59.085 30.9418 72.1225 48.1393 79.3432C56.3139 82.6909 65.0277 84.5411 73.862 84.8051H73.9859C76.3146 84.7877 78.555 85.6927 80.214 87.321C81.8731 88.9493 82.8149 91.1676 82.8324 93.4877C82.8498 95.8079 81.9415 98.04 80.3071 99.6929C78.6728 101.346 76.4463 102.284 74.1175 102.302H73.862Z" fill="#7298E2"/>
<path d="M74.8918 82.73C74.8918 82.73 78.6008 94.672 92.9488 94.4637C107.297 94.2554 109.326 82.73 109.326 82.73C109.326 82.73 97.0139 76.8438 74.8918 82.73Z" fill="#406EB2"/>
<path d="M85.6625 71.1582V84.9594C85.6625 84.9594 85.7632 91.6248 93.2043 91.6248C93.2043 91.6248 99.0968 91.6248 99.0968 85.754V71.1582H85.6625Z" fill="#E2A58D"/>
<path d="M66.2659 30.0245C65.5567 30.8498 65.048 31.8269 64.7795 32.8798C64.5109 33.9328 64.4896 35.0333 64.7173 36.0958C65.2011 38.2213 66.2341 40.1839 67.7139 41.7891C68.4185 42.5605 69.2625 43.4477 69.2625 44.52C69.2156 45.1521 69.0221 45.7648 68.6973 46.3098L67.1486 49.681C66.5369 51.0002 65.9252 52.5585 66.5989 53.8468C66.8945 54.2771 67.1535 54.7313 67.3732 55.2046C67.8068 56.6086 66.2117 58.2286 67.0015 59.4707C67.2314 59.7957 67.537 60.0604 67.892 60.2421C70.1801 61.5753 72.7175 62.4285 75.3486 62.7493C78.3893 62.9963 81.448 62.9109 84.47 62.4948C93.2197 61.6616 101.995 61.2502 110.797 61.2604C112.054 61.3457 113.317 61.1858 114.513 60.7899C115.108 60.5804 115.628 60.2022 116.009 59.7018C116.39 59.2014 116.616 58.6008 116.658 57.9741C116.658 56.4312 115.11 55.2509 114.854 53.708C114.513 51.5248 116.844 49.4804 116.24 47.3589C116.039 46.6646 115.543 46.0861 115.334 45.3995C114.839 43.7563 116.046 42.1439 116.883 40.6551C117.585 39.5041 118.033 38.2178 118.199 36.8813C118.364 35.5447 118.243 34.1884 117.843 32.902C116.65 29.577 113.313 27.5404 110.1 26.0824C102.648 22.7467 94.5897 20.9666 86.4213 20.852C83.7903 20.6863 81.1535 21.0672 78.6781 21.9706C76.91 22.8568 75.212 23.8755 73.5987 25.0178C71.4616 26.3447 69.0147 27.471 67.7681 29.6465" fill="#F75454"/>
<path d="M69.3012 56.3773C69.3012 68.5967 79.2438 78.5024 91.5085 78.5024C103.773 78.5024 113.716 68.5967 113.716 56.3773V37.3534C113.716 25.134 103.773 15.2282 91.5085 15.2282C79.2438 15.2282 69.3012 25.134 69.3012 37.3534L69.3012 56.3773Z" fill="#EEB399"/>
<path d="M92.0738 47.8991L92.5306 51.8257L91.9654 51.5017C92.4027 51.2924 92.8817 51.1837 93.3669 51.1837C93.8521 51.1837 94.3311 51.2924 94.7684 51.5017C95.2168 51.7109 95.5918 52.0496 95.8447 52.4737C96.083 52.8943 96.2008 53.3719 96.1854 53.8546C96.1703 54.3454 95.9873 54.8164 95.6666 55.1892C95.3449 55.5362 94.9273 55.7805 94.4664 55.8913C94.0294 56.0047 93.5781 56.0541 93.1269 56.0378C92.659 56.0457 92.2016 55.8992 91.826 55.6213C91.8112 55.6082 91.7993 55.5922 91.7912 55.5742C91.783 55.5563 91.7788 55.5368 91.7788 55.5171C91.7788 55.4974 91.783 55.4779 91.7912 55.46C91.7993 55.442 91.8112 55.426 91.826 55.413C91.8533 55.3875 91.8893 55.3733 91.9267 55.3733C91.9641 55.3733 92.0001 55.3875 92.0273 55.413C92.3859 55.5904 92.7775 55.6916 93.1774 55.7102C93.5773 55.7288 93.9767 55.6643 94.3503 55.521C94.722 55.4129 95.055 55.2015 95.3104 54.9115C95.538 54.6152 95.6581 54.2508 95.6511 53.8778C95.6583 53.5051 95.5529 53.1388 95.3486 52.8265C95.1442 52.5142 94.8503 52.2704 94.5051 52.1266C94.1559 51.9855 93.7796 51.9234 93.4033 51.9448C93.027 51.9661 92.6602 52.0704 92.3293 52.25C92.2861 52.2729 92.2388 52.2871 92.1901 52.2917C92.1414 52.2963 92.0923 52.2913 92.0455 52.277C91.9987 52.2627 91.9553 52.2393 91.9176 52.2082C91.8799 52.1771 91.8488 52.1389 91.826 52.0957C91.7952 52.0417 91.7792 51.9805 91.7795 51.9183L91.826 47.9685C91.826 47.9317 91.8407 47.8963 91.8668 47.8703C91.893 47.8443 91.9284 47.8296 91.9654 47.8296C91.9876 47.8322 92.0088 47.8399 92.0276 47.8519C92.0464 47.8639 92.0622 47.88 92.0738 47.8991Z" fill="#FC7575"/>
<path d="M83.2931 49.6657C83.2931 50.6609 82.7201 51.4632 82.0155 51.4632C81.3109 51.4632 80.7379 50.6917 80.7379 49.6657C80.7379 48.6397 81.3031 47.8682 82.0155 47.8682C82.7279 47.8682 83.2931 48.6782 83.2931 49.6657Z" fill="#351305"/>
<path d="M103.967 49.6657C103.967 50.6609 103.394 51.4632 102.69 51.4632C101.985 51.4632 101.412 50.6917 101.412 49.6657C101.412 48.6397 101.993 47.8528 102.69 47.8528C103.386 47.8528 103.967 48.6782 103.967 49.6657Z" fill="#351305"/>
<path d="M85.043 58.5603C85.9804 59.618 87.1634 60.4311 88.4887 60.9287C89.1304 61.1317 89.8153 61.1584 90.4709 61.0058C91.1726 60.8444 91.8479 60.5847 92.4764 60.2344C92.4906 60.2281 92.5059 60.2246 92.5215 60.2243C92.537 60.224 92.5525 60.2268 92.5669 60.2326C92.5814 60.2383 92.5945 60.2469 92.6056 60.2578C92.6166 60.2687 92.6254 60.2818 92.6313 60.2961C92.6457 60.3149 92.6535 60.338 92.6535 60.3617C92.6535 60.3854 92.6457 60.4084 92.6313 60.4272C92.1046 61.0258 91.4367 61.4845 90.6877 61.7618C89.8989 62.0572 89.0358 62.0923 88.2254 61.8621C87.4376 61.6368 86.7155 61.2268 86.1193 60.6664C85.5312 60.1355 85.0593 59.4895 84.7333 58.7686C84.7121 58.7225 84.7099 58.67 84.7273 58.6224C84.7447 58.5747 84.7802 58.5358 84.8262 58.5141C84.8622 58.4988 84.9019 58.4943 84.9404 58.5012C84.9789 58.508 85.0145 58.5259 85.043 58.5526V58.5603Z" fill="#351305"/>
<path d="M106.693 43.0929C107.057 43.1546 107.56 43.0929 107.622 42.7611C107.621 42.6545 107.596 42.5496 107.547 42.4545C107.499 42.3594 107.429 42.2769 107.343 42.2134C106.001 41.1282 104.401 40.4055 102.697 40.1151C102.14 39.9521 101.557 39.892 100.978 39.9376C100.398 40.0148 99.6311 40.3928 99.8092 41.0871C99.9872 41.7814 101.18 41.8585 101.722 42.0128C103.34 42.4526 105.013 42.7997 106.693 43.0929Z" fill="#F75454"/>
<path d="M78.6239 43.0928C78.26 43.1545 77.749 43.0928 77.687 42.7611C77.6873 42.6536 77.7134 42.5477 77.7633 42.4524C77.8131 42.3571 77.8852 42.2751 77.9735 42.2133C79.3143 41.126 80.9149 40.4031 82.6194 40.115C83.1769 39.9529 83.7593 39.8928 84.3384 39.9376C84.9191 40.0147 85.6857 40.3927 85.5076 41.087C85.3295 41.7813 84.1371 41.8585 83.595 42.0128C81.969 42.4525 80.312 42.7996 78.6239 43.0928Z" fill="#F75454"/>
<path d="M89.3638 0.0229062C86.3517 -0.169956 82.8673 0.840642 81.6748 3.60243C81.1328 4.8676 81.1405 6.34879 80.4282 7.5291C79.3751 9.28801 77.1374 9.84345 75.1861 10.4837C71.7404 11.6255 68.2173 14.1327 67.9772 17.7508C68.018 18.5842 67.9687 19.4196 67.8301 20.2426C67.3888 21.7855 65.7704 22.6572 64.5935 23.7758C63.3989 24.9123 62.6145 26.4101 62.3624 28.0365C62.1102 29.6628 62.4042 31.3266 63.1989 32.7693C63.9935 34.212 65.2443 35.3527 66.7567 36.0143C68.2691 36.6758 69.9585 36.8211 71.5623 36.4276C74.2337 35.7796 76.3088 33.7506 78.2446 31.7989C79.4575 32.8424 80.9534 33.5048 82.5436 33.7025C84.1338 33.9002 85.7471 33.6243 87.1802 32.9098C89.2631 31.8297 91.4157 29.7545 93.5528 30.7266C94.5749 31.1894 95.2176 32.2695 96.2474 32.7246C97.6644 33.3418 99.2595 32.6089 100.715 32.0843C102.171 31.5597 104.099 31.3823 104.966 32.6552C105.219 33.2108 105.503 33.7517 105.818 34.2752C106.592 35.1238 107.955 34.9155 108.977 34.4141C109.999 33.9126 110.983 33.1798 112.121 33.1952C112.826 33.2753 113.518 33.4437 114.18 33.6966C117.766 34.6841 121.823 31.8683 122.373 28.2039C122.922 24.5395 120.05 20.7749 116.434 20.0497C115.476 19.9833 114.543 19.7207 113.693 19.2783C112.462 18.4142 112.314 16.6399 112.601 15.1664C112.887 13.693 113.491 12.2349 113.313 10.746C113.154 9.82411 112.755 8.95988 112.156 8.2397C111.557 7.51952 110.778 6.96859 109.899 6.64194C108.124 6.0138 106.198 5.94911 104.385 6.45679C100.738 7.34395 99.5924 7.01223 97.4166 4.30445C96.4761 3.0414 95.2659 2.00215 93.8733 1.26173C92.4807 0.521304 90.9404 0.0981816 89.3638 0.0229062Z" fill="#F75454"/>
<path d="M118.648 52.6125C118.65 53.576 118.364 54.5182 117.828 55.3199C117.292 56.1216 116.529 56.7467 115.636 57.1161C114.743 57.4855 113.759 57.5825 112.811 57.3949C111.862 57.2073 110.991 56.7436 110.307 56.0623C109.624 55.3811 109.158 54.513 108.97 53.568C108.782 52.623 108.879 51.6436 109.25 50.7538C109.621 49.8641 110.248 49.1039 111.053 48.5696C111.857 48.0353 112.803 47.7509 113.77 47.7524C115.063 47.7544 116.303 48.2672 117.217 49.1782C118.132 50.0892 118.646 51.3242 118.648 52.6125Z" fill="#EEB399"/>
<path d="M74.1175 52.6125C74.119 53.576 73.8336 54.5182 73.2973 55.3199C72.761 56.1216 71.998 56.7467 71.1049 57.1161C70.2118 57.4855 69.2288 57.5825 68.2803 57.3949C67.3318 57.2073 66.4605 56.7436 65.7767 56.0623C65.093 55.3811 64.6275 54.513 64.4392 53.568C64.2509 52.623 64.3483 51.6436 64.7191 50.7538C65.0898 49.8641 65.7173 49.1039 66.522 48.5696C67.3266 48.0353 68.2723 47.7509 69.2393 47.7524C70.5325 47.7544 71.7721 48.2672 72.6865 49.1782C73.6009 50.0892 74.1155 51.3242 74.1175 52.6125Z" fill="#EEB399"/>
<path d="M81.427 84.3192C81.427 84.3192 81.427 94.4714 92.3758 94.4714C103.325 94.4714 103.216 85.2141 103.216 85.2141" stroke="#406EB2" stroke-width="0.57" stroke-linecap="round" stroke-linejoin="round"/>
<path d="M113.77 141.715C113.77 141.715 118.578 119.088 113.77 96.0913" stroke="#406EB2" stroke-width="0.57" stroke-linecap="round" stroke-linejoin="round"/>
</svg>
