<svg width="1" height="2" viewBox="0 0 1 2" fill="none" xmlns="http://www.w3.org/2000/svg">
<g style="mix-blend-mode:multiply">
<path d="M0.821557 1.50056C0.791927 1.49164 0.766518 1.4723 0.750012 1.44613C0.733507 1.41996 0.727015 1.38871 0.731733 1.35813C0.763812 1.16309 0.812572 0.506105 0.105542 0.254602C0.0872289 0.2513 0.0698522 0.244048 0.0546187 0.233362C0.0393853 0.222675 0.0266613 0.208794 0.0173233 0.192699C0.00798525 0.176603 0.00226367 0.158676 0.000547372 0.140147C-0.00116892 0.121618 0.00116189 0.102939 0.00738461 0.0854019C0.0136073 0.0678651 0.0235705 0.0518856 0.0365819 0.0385828C0.0495933 0.02528 0.0653406 0.014977 0.0827352 0.00836739C0.10013 0.00175777 0.118753 -0.000989273 0.137316 0.00031621C0.155878 0.00162169 0.173937 0.00693809 0.190236 0.0159173C0.898549 0.272553 1.06279 0.89618 0.980669 1.39919C0.974702 1.43193 0.956245 1.46109 0.92919 1.48048C0.902135 1.49987 0.8686 1.508 0.83567 1.50313L0.821557 1.50056Z" fill="#F0D3CC"/>
</g>
</svg>
