<svg width="8" height="47" viewBox="0 0 8 47" fill="none" xmlns="http://www.w3.org/2000/svg">
<path d="M4.076 47C4.00511 47.0001 3.93572 46.9797 3.8762 46.9412C3.81668 46.9027 3.76959 46.8477 3.74061 46.7831C3.71163 46.7184 3.702 46.6467 3.71289 46.5766C3.72378 46.5066 3.75472 46.4412 3.80198 46.3884C5.49501 44.4739 8.8419 37.889 4.05519 30.5101C-0.485633 23.5081 -0.941921 20.8058 1.34562 14.4399C1.62208 13.6704 1.88998 12.9511 2.1432 12.2698C3.86436 7.63843 4.90293 4.842 3.44233 0.458973C3.41901 0.368919 3.43077 0.273376 3.47521 0.191656C3.51965 0.109936 3.59346 0.0481427 3.68173 0.0187728C3.76999 -0.0105971 3.86612 -0.00535549 3.95067 0.0334441C4.03521 0.0722438 4.10187 0.1417 4.13716 0.22777C5.67972 4.85545 4.60567 7.7424 2.82824 12.5254C2.57624 13.2031 2.30957 13.92 2.03433 14.687C-0.0648262 20.5294 0.0257019 22.9539 4.66929 30.1114C9.17219 37.0535 6.94582 43.9345 4.35001 46.8703C4.31621 46.9102 4.27427 46.9424 4.22701 46.9648C4.17975 46.9871 4.12827 46.9991 4.076 47Z" fill="#643F7D"/>
</svg>
