<svg width="3" height="3" viewBox="0 0 3 3" fill="none" xmlns="http://www.w3.org/2000/svg">
<path d="M2.99998 1.49443C2.99998 1.19886 2.912 0.90994 2.74718 0.664181C2.58236 0.418421 2.3481 0.226863 2.07401 0.113752C1.79992 0.000641725 1.49833 -0.0289454 1.20736 0.0287179C0.916396 0.0863812 0.649109 0.228706 0.439332 0.437707C0.229555 0.646708 0.0867019 0.913006 0.0288246 1.2029C-0.0290528 1.49279 0.000644107 1.79326 0.114175 2.06634C0.227705 2.33941 0.419975 2.57281 0.666647 2.73702C0.913319 2.90123 1.20331 2.98889 1.49998 2.98889C1.69732 2.99017 1.89298 2.95237 2.07554 2.87772C2.25811 2.80307 2.42397 2.69306 2.56352 2.55403C2.70306 2.41501 2.81348 2.24973 2.88841 2.06784C2.96333 1.88594 3.00127 1.69104 2.99998 1.49443Z" fill="#31354F"/>
</svg>
