<svg width="20" height="20" viewBox="0 0 20 20" fill="none" xmlns="http://www.w3.org/2000/svg">
<path d="M9.37366 2.67875C9.24315 1.81941 8.97926 0.949526 8.59486 0.0995609C6.59869 0.380253 4.79189 1.2501 3.35574 2.52794L8.31725 7.48949C9.28663 6.25669 9.6613 4.57286 9.37366 2.67875Z" fill="#EE544A"/>
<path d="M8.32232 9.15041C7.13737 10.1288 5.61282 10.64 3.89996 10.64C3.44615 10.64 2.97929 10.6041 2.50189 10.5317C1.66786 10.405 0.827154 10.1674 0.00210929 9.82839C0.00121089 9.88522 0 9.94202 0 9.99908C0 12.5496 0.955391 14.8765 2.52708 16.643L9.17099 9.99908L8.32232 9.15041Z" fill="#EE544A"/>
<path d="M7.48863 8.31632L2.52707 3.35481C1.24923 4.79096 0.379383 6.59772 0.0986909 8.59389C0.948696 8.97829 1.81862 9.24226 2.67784 9.37276C4.57206 9.66045 6.25586 9.2857 7.48863 8.31632Z" fill="#EE544A"/>
<path d="M17.3214 10.6258C15.4273 10.3381 13.7434 10.7129 12.5106 11.6822L17.4721 16.6438C18.75 15.2076 19.6198 13.4008 19.9006 11.4047C19.0506 11.0203 18.1807 10.7564 17.3214 10.6258Z" fill="#EE544A"/>
<path d="M10.8481 11.6775L9.99965 10.829L3.35574 17.4729C5.12219 19.0447 7.44916 20 9.99965 20C10.0567 20 10.1135 19.9988 10.1703 19.9979C9.83137 19.1728 9.59373 18.3321 9.46705 17.4981C9.12097 15.2188 9.61052 13.1763 10.8481 11.6775Z" fill="#EE544A"/>
<path d="M9.1509 8.32251L9.99939 9.17099L16.6433 2.52708C14.8768 0.955352 12.5499 0 9.99939 0C9.94232 0 9.88552 0.00121089 9.82869 0.00214835C10.1677 0.827154 10.4053 1.66778 10.532 2.50193C10.8781 4.78117 10.3885 6.82367 9.1509 8.32251Z" fill="#EE544A"/>
<path d="M10.6252 17.3214C10.7557 18.1806 11.0197 19.0505 11.4041 19.9006C13.4002 19.6199 15.207 18.75 16.6432 17.4722L11.6816 12.5106C10.7123 13.7434 10.3376 15.4273 10.6252 17.3214Z" fill="#EE544A"/>
<path d="M11.6769 10.8472C13.1757 9.60959 15.2182 9.12008 17.4975 9.46616C18.3316 9.59283 19.1723 9.83052 19.9972 10.1695C19.9982 10.1126 19.9994 10.0558 19.9994 9.99871C19.9994 7.44823 19.044 5.12126 17.4723 3.35481L10.8284 9.99875L11.6769 10.8472Z" fill="#EE544A"/>
</svg>
