<svg width="119" height="119" viewBox="0 0 119 119" fill="none" xmlns="http://www.w3.org/2000/svg">
<path d="M89.25 29.4525V74.0775C89.25 82.2915 82.7377 88.9525 74.5241 88.9525H62.2819L62.1778 103.232C62.1716 103.801 61.8265 104.318 61.3177 104.565C61.1098 104.666 60.8748 104.72 60.6516 104.72C60.3303 104.72 59.9281 104.625 59.6636 104.42C59.6636 104.42 29.75 92.6712 29.75 74.0775V29.4525C29.75 21.2385 36.5601 14.5775 44.7741 14.5775H74.5241C82.7377 14.5775 89.25 21.2385 89.25 29.4525Z" fill="#9E1F63"/>
<path d="M62.2786 44.8398V63.1658L65.2239 63.4933V71.8052H47.8799V63.4933L50.8906 63.1658V43.0075L47.8799 42.6802V34.3681H61.4932V37.5097C65.1581 34.1063 69.7399 33.4518 73.7972 33.4518V43.2038C69.6742 43.2035 65.2239 43.9235 62.2786 44.8398Z" fill="#F1F2F2"/>
</svg>
