<svg width="13" height="10" viewBox="0 0 13 10" fill="none" xmlns="http://www.w3.org/2000/svg">
<path opacity="0.3" d="M11.7978 0.982564C11.3992 0.641104 10.9248 0.399023 10.4138 0.276319C9.90271 0.153615 9.3697 0.153801 8.85875 0.276876C8.36424 0.406899 7.90108 0.634778 7.49685 0.946931C7.09262 1.25908 6.7556 1.64913 6.50589 2.0938C6.26409 1.64509 5.93285 1.25032 5.53246 0.9337C5.13207 0.617083 4.67097 0.385294 4.17746 0.252543C3.66938 0.120368 3.13677 0.112556 2.62501 0.229782C2.11325 0.347009 1.63755 0.585797 1.23843 0.925779C0.71917 1.44818 0.365225 2.11094 0.220502 2.83188C0.0757789 3.55282 0.146644 4.30023 0.424297 4.98142C1.0222 6.34507 2.06703 7.46609 3.38776 8.16102C4.32431 8.77064 5.36867 9.19729 6.46519 9.41825V9.41825C7.56503 9.20903 8.6149 8.7934 9.5589 8.19347C10.8884 7.5152 11.9454 6.40484 12.5549 5.0463C12.8426 4.36959 12.9241 3.62357 12.7895 2.90103C12.6549 2.17849 12.31 1.51134 11.7978 0.982564Z" stroke="#FF5C5C" stroke-width="0.28" stroke-linecap="round" stroke-linejoin="round"/>
</svg>
