<svg width="26" height="8" viewBox="0 0 26 8" fill="none" xmlns="http://www.w3.org/2000/svg">
<path d="M18.3883 8C11.5323 7.99745 4.95555 5.29317 0.0934114 0.477283C0.0641725 0.451815 0.0407 0.420425 0.0245928 0.385216C0.00848566 0.350006 0.000114359 0.311781 1.16171e-06 0.273087C-0.000112036 0.234393 0.00804855 0.196118 0.0239495 0.160816C0.0398504 0.125513 0.0631067 0.0939822 0.0921961 0.0683444C0.121286 0.0427066 0.155527 0.0235429 0.192636 0.0121257C0.229745 0.000708555 0.268887 -0.00270154 0.307421 0.00213074C0.345955 0.00696303 0.382994 0.0199408 0.416106 0.0401638C0.449217 0.0603869 0.477631 0.0873912 0.499436 0.119411C3.69246 3.27205 7.66365 5.52982 12.0123 6.66485C16.3609 7.79989 20.9331 7.77204 25.2675 6.58413C25.3358 6.56772 25.4079 6.57899 25.4679 6.61545C25.5279 6.65191 25.571 6.71058 25.5876 6.77862C25.5971 6.81234 25.5997 6.84758 25.5954 6.88232C25.5911 6.91706 25.5798 6.9506 25.5624 6.98099C25.545 7.01138 25.5217 7.03803 25.4938 7.05938C25.466 7.08073 25.4342 7.09636 25.4002 7.10537C23.1092 7.69234 20.7538 7.99286 18.3883 8Z" fill="#161A2D"/>
</svg>
