<svg width="37" height="38" viewBox="0 0 37 38" fill="none" xmlns="http://www.w3.org/2000/svg">
<path d="M32.557 0.473478C31.7127 0.144079 30.8115 -0.0163604 29.9049 0.00131692C28.9984 0.0189943 28.1041 0.214445 27.2734 0.576505C26.4427 0.938566 25.6917 1.46014 25.0633 2.11144C24.4349 2.76273 23.9415 3.53099 23.6112 4.37232L16.6377 22.1588L5.1012 17.6674C5.1012 17.6674 -0.729643 23.6092 0.0765002 30.4868L18.0778 37.5047C18.9221 37.8341 19.8233 37.9945 20.7298 37.9768C21.6364 37.9592 22.5306 37.7637 23.3614 37.4016C24.1921 37.0396 24.9431 36.518 25.5715 35.8667C26.1999 35.2154 26.6933 34.4472 27.0236 33.6058L36.5173 9.43302C36.8528 8.58615 37.0165 7.68139 36.9987 6.7711C36.981 5.86081 36.7822 4.96307 36.4139 4.12983C36.0456 3.29659 35.5151 2.54439 34.853 1.91678C34.191 1.28917 33.4106 0.798606 32.557 0.473478Z" fill="#E88A4B"/>
</svg>
