<svg width="35" height="36" viewBox="0 0 35 36" fill="none" xmlns="http://www.w3.org/2000/svg">
<path d="M17.8502 6.9011C20.4078 6.86176 22.8813 7.8144 24.7515 9.55909L29.7888 4.63435C26.557 1.60665 22.2788 -0.0535748 17.8502 0.00131912C14.5412 0.000554699 11.2973 0.920095 8.48117 2.6571C5.66503 4.39411 3.38773 6.88011 1.90392 9.83707L7.67588 14.3174C8.38165 12.1719 9.74324 10.302 11.5686 8.9714C13.3941 7.64082 15.5912 6.91668 17.8502 6.9011Z" fill="#E43E2B"/>
<path d="M34.9854 18.244C35.0064 17.0172 34.8796 15.7923 34.6078 14.5959H17.8497V21.2194H27.6876C27.501 22.3806 27.0814 23.4922 26.454 24.4871C25.8267 25.4821 25.0045 26.3399 24.037 27.009L29.67 31.3709C31.4255 29.6763 32.806 27.6326 33.7225 25.3715C34.6389 23.1104 35.0709 20.6823 34.9905 18.244H34.9854Z" fill="#3B7DED"/>
<path d="M7.69653 21.3758C7.30627 20.2398 7.10507 19.0474 7.10097 17.8462C7.10809 16.6469 7.30207 15.456 7.67594 14.3165L1.90398 9.83616C0.652089 12.3211 0 15.0647 0 17.847C0 20.6293 0.652089 23.373 1.90398 25.8579L7.69653 21.3758Z" fill="#F0B501"/>
<path d="M17.85 35.6926C22.1979 35.8155 26.4277 34.2687 29.6702 31.3701L24.0373 27.0082C22.2109 28.2324 20.0479 28.8562 17.85 28.7928C15.5929 28.7794 13.3973 28.0557 11.5748 26.7245C9.75224 25.3933 8.39523 23.5222 7.69625 21.3765L1.92429 25.8585C3.4041 28.8142 5.67768 31.2996 8.49041 33.0364C11.3031 34.7733 14.544 35.693 17.85 35.6926Z" fill="#2BA24C"/>
</svg>
