<svg width="6" height="13" viewBox="0 0 6 13" fill="none" xmlns="http://www.w3.org/2000/svg">
<g style="mix-blend-mode:screen">
<path d="M4.05446 12.9764C3.88876 12.9765 3.72522 12.9388 3.5763 12.8661C3.44588 12.8033 3.32911 12.7154 3.23265 12.6075C3.13619 12.4996 3.06194 12.3737 3.01412 12.2371C2.9663 12.1005 2.94586 11.9558 2.95397 11.8113C2.96208 11.6668 2.99857 11.5253 3.06137 11.3949C3.8347 9.78467 4.00041 7.94935 3.52803 6.22669C3.05565 4.50402 1.97696 3.00994 0.490486 2.01944C0.370065 1.93907 0.266649 1.83578 0.186148 1.71545C0.105648 1.59512 0.0496319 1.46011 0.0213072 1.31813C-0.00701756 1.17615 -0.00710414 1.02999 0.0210594 0.887981C0.049223 0.745972 0.105087 0.610907 0.185452 0.490486C0.265816 0.370065 0.369119 0.266649 0.489449 0.186148C0.609779 0.105648 0.744781 0.0496319 0.886758 0.0213072C1.02874 -0.00701755 1.1749 -0.00710415 1.31691 0.0210594C1.45892 0.049223 1.594 0.105087 1.71442 0.185452C3.64526 1.47091 5.04616 3.4112 5.65873 5.64845C6.27131 7.8857 6.05423 10.269 5.04755 12.3588C4.95676 12.5446 4.81544 12.7011 4.6398 12.8104C4.46416 12.9196 4.2613 12.9772 4.05446 12.9764Z" fill="#6E4B4B"/>
</g>
</svg>
