<svg width="11" height="8" viewBox="0 0 11 8" fill="none" xmlns="http://www.w3.org/2000/svg">
<path d="M0.889504 0.717548C1.23122 0.421569 1.63952 0.212057 2.07982 0.106777C2.52011 0.00149669 2.97942 0.00355329 3.41874 0.112775C3.84373 0.225167 4.24175 0.421332 4.5893 0.689684C4.93685 0.958037 5.22685 1.29311 5.44213 1.67509C5.65214 1.28956 5.93811 0.950244 6.28289 0.677457C6.62768 0.40467 7.02419 0.204039 7.44866 0.0875771C7.8861 -0.0235984 8.34385 -0.029003 8.78381 0.0718125C9.22376 0.172628 9.63318 0.376745 9.9779 0.667152C10.43 1.11779 10.7383 1.69144 10.8643 2.31608C10.9903 2.94073 10.9283 3.58853 10.6861 4.17818C10.1785 5.34991 9.28678 6.31532 8.15685 6.91647C7.35247 7.44371 6.45366 7.81158 5.50957 8C4.56627 7.81839 3.66549 7.46226 2.85387 6.95005C1.71088 6.36216 0.801512 5.40584 0.274047 4.23699C0.0171741 3.6552 -0.0614506 3.01078 0.0480455 2.38463C0.157542 1.75848 0.450287 1.1785 0.889504 0.717548Z" fill="#FF5C5C"/>
</svg>
