<svg width="161" height="160" viewBox="0 0 161 160" fill="none" xmlns="http://www.w3.org/2000/svg">
<g style="mix-blend-mode:multiply" opacity="0.5">
<path d="M146.358 159.492L6.81375 152.763C5.94201 152.72 5.08742 152.505 4.29876 152.133C3.5101 151.76 2.80283 151.237 2.21735 150.592C1.63187 149.947 1.17964 149.193 0.886492 148.374C0.593341 147.555 0.465014 146.686 0.508832 145.818L7.25526 6.79701C7.34748 5.04377 8.13243 3.39816 9.43862 2.21971C10.7448 1.04126 12.4661 0.425768 14.2263 0.507698L153.771 7.23687C154.643 7.28037 155.497 7.49453 156.286 7.86712C157.075 8.23971 157.782 8.76342 158.367 9.40837C158.953 10.0533 159.405 10.8068 159.698 11.6259C159.991 12.445 160.12 13.3136 160.076 14.1821L153.33 153.203C153.237 154.956 152.452 156.602 151.146 157.78C149.84 158.959 148.119 159.574 146.358 159.492V159.492Z" stroke="#808285" stroke-miterlimit="10"/>
<path d="M148.46 16.1305L17.7125 9.82791L12.3414 120.429L143.089 126.732L148.46 16.1305Z" stroke="#808285" stroke-miterlimit="10"/>
<path d="M27.2543 140.185V140.131H27.6726V140.2C27.6639 140.28 27.6725 140.36 27.6979 140.436C27.7233 140.512 27.7649 140.581 27.8197 140.64C27.9403 140.751 28.0973 140.814 28.2612 140.817C28.3482 140.825 28.4358 140.815 28.5185 140.787C28.6012 140.759 28.6771 140.714 28.7415 140.655C28.8608 140.521 28.9293 140.349 28.9351 140.169V140.022C28.9476 139.837 28.8926 139.654 28.7802 139.505C28.7191 139.439 28.645 139.385 28.5624 139.348C28.4799 139.311 28.3906 139.291 28.3 139.289H28.0986V138.919H28.3464C28.428 138.926 28.51 138.916 28.5874 138.889C28.6647 138.862 28.7357 138.82 28.7957 138.765C28.9139 138.642 28.9804 138.479 28.9816 138.309V138.194C28.9964 138.029 28.9463 137.866 28.8422 137.738C28.7917 137.677 28.7278 137.627 28.6553 137.594C28.5829 137.56 28.5037 137.544 28.4239 137.545C28.3461 137.535 28.267 137.542 28.1921 137.566C28.1173 137.589 28.0486 137.629 27.991 137.682C27.9333 137.735 27.888 137.8 27.8585 137.872C27.8289 137.945 27.8157 138.023 27.8197 138.101V138.186H27.4247V138.086C27.4244 137.959 27.4505 137.835 27.5011 137.719C27.5518 137.603 27.626 137.5 27.7191 137.414C27.8256 137.326 27.9497 137.261 28.0832 137.224C28.2166 137.186 28.3565 137.178 28.4936 137.198C28.6249 137.197 28.7551 137.222 28.8763 137.273C28.9975 137.323 29.1071 137.397 29.1985 137.491C29.2847 137.589 29.3499 137.702 29.3899 137.826C29.4299 137.949 29.4438 138.08 29.4308 138.209V138.332C29.4281 138.505 29.3712 138.672 29.2682 138.811C29.1781 138.945 29.048 139.048 28.8964 139.104C29.0702 139.173 29.2132 139.302 29.2991 139.467C29.3881 139.646 29.4282 139.846 29.4153 140.046V140.131C29.4167 140.274 29.3885 140.417 29.3326 140.55C29.2767 140.682 29.1941 140.802 29.09 140.902C28.9846 140.994 28.8617 141.064 28.7287 141.108C28.5956 141.152 28.4551 141.168 28.3155 141.157C28.0427 141.158 27.7798 141.056 27.5796 140.871C27.4765 140.789 27.3936 140.684 27.3372 140.565C27.2808 140.446 27.2525 140.316 27.2543 140.185Z" fill="#808285"/>
<path d="M31.832 140.516V141.288H31.4138L31.4525 140.516L29.9886 140.447V140.076L31.2976 137.376H31.7081L30.4068 140.076L31.4447 140.131L31.499 139.066H31.9095L31.863 140.123H32.289V140.493L31.832 140.516Z" fill="#808285"/>
<path d="M32.8932 140.486V140.416H33.2883V140.455C33.2772 140.531 33.2832 140.608 33.306 140.682C33.3288 140.755 33.3677 140.823 33.4199 140.879C33.4762 140.934 33.5428 140.977 33.6159 141.006C33.689 141.036 33.7672 141.05 33.846 141.049C34.241 141.049 34.4501 140.833 34.4733 140.347V139.976C34.4944 139.78 34.4509 139.582 34.3494 139.413C34.2986 139.347 34.2326 139.295 34.1571 139.26C34.0816 139.225 33.9988 139.209 33.9157 139.212C33.7909 139.203 33.6662 139.232 33.5594 139.297C33.4563 139.363 33.3774 139.461 33.3347 139.575H32.9707L33.0714 137.445L34.9381 137.538V137.916L33.4509 137.839L33.389 139.081C33.4665 139.006 33.5588 138.948 33.6601 138.911C33.8398 138.848 34.0341 138.84 34.2187 138.887C34.4033 138.933 34.57 139.033 34.698 139.174C34.8631 139.413 34.9347 139.704 34.8994 139.992V140.416C34.9031 140.703 34.7947 140.979 34.5973 141.188C34.4939 141.282 34.371 141.354 34.2373 141.396C34.1035 141.439 33.9621 141.452 33.8227 141.435C33.5582 141.437 33.303 141.337 33.1101 141.157C33.0286 141.066 32.9672 140.96 32.9298 140.844C32.8924 140.729 32.88 140.606 32.8932 140.486Z" fill="#808285"/>
<path d="M56.3468 139.544V139.081L57.044 138.603H57.4545L57.2686 142.461H56.8581L57.0285 139.042L56.3468 139.544Z" fill="#808285"/>
<path d="M58.1593 141.512V141.319C58.1618 141.182 58.188 141.046 58.2367 140.918C58.2881 140.773 58.3529 140.633 58.4304 140.501L59.4296 138.718H59.8556L58.9338 140.385C58.9918 140.351 59.0544 140.325 59.1197 140.308C59.1994 140.296 59.2802 140.296 59.3598 140.308C59.4911 140.306 59.6211 140.334 59.7404 140.389C59.8596 140.443 59.9651 140.524 60.0492 140.624C60.2222 140.843 60.3053 141.119 60.2816 141.396V141.589C60.277 141.796 60.2183 141.998 60.1112 142.175C60.0153 142.328 59.8785 142.451 59.7161 142.53C59.5456 142.614 59.3559 142.651 59.1662 142.638C59.0207 142.642 58.8761 142.615 58.7424 142.557C58.6087 142.5 58.489 142.414 58.3916 142.307C58.2128 142.082 58.1294 141.797 58.1593 141.512ZM59.8788 141.604V141.411C59.8979 141.223 59.8423 141.035 59.7239 140.887C59.6671 140.819 59.596 140.764 59.5157 140.727C59.4354 140.69 59.3478 140.671 59.2592 140.671C59.1716 140.663 59.0833 140.674 59.0005 140.703C58.9176 140.733 58.842 140.779 58.7789 140.84C58.6523 140.977 58.583 141.156 58.5853 141.342V141.535C58.5648 141.727 58.6173 141.92 58.7325 142.075C58.7906 142.141 58.8619 142.195 58.942 142.232C59.022 142.269 59.1089 142.289 59.1972 142.291C59.2867 142.3 59.3771 142.289 59.4616 142.258C59.5461 142.227 59.6225 142.178 59.6852 142.114C59.8097 141.973 59.8785 141.792 59.8788 141.604Z" fill="#808285"/>
<path d="M50.282 144.421C51.122 143.798 51.7141 142.899 51.9541 141.884C52.1941 140.868 52.0665 139.8 51.5938 138.869C51.1211 137.938 50.3337 137.203 49.3703 136.794C48.4069 136.385 47.3295 136.327 46.3278 136.632C45.3262 136.937 44.4647 137.584 43.8952 138.46C43.3257 139.336 43.0848 140.383 43.2149 141.419C43.345 142.454 43.8378 143.41 44.6064 144.119C45.375 144.828 46.37 145.244 47.4162 145.293C47.764 145.311 48.1127 145.285 48.4541 145.216L50.7778 146.551L50.282 144.421Z" stroke="#808285" stroke-linecap="round" stroke-linejoin="round"/>
<path d="M143.428 128.806L12.6806 122.504L12.6106 123.945L143.358 130.248L143.428 128.806Z" fill="#808285"/>
<path d="M69.8195 128.538L12.5226 125.776L12.4526 127.218L69.7495 129.98L69.8195 128.538Z" fill="#808285"/>
<path d="M93.7474 132.974L12.3666 129.051L12.2966 130.492L93.6774 134.415L93.7474 132.974Z" fill="#808285"/>
<path d="M142.842 141.026L136.413 140.717L135.894 151.42L139.217 149.36L142.323 151.729L142.842 141.026Z" stroke="#808285" stroke-miterlimit="10"/>
<path d="M23.126 136.048C22.7626 135.708 22.3222 135.46 21.8422 135.326C21.3621 135.192 20.8566 135.175 20.3686 135.277C19.8926 135.377 19.4416 135.571 19.0425 135.848C18.6433 136.125 18.3041 136.479 18.0449 136.889C17.8321 136.455 17.534 136.067 17.1681 135.748C16.8023 135.43 16.3761 135.189 15.9148 135.037C15.4379 134.887 14.9317 134.855 14.4394 134.942C13.9471 135.029 13.4833 135.234 13.0877 135.539C12.5616 136.015 12.1888 136.635 12.0164 137.322C11.8441 138.009 11.88 138.731 12.1195 139.397C12.6262 140.72 13.5682 141.833 14.7917 142.554C15.6531 143.176 16.6258 143.629 17.6576 143.889C18.71 143.737 19.7243 143.388 20.6474 142.862C21.9429 142.277 23 141.27 23.6449 140.007C23.9648 139.371 24.0863 138.654 23.9938 137.949C23.9013 137.243 23.5991 136.581 23.126 136.048V136.048Z" stroke="#808285" stroke-linecap="round" stroke-linejoin="round"/>
</g>
</svg>
