<svg width="13" height="9" viewBox="0 0 13 9" fill="none" xmlns="http://www.w3.org/2000/svg">
<path d="M11.3148 0.813243C10.93 0.477537 10.4692 0.239817 9.97194 0.120425C9.47469 0.00103217 8.9558 0.00353197 8.45974 0.127735C7.97937 0.254042 7.52944 0.475408 7.13676 0.77864C6.74409 1.08187 6.4167 1.46078 6.17412 1.89275C5.93923 1.45686 5.61746 1.07337 5.22851 0.7658C4.83956 0.458231 4.39164 0.233055 3.91223 0.104097C3.4193 -0.0253554 2.90228 -0.0342019 2.40518 0.0782957C1.90808 0.190793 1.44563 0.421309 1.0572 0.750218C0.554542 1.25879 0.211913 1.90255 0.0714151 2.60245C-0.0690831 3.30234 -0.00133233 4.02788 0.266333 4.68994C0.849261 6.01323 1.86365 7.10163 3.1451 7.77869C4.05631 8.36821 5.07029 8.78245 6.13459 9C7.20299 8.79675 8.22286 8.39298 9.13988 7.81019C10.4313 7.15131 11.4582 6.07268 12.0503 4.75297C12.328 4.0966 12.4064 3.3735 12.2756 2.67321C12.1449 1.97292 11.8108 1.32622 11.3148 0.813243Z" fill="#FF5C5C"/>
</svg>
