<svg width="70" height="86" viewBox="0 0 70 86" fill="none" xmlns="http://www.w3.org/2000/svg">
<path d="M64.0847 42.5754C66.9757 39.3965 70.0586 34.868 67.843 30.6286C65.6273 26.3893 61.869 22.6309 65.535 17.8134C69.201 12.9958 71.311 4.5183 66.5943 2.49458C61.8775 0.47086 58.3087 3.93888 54.0693 1.8192C49.83 -0.300485 44.4342 -1.07062 38.5574 2.30508C36.1486 -0.392803 34.6071 2.40105 36.1486 4.61305C32.9685 3.26349 32.4874 6.34644 33.6426 7.31093C29.1142 10.7789 30.2706 17.6202 30.9447 20.7032C31.6189 23.7861 26.3155 30.7246 18.0299 33.3265C9.74429 35.9284 11.0926 40.0706 11.3817 43.2495C11.6708 46.4285 10.2253 47.297 5.69686 48.8372C1.16839 50.3775 -3.26411 58.6643 3.38889 63.0008C10.0419 67.3374 10.4233 69.3599 7.62826 72.9251C4.83319 76.4903 10.3261 89.2023 21.7919 84.1005C33.2576 78.9987 65.6225 71.6727 65.6225 71.6727C65.6225 71.6727 66.8749 70.7094 69.5728 59.9191C72.2706 49.1288 61.1948 45.7555 64.0847 42.5754Z" fill="#2B1710"/>
</svg>
