<svg width="94" height="112" viewBox="0 0 94 112" fill="none" xmlns="http://www.w3.org/2000/svg">
<path d="M59.2548 42.643L46.9623 61.3276L52.9775 65.3994L59.2548 42.643Z" fill="#00B6AA"/>
<path d="M74.1566 75.1815L71.6024 111.926H55.1612L58.8547 95.0525L53.4052 95.0077L47.1693 112H31.7963L47.2895 74.2973" fill="#171766"/>
<path d="M59.2548 42.6431L46.9623 76.3031C46.9623 76.3031 67.7907 84.7422 79.4643 77.7313L75.4752 43.2699L59.2548 42.6431Z" fill="#171766"/>
<path d="M72.5327 34.4858L65.3034 35.4975L64.8876 40.8363C67.1955 40.308 69.5073 39.7999 71.831 39.3343L72.5327 34.4858Z" fill="#171766"/>
<path d="M72.9879 43.0816L72.4282 49.7164L67.0477 56.0961L66.1706 57.137L65.9322 56.4542L63.4685 49.4165L63.6617 42.2936H70.6623L72.9879 43.0816Z" fill="white"/>
<path d="M64.8895 40.8362L64.6846 43.4687L67.7552 47.113L71.1964 43.7597L71.835 39.3365C69.5073 39.7998 67.1955 40.308 64.8895 40.8362Z" fill="#F2583E"/>
<path d="M76.784 29.5598C77.5461 24.3011 74.4104 19.3364 69.7804 18.4709C65.1503 17.6054 60.7791 21.1667 60.017 26.4254C59.255 31.6842 62.3906 36.6488 67.0207 37.5144C71.6508 38.3799 76.022 34.8185 76.784 29.5598Z" fill="#F2583E"/>
<path d="M72.0984 33.0677C72.2693 31.8755 71.5569 30.7518 70.5073 30.5577C69.4576 30.3636 68.4682 31.1726 68.2973 32.3648C68.1264 33.5569 68.8388 34.6807 69.8884 34.8748C70.938 35.0689 71.9275 34.2598 72.0984 33.0677Z" fill="#F6EF97"/>
<path d="M66.0858 18.7984C65.2502 18.87 64.4125 18.9416 63.5749 19.0133C63.3502 19.0334 63.1196 19.0535 62.9166 19.1632C62.7136 19.2729 62.5402 19.4968 62.5382 19.752C62.5363 20.0295 62.7235 20.2578 62.9186 20.4235C63.5 20.9204 64.2628 21.1398 64.9821 21.0145C64.7042 21.4465 64.1031 21.7106 64.1524 22.2434C64.1898 22.6508 64.6057 22.8545 64.9624 22.9149C65.5833 23.0201 66.2258 22.944 66.8131 22.6933C66.7165 23.1097 66.6259 23.5753 66.8111 23.9491C66.9944 24.3229 67.3965 24.4841 67.7729 24.5378C69.2057 24.7415 70.5598 23.8439 71.8014 23.0067C71.9591 22.8993 72.1719 22.7963 72.3119 22.9306C72.3927 23.0067 72.4144 23.1321 72.4301 23.2507C72.6548 24.9251 72.3119 26.6263 72.3217 28.3186C72.3257 29.1603 72.4518 30.0781 72.9977 30.6466C73.4057 31.0719 73.9812 31.2242 74.5331 31.2824C75.0948 31.3406 75.688 31.3115 76.1788 30.9958C76.5 30.7899 76.7562 30.472 76.975 30.134C77.6944 29.0193 78.0472 27.5598 77.7436 26.2212C77.6431 25.7802 77.4697 25.3481 77.1839 25.028" fill="#00B6AA"/>
<path d="M75.9895 35.4975C77.7518 35.4975 79.1804 33.8749 79.1804 31.8734C79.1804 29.8719 77.7518 28.2493 75.9895 28.2493C74.2272 28.2493 72.7986 29.8719 72.7986 31.8734C72.7986 33.8749 74.2272 35.4975 75.9895 35.4975Z" fill="#F2583E"/>
<path d="M78.7902 18.7471L78.3014 20.9901L77.4776 24.7574L66.0661 18.7471L67.6645 16.6609L69.7734 13.9053C69.7734 13.9053 75.5205 14.3798 78.7902 18.7471Z" fill="#171766"/>
<path d="M78.3014 20.9901L77.4776 24.7575L66.0661 18.7472L67.6645 16.6609L78.3014 20.9901Z" fill="#00B6AA"/>
<path d="M63.3404 16.1997L81.7446 26.0177C81.7446 26.0177 80.1501 29.747 69.7734 23.3293C62.6526 18.9262 63.3404 16.1997 63.3404 16.1997Z" fill="#171766"/>
<path d="M61.1665 24.0164C61.1665 24.0164 60.1614 26.5257 61.7085 27.0943C63.2556 27.6629 64.5091 25.4647 64.5091 25.4647C64.5091 25.4647 62.6407 27.0988 61.671 26.1676C60.9536 25.4803 61.1665 24.0164 61.1665 24.0164Z" fill="#171766"/>
<path d="M67.1186 26.94C67.1186 26.94 66.1134 29.4493 67.6606 30.0179C69.2077 30.5865 70.4612 28.3883 70.4612 28.3883C70.4612 28.3883 68.5928 30.0224 67.6231 29.0911C66.9038 28.4039 67.1186 26.94 67.1186 26.94Z" fill="#171766"/>
<path d="M66.2514 24.3521L62.5382 28.2L64.3948 29.7871L66.6278 24.7572L66.2514 24.3521Z" fill="#FFB459"/>
<path d="M74.3735 33.331L74.1567 30.797L77.653 29.4517V30.112L74.7499 31.1619L75.3412 33.575L74.3735 33.331Z" fill="#171766"/>
<path d="M67.7552 47.1111L65.8139 49.0809L63.1118 41.9357L64.8895 40.8366L67.7552 47.1111Z" fill="#00B6AA"/>
<path d="M69.0402 49.7164L67.7552 47.1108L71.5393 41.3669L73.5161 43.1218L69.0402 49.7164Z" fill="#00B6AA"/>
<path d="M68.2282 47.111L67.0477 56.0963L66.1706 57.1372L65.9321 56.4544L67.4261 47.111H68.2282Z" fill="#00B6AA"/>
<path d="M62.7452 34.356C62.7452 34.356 58.6753 34.8776 56.8443 36.8161C56.1348 37.5705 55.6717 40.5611 55.1533 44.9395C55.1513 44.9463 55.1513 44.953 55.1494 44.9597C54.3314 51.8542 53.3657 62.1736 51.0519 72.6161C47.2619 89.7069 37.8509 95.8224 37.8509 95.8224C31.3489 95.4665 26.5478 93.7474 23.0259 91.2358C13.609 84.5226 13.3429 72.1527 14.1963 65.0814C12.9349 62.1221 13.3725 57.8265 13.4809 57.7929C18.8279 56.2013 24.2833 59.2591 28.3768 62.684C29.8097 63.8838 31.0769 65.1284 32.1117 66.232C33.7534 67.9847 34.8197 69.386 35.0581 69.7016V69.7038C35.0916 69.7486 35.1074 69.771 35.1074 69.771L31.9087 73.4488L33.4085 77.2789C33.4085 77.2789 51.9132 37.0176 55.1553 34.112C60.1535 31.8735 61.7834 32.3638 61.7834 32.3638L62.7452 34.356Z" fill="#F6EF97"/>
<path d="M49.7782 48.539C50.5663 47.6438 50.5663 46.1925 49.7782 45.2973C48.99 44.4022 47.7122 44.4022 46.9241 45.2973C46.1359 46.1925 46.1359 47.6438 46.9241 48.539C47.7122 49.4341 48.99 49.4341 49.7782 48.539Z" fill="#FFB459"/>
<path d="M52.5179 43.6389C53.306 42.7438 53.306 41.2924 52.5179 40.3973C51.7298 39.5021 50.4519 39.5021 49.6638 40.3973C48.8756 41.2924 48.8756 42.7438 49.6638 43.6389C50.4519 44.5341 51.7298 44.5341 52.5179 43.6389Z" fill="#FFB459"/>
<path d="M47.6229 52.5802C47.8778 51.3478 47.2048 50.1141 46.1197 49.8245C45.0346 49.535 43.9484 50.2994 43.6934 51.5318C43.4385 52.7642 44.1115 53.9979 45.1966 54.2875C46.2817 54.577 47.3679 53.8126 47.6229 52.5802Z" fill="#FFB459"/>
<path d="M44.9332 57.7299C45.1904 56.4982 44.5198 55.2628 43.4353 54.9706C42.3507 54.6784 41.263 55.4401 41.0058 56.6718C40.7485 57.9036 41.4191 59.139 42.5037 59.4312C43.5882 59.7234 44.6759 58.9617 44.9332 57.7299Z" fill="#FFB459"/>
<path d="M42.2437 62.8703C42.501 61.6386 41.8303 60.4032 40.7458 60.111C39.6613 59.8188 38.5736 60.5805 38.3163 61.8122C38.059 63.044 38.7297 64.2794 39.8142 64.5716C40.8987 64.8638 41.9865 64.1021 42.2437 62.8703Z" fill="#FFB459"/>
<path d="M39.5511 68.0002C39.806 66.7678 39.133 65.534 38.0479 65.2445C36.9629 64.955 35.8766 65.7193 35.6217 66.9517C35.3668 68.1841 36.0397 69.4179 37.1248 69.7074C38.2099 69.9969 39.2962 69.2326 39.5511 68.0002Z" fill="#FFB459"/>
<path d="M51.6412 37.6598L56.9094 40.1625L58.0525 38.9111L52.4433 36.2608" fill="#F2583E"/>
<path d="M55.1494 44.9598C54.3314 51.8543 53.3657 62.1737 51.0519 72.6162C47.2619 89.707 37.8509 95.8225 37.8509 95.8225C37.8509 95.8225 32.4427 93.922 30.3102 91.2359L37.2911 92.523C37.2911 92.523 53.1351 58.8428 55.1494 44.9598Z" fill="#FFB459"/>
<path d="M28.377 62.684C26.479 65.3366 24.8471 68.2287 23.6646 71.3671C22.0603 75.6247 21.743 80.8896 22.009 85.5098C22.1214 87.4573 22.4683 89.3891 23.028 91.2358C13.6111 84.5226 13.345 72.1528 14.1984 65.0814C12.9351 62.1221 13.3746 57.8265 13.481 57.7929C18.83 56.2014 24.2834 59.2591 28.377 62.684Z" fill="#FFB459"/>
<path d="M35.0581 69.7013L31.9087 73.4486C16.6737 74.3663 15.0359 61.269 15.0359 61.269L24.6321 62.2136L32.1097 66.2317C33.7534 67.9844 34.8197 69.3857 35.0581 69.7013Z" fill="#FFB459"/>
<path d="M35.1074 69.7709C19.0644 75.2798 13.4808 57.7928 13.4808 57.7928C24.0882 54.6343 35.1074 69.7709 35.1074 69.7709Z" fill="#171766"/>
<path d="M61.1331 30.5284L62.2703 35.5403L63.2971 35.0904L62.6112 30.5284H61.1331Z" fill="#171766"/>
<path d="M63.6341 30.8998L61.951 31.681L62.5028 33.6845L64.3811 34.0785L63.6341 30.8998Z" fill="#171766"/>
<path d="M20.0163 39.1868C14.0386 49.0608 21.0452 59.313 26.0433 68.0319C25.324 67.9491 24.6065 67.7991 23.9798 67.5327C21.595 66.5276 9.88795 55.2211 11.7406 44.6241C12.4087 40.7896 14.0682 37.2998 15.2704 33.6376C16.4727 29.9733 17.0048 25.6105 15.1069 22.349C14.419 21.1648 13.4631 20.2224 12.5388 19.2711C10.1264 16.7931 7.80275 14.089 6.36597 10.776C4.92919 7.46085 4.48377 3.4204 5.87128 0.0783468L11.8825 0H23.6625C22.2237 3.20774 22.1488 7.08927 24.1552 10.7581C26.3232 14.3397 28.8853 17.2497 28.4912 21.7267C27.8999 28.666 23.3669 33.3668 20.0163 39.1868Z" fill="#00B6AA"/>
<path d="M54.5069 15.0112C48.9884 17.2497 41.1049 17.6974 40.5136 25.756C40.1194 31.1283 40.5136 37.3961 35.9806 40.5299C32.433 42.7684 28.2941 44.1115 26.5203 48.3646C24.2341 54.5294 25.0579 62.1044 28.0083 68.1102C27.4052 68.1259 26.7233 68.1102 26.0433 68.0319C21.0452 59.313 14.0387 49.0608 20.0164 39.1868C23.3669 33.3668 27.8999 28.666 28.4912 21.7267C28.8854 17.2497 26.3232 14.3397 24.1552 10.7581C22.1489 7.08927 22.2238 3.20774 23.6625 0H61.9608C62.2762 6.23193 59.7258 12.8556 54.5069 15.0112Z" fill="#7BD6AA"/>
<path d="M85.4794 0C84.5314 3.38682 83.4337 6.74678 81.6953 9.69486C79.7915 12.9205 77.0184 15.6425 73.6915 16.5468C71.6497 17.102 69.5172 16.9542 67.4241 17.1423C65.331 17.3303 63.1315 17.9369 61.677 19.6561C60.0412 21.5857 59.6628 24.527 58.1452 26.5752C54.9701 30.8686 48.5016 29.4808 44.7687 33.1496C40.7994 37.0491 41.3768 45.2128 36.8497 48.2325C35.0739 49.4167 27.3402 51.4358 27.1628 57.2894C27.0169 62.129 30.0817 67.9356 30.0817 67.9356C30.0817 67.9356 29.1948 68.0789 28.0083 68.1102C25.0579 62.1044 24.234 54.5294 26.5203 48.3646C28.2941 44.1115 32.4329 42.7684 35.9805 40.5299C40.5136 37.396 40.1194 31.1283 40.5136 25.7559C41.1049 17.6974 48.9884 17.2497 54.5069 15.0112C59.7258 12.8556 62.2762 6.23193 61.9608 0H85.4794Z" fill="#00B6AA"/>
<path d="M86.6206 73.4938C85.8736 78.32 82.464 82.8932 77.4382 85.9868C71.4782 89.6556 63.2458 91.2427 54.4931 88.702C52.8888 88.2364 51.2668 87.632 49.6388 86.8754L56.1684 66.512C57.3982 66.8119 58.695 67.1029 60.0057 67.3559C65.9893 68.5132 72.2981 68.896 74.1567 66.0038C77.9743 60.0674 74.1567 49.0832 74.1567 49.0832C74.1567 49.0832 72.3986 46.6365 75.4752 43.2698C75.4752 43.2698 85.5129 56.0314 86.7211 68.1886C86.9004 69.9839 86.8886 71.7679 86.6206 73.4938Z" fill="#00B6AA"/>
<path d="M52.6858 65.189L51.6412 57.3588L50.37 56.7253L49.4358 61.7484L43.6158 56.5193L42.6422 58.1042L45.6596 62.8833L40.9511 61.1955L39.8534 63.7855L45.3561 67.4789L38.0323 67.3581L37.5868 69.3906L53.4722 76.6209L56.6552 69.3906L52.6858 65.189Z" fill="#F1573D"/>
<path d="M38.0322 69.1222L38.2589 67.4792C38.2589 67.4792 39.607 67.9403 39.473 68.7708C39.3409 69.6013 38.0322 69.1222 38.0322 69.1222Z" fill="#171766"/>
<path d="M40.6437 63.387L41.2901 61.7775C41.2901 61.7775 42.9299 62.9102 42.7289 63.6892C42.5318 64.4682 40.6437 63.387 40.6437 63.387Z" fill="#171766"/>
<path d="M43.1723 58.1802L43.8365 57.1998C43.8365 57.1998 45.4763 58.6324 44.8989 59.2748C44.3253 59.915 43.1723 58.1802 43.1723 58.1802Z" fill="#171766"/>
<path d="M50.6144 57.4754L51.6767 57.8537C51.6767 57.8537 51.9428 60.0922 51.3673 59.9422C50.7918 59.79 50.6144 57.4754 50.6144 57.4754Z" fill="#171766"/>
<path d="M60.8452 64.1011L60.0056 67.3558L54.4931 88.702L53.5056 92.5231L48.8287 89.3982L49.6388 86.8754L56.1683 66.5119L57.3331 62.8834L60.8452 64.1011Z" fill="white"/>
<path d="M86.6206 73.494C85.8736 78.3202 82.464 82.8934 77.4382 85.9869C76.3562 83.2649 76.1512 80.0908 76.9356 77.2345C78.1004 72.9859 81.382 69.655 85.1641 68.4932C85.6627 68.3388 86.1929 68.2291 86.7211 68.1888C86.9005 69.9841 86.8886 71.7681 86.6206 73.494Z" fill="#FFB459"/>
<path d="M42.9693 53.0743L38.2609 49.5957L44.5125 36.7804L48.8288 37.6602L42.9693 53.0743Z" fill="white"/>
<path d="M44.2287 39.2001L51.1465 38.2129L52.0295 39.4307L48.0286 41.8169L54.0398 46.7572L52.9617 48.2525L48.0936 46.2513L50.8016 50.9409L48.9076 52.8436L44.2819 47.8317L46.375 55.8051L44.7727 56.8438L39.8849 49.6359" fill="#F1573D"/>
<path d="M44.8791 56.2842L46.2095 55.5881C46.2095 55.5881 45.4527 54.2405 44.7865 54.6121C44.1184 54.9837 44.8791 56.2842 44.8791 56.2842Z" fill="#171766"/>
<path d="M49.0298 51.8725L50.2182 50.7287C50.2182 50.7287 48.813 49.2446 48.2079 49.6743C47.6009 50.1041 49.0298 51.8725 49.0298 51.8725Z" fill="#171766"/>
<path d="M52.7548 47.6909L53.4052 46.697C53.4052 46.697 51.7457 45.2957 51.3574 46.0993C50.9711 46.9051 52.7548 47.6909 52.7548 47.6909Z" fill="#171766"/>
<path d="M51.3279 39.3658L50.7189 38.307C50.7189 38.307 48.75 38.6249 49.0338 39.2136C49.3195 39.8023 51.3279 39.3658 51.3279 39.3658Z" fill="#171766"/>
<path d="M2.32959 86.7857L8.91039 90.6806L13.609 79.589L11.5139 98.3541L6.81533 95.03L0 108.344L2.32959 86.7857Z" fill="#FFB459"/>
<path d="M18.749 90.7997L21.3427 102.717L15.2882 104.369L19.6872 110.389V105.195L26.2621 104.723L18.749 90.7997Z" fill="#F6EF97"/>
<path d="M34.7014 61.3277L42.6126 54.8966L40.8545 52.1231L34.7014 61.3277Z" fill="#00B6AA"/>
<path d="M31.1657 59.2748L35.3105 44.3777L32.4704 44.9597L31.1657 59.2748Z" fill="#F1573D"/>
<path d="M11.514 56.7254L2.11676 50.5204L4.9036 45.9897L11.514 56.7254Z" fill="#00B6AA"/>
<path d="M8.94388 44.9599L2.72376 29.4518L8.13385 26.1791L8.94388 44.9599Z" fill="#F6EF97"/>
<path d="M9.41691 59.2748L0.967713 63.5727L2.45376 66.4917L9.41691 59.2748Z" fill="#F1573D"/>
<path d="M83.138 32.7152L86.8413 38.4972L92.8545 30.8998L88.5363 45.9894L82.8286 38.4457L76.4626 42.0184L83.138 32.7152Z" fill="#FFB459"/>
<path d="M80.2073 45.9897C80.2073 45.9897 90.2332 56.9247 90.3869 56.0002C90.5406 55.0757 92.8545 52.1231 92.8545 52.1231L80.2073 45.9897Z" fill="#171766"/>
<path d="M84.6576 30.5282L93.6251 19.3313L90.6944 16.6608L84.6576 30.5282Z" fill="#171766"/>
<path d="M75.9049 89.9424L89.1414 106.767L93.6251 99.9349L75.9049 89.9424Z" fill="#FFB459"/>
<path d="M79.4643 88.899L91.7744 91.236V86.9717L79.4643 88.899Z" fill="#F6EF97"/>
<path d="M74.809 95.03L75.9896 108.345L82.6749 106.766L74.809 95.03Z" fill="#F6EF97"/>
<path d="M7.52879 77.353C7.52879 78.1365 6.96905 78.7722 6.27924 78.7722C5.58943 78.7722 5.0297 78.1365 5.0297 77.353C5.0297 76.5695 5.58943 75.9338 6.27924 75.9338C6.96905 75.936 7.52879 76.5695 7.52879 77.353Z" fill="#7BD6AA"/>
<path d="M87.472 83.0162C88.3057 83.0162 88.9817 82.2485 88.9817 81.3016C88.9817 80.3546 88.3057 79.5869 87.472 79.5869C86.6382 79.5869 85.9623 80.3546 85.9623 81.3016C85.9623 82.2485 86.6382 83.0162 87.472 83.0162Z" fill="#171766"/>
<path d="M87.472 61.5695C88.4951 61.5695 89.3246 60.6274 89.3246 59.4653C89.3246 58.3032 88.4951 57.3611 87.472 57.3611C86.4488 57.3611 85.6193 58.3032 85.6193 59.4653C85.6193 60.6274 86.4488 61.5695 87.472 61.5695Z" fill="#7BD6AA"/>
<path d="M84.1471 14.9866C84.9602 14.9866 85.6193 14.238 85.6193 13.3145C85.6193 12.391 84.9602 11.6423 84.1471 11.6423C83.334 11.6423 82.6748 12.391 82.6748 13.3145C82.6748 14.238 83.334 14.9866 84.1471 14.9866Z" fill="#FFB459"/>
<path d="M6.75935 19.0573C7.01899 17.8084 6.33809 16.5569 5.23851 16.262C4.13894 15.9671 3.03708 16.7405 2.77744 17.9894C2.51779 19.2382 3.1987 20.4897 4.29827 20.7846C5.39784 21.0795 6.49971 20.3061 6.75935 19.0573Z" fill="#FFB459"/>
<path d="M45.6773 34.4859C46.5492 34.4859 47.256 33.6831 47.256 32.6928C47.256 31.7026 46.5492 30.8998 45.6773 30.8998C44.8054 30.8998 44.0986 31.7026 44.0986 32.6928C44.0986 33.6831 44.8054 34.4859 45.6773 34.4859Z" fill="#FFB459"/>
<path d="M10.0553 68.8677C10.5278 67.598 10.0046 66.1337 8.88668 65.597C7.76877 65.0604 6.47951 65.6547 6.00703 66.9244C5.53455 68.1941 6.05777 69.6584 7.17568 70.195C8.29359 70.7316 9.58285 70.1374 10.0553 68.8677Z" fill="#171766"/>
<path d="M30.4975 101.309C31.2159 101.309 31.7983 100.648 31.7983 99.832C31.7983 99.0161 31.2159 98.3546 30.4975 98.3546C29.7791 98.3546 29.1967 99.0161 29.1967 99.832C29.1967 100.648 29.7791 101.309 30.4975 101.309Z" fill="#FFB459"/>
<path d="M11.7741 104.665C12.6274 104.665 13.3192 103.879 13.3192 102.91C13.3192 101.94 12.6274 101.155 11.7741 101.155C10.9207 101.155 10.2289 101.94 10.2289 102.91C10.2289 103.879 10.9207 104.665 11.7741 104.665Z" fill="#7BD6AA"/>
</svg>
