<svg width="48" height="75" viewBox="0 0 48 75" fill="none" xmlns="http://www.w3.org/2000/svg">
<path d="M5.6271 13.1764C5.13416 15.0165 4.78962 16.8928 4.59676 18.7876C3.41923 29.552 2.23653 40.3164 1.04866 51.0809C0.638077 54.8397 -0.725383 60.474 0.498633 64.1402C1.27333 66.5869 4.3721 68.4779 6.55674 69.6511C12.1423 72.6303 18.7891 73.7495 25.0409 74.3361C27.9719 74.6871 30.9204 74.8727 33.8724 74.8918C36.1113 74.8455 40.775 75.6636 42.1927 73.4176C42.489 72.8877 42.6686 72.3009 42.7194 71.6964C43.2695 67.8373 41.999 64.9969 41.3482 61.3385C40.6441 57.4699 40.4101 53.531 40.651 49.6067C41.0926 43.0153 43.2307 36.8638 44.6562 30.4653C45.9112 24.8387 48.305 19.1967 46.9803 13.323C46.1687 9.97619 44.4323 6.92275 41.968 4.50877C38.1952 0.711373 34.376 -0.407784 29.3017 0.124778C23.7162 0.711367 18.6342 0.302306 13.4515 3.02686C9.04351 5.32691 6.81238 8.93906 5.6271 13.1764Z" fill="#FAA263"/>
</svg>
