<svg width="234" height="50" viewBox="0 0 234 50" fill="none" xmlns="http://www.w3.org/2000/svg">
<path fill-rule="evenodd" clip-rule="evenodd" d="M0 22.5C0 15.5109 0 12.0163 1.14181 9.25975C2.66422 5.58433 5.58433 2.66422 9.25975 1.14181C12.0163 0 15.5109 0 22.5 0H211.121C218.11 0 221.604 0 224.361 1.14181C228.036 2.66422 230.956 5.58433 232.479 9.25975C233.621 12.0163 233.621 15.5109 233.621 22.5V27.5C233.621 34.4891 233.621 37.9837 232.479 40.7402C230.956 44.4157 228.036 47.3358 224.361 48.8582C221.604 50 218.11 50 211.121 50H22.5C15.5109 50 12.0163 50 9.25975 48.8582C5.58433 47.3358 2.66422 44.4157 1.14181 40.7402C0 37.9837 0 34.4891 0 27.5V22.5Z" fill="#EEEEEF"/>
</svg>
