<svg width="8" height="5" viewBox="0 0 8 5" fill="none" xmlns="http://www.w3.org/2000/svg">
<path d="M2.54038 0.616489L2.72503 1.82432C2.72959 1.85168 2.72861 1.87966 2.72216 1.90663C2.7157 1.9336 2.7039 1.95901 2.68744 1.98137C2.67099 2.00373 2.65021 2.02258 2.62633 2.03682C2.60245 2.05106 2.57596 2.0604 2.5484 2.0643H2.47615C2.08864 1.94821 1.67542 1.94821 1.28791 2.0643C1.10451 2.12322 0.939105 2.22749 0.807127 2.36737C0.675149 2.50725 0.580913 2.67818 0.533219 2.86419C0.436875 3.24814 0.613503 3.44811 1.03902 3.5121C1.46293 3.56431 1.89167 3.56431 2.31558 3.5121C2.36928 3.50662 2.42317 3.52059 2.46739 3.55143C2.51161 3.58227 2.54322 3.62794 2.55643 3.68009C2.64463 3.99151 2.85228 4.25585 3.1345 4.41599C3.27244 4.49377 3.42552 4.54116 3.58341 4.55496C3.74131 4.56876 3.90034 4.54865 4.04976 4.49598C4.20145 4.44475 4.34136 4.36388 4.46129 4.25812C4.58123 4.15236 4.67879 4.02384 4.74826 3.88006C4.87661 3.55746 4.93145 3.21048 4.90883 2.86419H5.36646C5.38754 3.06917 5.4789 3.26065 5.62515 3.40635C5.77139 3.55206 5.96359 3.64308 6.16933 3.66408C6.37887 3.73354 6.60383 3.7426 6.81831 3.69024C7.0328 3.63788 7.22808 3.52622 7.38165 3.36813C7.51061 3.19754 7.58036 2.98977 7.58036 2.7762C7.58036 2.56264 7.51061 2.35487 7.38165 2.18427C7.23691 2.02047 7.04788 1.90168 6.83715 1.8421C6.62643 1.78252 6.40294 1.78467 6.19341 1.84832H6.13721C6.08716 1.86351 6.03315 1.85864 5.98666 1.83474C5.94017 1.81083 5.90488 1.76979 5.88832 1.72035C5.69647 1.19067 5.6332 0.623271 5.70367 0.0645596C5.70757 0.0447626 5.71885 0.0271655 5.73522 0.0152986C5.7516 0.00343159 5.77188 -0.00183001 5.79198 0.000566612C5.80972 0.00254239 5.8261 0.010989 5.83796 0.0242817C5.84982 0.0375745 5.85632 0.0547694 5.85621 0.0725542C5.88598 0.585751 6.03729 1.08464 6.29778 1.52837L6.01678 1.41638C6.31426 1.32493 6.63201 1.3216 6.93135 1.40681C7.23069 1.49202 7.49871 1.6621 7.70279 1.89632C7.8955 2.14643 7.99997 2.45291 7.99997 2.76821C7.99997 3.08351 7.8955 3.38999 7.70279 3.64009C7.50323 3.89267 7.21753 4.06346 6.89993 4.12003C6.60862 4.17996 6.30809 4.17996 6.01678 4.12003C5.70099 4.0711 5.41268 3.91267 5.20264 3.67269C4.99261 3.4327 4.87435 3.12656 4.86869 2.8082C4.87872 2.75506 4.90708 2.70707 4.94886 2.67254C4.99064 2.63802 5.04322 2.61912 5.0975 2.61912C5.15178 2.61912 5.20436 2.63802 5.24614 2.67254C5.28792 2.70707 5.31628 2.75506 5.32632 2.8082C5.35055 3.22403 5.27915 3.63987 5.11757 4.02403C5.02516 4.22534 4.89181 4.40535 4.72598 4.55268C4.56014 4.7 4.36542 4.81144 4.15413 4.87993C3.94333 4.94952 3.72032 4.97479 3.49921 4.95414C3.27811 4.93348 3.0637 4.86735 2.86955 4.75994C2.67417 4.65292 2.50241 4.50783 2.36448 4.33331C2.22655 4.15878 2.12527 3.9584 2.06669 3.74408L2.30755 3.91205C1.84382 3.97183 1.37429 3.97183 0.910566 3.91205C0.630972 3.87949 0.372058 3.7491 0.179956 3.54411C0.0933753 3.42425 0.035969 3.28596 0.0122805 3.14019C-0.0114081 2.99442 -0.000727854 2.84516 0.0434708 2.70421C0.115682 2.45298 0.248568 2.22319 0.430514 2.03494C0.612461 1.8467 0.837923 1.70572 1.08719 1.62435C1.56351 1.48015 2.07208 1.48015 2.5484 1.62435L2.25938 1.84832L2.31558 0.624483C2.31554 0.610128 2.31848 0.59592 2.32421 0.582753C2.32996 0.569585 2.33837 0.557748 2.34892 0.54798C2.35948 0.538211 2.37196 0.530727 2.38557 0.525998C2.39917 0.521269 2.41361 0.519401 2.42798 0.520505C2.44169 0.519414 2.45549 0.521026 2.46857 0.525265C2.48166 0.529505 2.49377 0.536288 2.50422 0.545209C2.51466 0.55413 2.52323 0.565015 2.52944 0.577248C2.53565 0.589482 2.53936 0.602819 2.54038 0.616489Z" fill="#4F2014"/>
</svg>
