<svg width="9" height="15" viewBox="0 0 9 15" fill="none" xmlns="http://www.w3.org/2000/svg">
<g style="mix-blend-mode:screen">
<path d="M6.31783 15C5.77056 15 5.24569 14.7826 4.85871 14.3956C4.47173 14.0086 4.25433 13.4838 4.25433 12.9365C4.26011 9.37665 2.90181 5.94986 0.458713 3.36068C0.131023 2.95528 -0.0310906 2.4409 0.00493815 1.92087C0.0409669 1.40085 0.272472 0.913721 0.652936 0.557391C1.0334 0.201061 1.53463 0.00193402 2.0559 1.40143e-05C2.57717 -0.00190599 3.07984 0.193523 3.46292 0.547041C6.62508 3.89887 8.38336 8.33454 8.37646 12.9426C8.37486 13.488 8.15741 14.0105 7.77166 14.3961C7.3859 14.7816 6.86321 14.9987 6.31783 15Z" fill="#3D2D2B"/>
</g>
</svg>
