<svg width="18" height="7" viewBox="0 0 18 7" fill="none" xmlns="http://www.w3.org/2000/svg">
<path d="M18 2.34641V4.91569C18 5.13364 17.9134 5.34265 17.7593 5.49676C17.6052 5.65088 17.3962 5.73746 17.1782 5.73746C17.0702 5.73762 16.9632 5.71649 16.8634 5.67526C16.7635 5.63404 16.6728 5.57353 16.5963 5.49721C16.5199 5.42088 16.4593 5.33024 16.4179 5.23046C16.3765 5.13068 16.3552 5.02372 16.3552 4.91569V3.58157C16.3552 3.44602 16.3014 3.31601 16.2055 3.22016C16.1097 3.12431 15.9797 3.07046 15.8441 3.07046C15.7084 3.07046 15.5783 3.12427 15.4823 3.22009C15.3862 3.3159 15.3321 3.4459 15.3318 3.58157V4.0626C15.3318 4.19549 15.279 4.32295 15.185 4.41692C15.091 4.5109 14.9636 4.56368 14.8307 4.56368C14.6978 4.56368 14.5703 4.5109 14.4764 4.41692C14.3824 4.32295 14.3296 4.19549 14.3296 4.0626V3.89224C14.3296 3.6002 14.2136 3.32013 14.0071 3.11363C13.8006 2.90713 13.5205 2.79111 13.2285 2.79111H13.0268C12.7883 2.79144 12.5598 2.88632 12.3912 3.05492C12.2226 3.22353 12.1277 3.45211 12.1274 3.69055C12.1274 3.74352 12.1169 3.79597 12.0967 3.84491C12.0764 3.89385 12.0467 3.93832 12.0092 3.97577C11.9718 4.01323 11.9273 4.04294 11.8784 4.06321C11.8294 4.08348 11.777 4.09392 11.724 4.09392C11.671 4.09392 11.6186 4.08348 11.5696 4.06321C11.5207 4.04294 11.4762 4.01323 11.4388 3.97577C11.4013 3.93832 11.3716 3.89385 11.3513 3.84491C11.3311 3.79597 11.3206 3.74352 11.3206 3.69055V3.48385C11.3206 3.36458 11.2732 3.25019 11.1889 3.16585C11.1046 3.08151 10.9902 3.03414 10.8709 3.03414C10.7516 3.03414 10.6372 3.08151 10.5529 3.16585C10.4686 3.25019 10.4212 3.36458 10.4212 3.48385V5.90031C10.4212 6.09766 10.3428 6.28692 10.2032 6.42647C10.0637 6.56602 9.87443 6.64441 9.67708 6.64441C9.47973 6.64441 9.29047 6.56602 9.15093 6.42647C9.01138 6.28692 8.93298 6.09766 8.93298 5.90031V5.62471C8.93298 5.50544 8.8856 5.39106 8.80127 5.30672C8.71693 5.22238 8.60254 5.175 8.48327 5.175C8.36399 5.175 8.24961 5.12761 8.16527 5.04327C8.08093 4.95893 8.03355 4.84455 8.03355 4.72528V4.12022C8.03355 4.01428 8.01268 3.90937 7.97213 3.81149C7.93159 3.71362 7.87217 3.62469 7.79726 3.54978C7.72235 3.47486 7.63341 3.41544 7.53553 3.3749C7.43766 3.33436 7.33275 3.31349 7.22681 3.31349C7.01285 3.31349 6.80765 3.39848 6.65636 3.54978C6.50507 3.70107 6.42007 3.90626 6.42007 4.12022V5.20506C6.42007 5.36133 6.35808 5.5112 6.2477 5.62182C6.13732 5.73243 5.98757 5.79474 5.8313 5.79507C5.67482 5.79507 5.52475 5.73291 5.4141 5.62226C5.30345 5.51161 5.24129 5.36154 5.24129 5.20506V2.61573C5.24129 2.43067 5.16777 2.25321 5.03691 2.12236C4.90606 1.9915 4.72859 1.91798 4.54353 1.91798C4.35848 1.91798 4.181 1.9915 4.05015 2.12236C3.91929 2.25321 3.84578 2.43067 3.84578 2.61573V2.92641C3.84578 3.07027 3.78863 3.20823 3.68691 3.30996C3.58518 3.41168 3.44722 3.46882 3.30336 3.46882H2.9927C2.84884 3.46882 2.71087 3.41168 2.60915 3.30996C2.50743 3.20823 2.45028 3.07027 2.45028 2.92641C2.45044 2.89165 2.44372 2.8572 2.4305 2.82506C2.41727 2.79291 2.39781 2.76371 2.37323 2.73913C2.34865 2.71456 2.31945 2.69509 2.2873 2.68187C2.25516 2.66864 2.22072 2.66191 2.18596 2.66208C2.15131 2.66208 2.11699 2.66893 2.08499 2.68223C2.053 2.69553 2.02394 2.71502 1.9995 2.73958C1.97505 2.76414 1.9557 2.79329 1.94255 2.82535C1.92941 2.85741 1.92272 2.89176 1.92289 2.92641V4.0889C1.92289 4.21524 1.898 4.34036 1.84966 4.45708C1.80131 4.5738 1.73044 4.67986 1.64111 4.7692C1.55177 4.85854 1.44571 4.9294 1.32899 4.97775C1.21226 5.0261 1.08716 5.05098 0.960817 5.05098C0.834535 5.05098 0.709491 5.02608 0.592837 4.97772C0.476184 4.92935 0.370215 4.85848 0.280978 4.76912C0.191742 4.67977 0.120994 4.57371 0.0727817 4.45699C0.0245698 4.34027 -0.000163827 4.21518 8.16604e-07 4.0889V2.31635C0.000483839 2.0102 0.0615596 1.70717 0.179701 1.42473C0.297843 1.1423 0.470715 0.886029 0.688357 0.670716C0.905999 0.455402 1.16411 0.285299 1.4478 0.170203C1.73149 0.0551063 2.03515 -0.00271285 2.34129 9.77606e-05L15.69 0.0264148C16.3036 0.0290652 16.8911 0.274653 17.324 0.70945C17.7569 1.14425 18 1.73284 18 2.34641Z" fill="white"/>
</svg>
