<svg width="56" height="38" viewBox="0 0 56 38" fill="none" xmlns="http://www.w3.org/2000/svg">
<path d="M27.8755 37.5105H1.82863C1.49111 37.5084 1.16067 37.4135 0.873469 37.2362C0.586265 37.0589 0.353363 36.806 0.200243 36.5052C0.0471227 36.2045 -0.0203136 35.8673 0.00531141 35.5308C0.0309364 35.1942 0.14863 34.8712 0.345526 34.5971L23.9856 2.10628C24.4603 1.4538 25.0827 0.922856 25.8018 0.556799C26.5209 0.190742 27.3164 -5.74579e-05 28.1233 1.29793e-08H54.1714C54.5089 0.00209907 54.8393 0.097 55.1265 0.274304C55.4137 0.451608 55.6466 0.704493 55.7998 1.00529C55.9529 1.30608 56.0203 1.64319 55.9947 1.97974C55.9691 2.31629 55.8514 2.63931 55.6545 2.91345L32.0144 35.403C31.5397 36.0559 30.9172 36.5872 30.1979 36.9535C29.4785 37.3197 28.6827 37.5106 27.8755 37.5105Z" fill="#4F3263"/>
</svg>
