<svg width="7" height="6" viewBox="0 0 7 6" fill="none" xmlns="http://www.w3.org/2000/svg">
<path d="M6.37867 0.460195C6.16271 0.271258 5.90393 0.137421 5.62456 0.0701898C5.34519 0.00295903 5.05361 0.00434733 4.7749 0.0742416C4.50489 0.144383 4.25184 0.268026 4.03086 0.437787C3.80989 0.607547 3.62551 0.819941 3.48877 1.06228C3.35414 0.818137 3.17159 0.60348 2.95197 0.431085C2.73235 0.25869 2.48015 0.132085 2.2104 0.058806C1.93229 -0.0141715 1.64063 -0.0193051 1.36011 0.0438475C1.07959 0.107 0.818469 0.23658 0.598874 0.421603C0.312219 0.709956 0.117401 1.07621 0.0388378 1.47444C-0.0397251 1.87266 0.0014707 2.28513 0.15726 2.66013C0.4745 3.42081 1.04679 4.04828 1.77653 4.43552C2.28784 4.77088 2.85833 5.00662 3.45779 5.13023C4.07733 5.00923 4.66863 4.77359 5.20103 4.43552C5.92615 4.06063 6.50439 3.45462 6.84354 2.71416C7.00086 2.33517 7.04067 1.91793 6.95781 1.51621C6.87496 1.11448 6.67323 0.746676 6.37867 0.460195Z" fill="#FF5C5C"/>
</svg>
