<svg width="13" height="10" viewBox="0 0 13 10" fill="none" xmlns="http://www.w3.org/2000/svg">
<path opacity="0.7" d="M11.7978 0.982569C11.3992 0.64111 10.9248 0.399029 10.4138 0.276325C9.90271 0.153621 9.3697 0.153794 8.85875 0.276869C8.36424 0.406892 7.90108 0.634771 7.49685 0.946924C7.09262 1.25908 6.7556 1.64913 6.50589 2.09381C6.26409 1.6451 5.93285 1.25032 5.53246 0.933706C5.13207 0.617089 4.67097 0.385288 4.17746 0.252537C3.66938 0.120361 3.13677 0.112562 2.62501 0.229788C2.11325 0.347014 1.63755 0.585803 1.23843 0.925785C0.71917 1.44818 0.365225 2.11095 0.220502 2.83189C0.0757789 3.55282 0.146644 4.30022 0.424297 4.98141C1.0222 6.34506 2.06703 7.46608 3.38776 8.16101C4.32431 8.77064 5.36867 9.19731 6.46519 9.41827V9.41827C7.56503 9.20905 8.6149 8.79339 9.5589 8.19346C10.8884 7.51519 11.9454 6.40484 12.5549 5.04629C12.8426 4.36959 12.9241 3.62356 12.7895 2.90102C12.6549 2.17848 12.31 1.51134 11.7978 0.982569V0.982569Z" stroke="#FF5C5C" stroke-width="0.28" stroke-linecap="round" stroke-linejoin="round"/>
</svg>
