<svg width="22" height="28" viewBox="0 0 22 28" fill="none" xmlns="http://www.w3.org/2000/svg">
<path d="M21.9758 10.945C21.9753 8.8274 21.3585 6.75535 20.1999 4.97998C19.0413 3.20462 17.3907 1.80214 15.4482 0.942527C13.5057 0.0829124 11.3547 -0.196937 9.25579 0.13688C7.15688 0.470697 5.20019 1.40386 3.62286 2.82327C2.04553 4.24269 0.915262 6.08742 0.369035 8.13393C-0.177191 10.1804 -0.115931 12.3409 0.545393 14.3534C1.20672 16.3659 2.43971 18.1441 4.09496 19.4725C5.75021 20.801 7.75666 21.6226 9.87114 21.8378L13.4635 28L14.2444 21.4177C16.4872 20.7243 18.448 19.3332 19.8394 17.4485C21.2307 15.5638 21.9795 13.2846 21.9758 10.945Z" fill="white"/>
</svg>
