<svg width="13" height="14" viewBox="0 0 13 14" fill="none" xmlns="http://www.w3.org/2000/svg">
<g clip-path="url(#clip0_17_5329)">
<path d="M10.7188 5.83337C10.7188 9.91671 6.125 13.4167 6.125 13.4167C6.125 13.4167 1.53125 9.91671 1.53125 5.83337C1.53125 4.44099 2.01523 3.10563 2.87673 2.12106C3.73822 1.1365 4.90666 0.583374 6.125 0.583374C7.34334 0.583374 8.51178 1.1365 9.37327 2.12106C10.2348 3.10563 10.7188 4.44099 10.7188 5.83337Z" fill="#B0B1BC" stroke="#B0B1BC" stroke-width="1.5" stroke-linecap="round" stroke-linejoin="round"/>
<path d="M6.125 7.58338C6.97069 7.58338 7.65625 6.79987 7.65625 5.83337C7.65625 4.86688 6.97069 4.08337 6.125 4.08337C5.27931 4.08337 4.59375 4.86688 4.59375 5.83337C4.59375 6.79987 5.27931 7.58338 6.125 7.58338Z" fill="white" stroke="white" stroke-linecap="round" stroke-linejoin="round"/>
</g>
<defs>
<clipPath id="clip0_17_5329">
<rect width="12.25" height="14" fill="white"/>
</clipPath>
</defs>
</svg>
