<svg width="27" height="30" viewBox="0 0 27 30" fill="none" xmlns="http://www.w3.org/2000/svg">
<path d="M0.276911 29.3306C0.231481 29.3306 0.187619 29.314 0.15364 29.2838C0.11966 29.2537 0.0979221 29.2121 0.0925422 29.167C-0.40928 24.9693 1.13159 21.5383 4.67121 18.9719C7.61743 16.8351 11.9165 15.3663 17.1056 14.7241C24.2142 13.845 25.0823 8.52394 25.8466 3.8305C26.0689 2.46911 26.2776 1.18342 26.6378 0.128496C26.6454 0.104971 26.6577 0.0831985 26.6738 0.0644659C26.6899 0.0457332 26.7097 0.0304167 26.7318 0.0194095C26.7539 0.00840233 26.778 0.00192704 26.8027 0.000368974C26.8274 -0.0011891 26.8521 0.00219765 26.8755 0.0103326C26.8988 0.0184676 26.9203 0.0311887 26.9387 0.047743C26.957 0.0642972 26.9719 0.0843537 26.9824 0.106735C26.9929 0.129116 26.9988 0.153372 26.9998 0.178076C27.0009 0.202779 26.9969 0.227435 26.9882 0.250593C26.639 1.27621 26.4327 2.54726 26.2129 3.89277C25.4657 8.47632 24.5365 14.182 17.1508 15.0952C11.7089 15.7668 -0.810983 18.481 0.461276 29.1255C0.464174 29.1497 0.462274 29.1743 0.45568 29.1977C0.449085 29.2212 0.437926 29.2432 0.422845 29.2623C0.407764 29.2815 0.389053 29.2975 0.367784 29.3094C0.346514 29.3214 0.323104 29.329 0.298888 29.3318L0.276911 29.3306Z" fill="#2B1710"/>
</svg>
