<svg width="59" height="48" viewBox="0 0 59 48" fill="none" xmlns="http://www.w3.org/2000/svg">
<path d="M45.1165 0.437571C43.9289 11.9351 37.2173 21.0661 25.1692 27.5816C19.0997 30.8092 12.5705 33.093 5.80797 34.354C4.10099 34.6247 2.55846 35.5247 1.48623 36.8753C0.414003 38.226 -0.109634 39.9288 0.0191732 41.6461C0.14798 43.3634 0.919833 44.9697 2.18165 46.1466C3.44347 47.3235 5.1031 47.9851 6.8315 48C7.17648 47.9999 7.52106 47.9765 7.86286 47.9299C16.0633 46.4681 23.9864 43.7476 31.3495 39.8653C47.6636 31.178 57.1333 18.0302 58.8365 1.83098C49.6482 -1.18935 45.1165 0.437571 45.1165 0.437571Z" fill="#7298E2"/>
</svg>
