<svg width="28" height="28" viewBox="0 0 28 28" fill="none" xmlns="http://www.w3.org/2000/svg">
<g clip-path="url(#clip0_16_1489)">
<path d="M9.35935 5.25359V19.2326C8.4694 18.4228 7.28742 17.9287 5.99244 17.9287C3.23094 17.9287 0.984267 20.1754 0.984267 22.9369C0.984267 25.6984 3.23094 27.945 5.99244 27.945C8.75052 27.945 10.9946 25.7039 11.0004 22.9473H11.0006V12.9583L25.383 8.63631V15.8634C24.493 15.0537 23.3111 14.5594 22.0161 14.5594C19.2546 14.5594 17.0079 16.8061 17.0079 19.5676C17.0079 22.3291 19.2546 24.5758 22.0161 24.5758C24.7682 24.5758 27.0087 22.3443 27.0238 19.5956H27.0242V-0.0549393L9.35935 5.25359Z" fill="#B6B6B6"/>
</g>
<defs>
<clipPath id="clip0_16_1489">
<rect width="27.2494" height="27.2494" fill="white" transform="scale(1.02754)"/>
</clipPath>
</defs>
</svg>
