<svg width="28" height="28" viewBox="0 0 28 28" fill="none" xmlns="http://www.w3.org/2000/svg">
<g clip-path="url(#clip0_16_1522)">
<path d="M27.2724 23.8061L16.2931 12.8267L3.46562 -0.000752553H2.46315L2.25845 0.519379C1.7182 1.89225 1.48736 3.2964 1.59099 4.57986C1.70912 6.04286 2.2649 7.30947 3.19836 8.24293L13.2122 18.2567L14.533 16.9359L23.7907 27.2879C24.7117 28.2088 26.2968 28.2635 27.2724 27.2879C28.2324 26.3279 28.2324 24.766 27.2724 23.8061Z" fill="#B6B6B6"/>
<path d="M8.5712 15.9391L0.728433 23.7819C-0.231439 24.7417 -0.231439 26.3037 0.728433 27.2635C1.64029 28.1754 3.21775 28.2559 4.2101 27.2635L12.0529 19.4207L8.5712 15.9391Z" fill="#B6B6B6"/>
<path d="M26.8112 4.66086L22.3624 9.10968L21.2017 7.94911L25.6506 3.50023L24.49 2.33966L20.0412 6.78848L18.8806 5.6279L23.3295 1.17908L22.169 0.018563L16.3661 5.82144C15.6562 6.53134 15.2323 7.47393 15.1724 8.47569C15.1572 8.72949 15.0997 8.97914 15.0043 9.21659L18.7738 12.9861C19.0113 12.8906 19.261 12.8331 19.5147 12.818C20.5165 12.7582 21.4591 12.3342 22.169 11.6243L27.9719 5.82149L26.8112 4.66086Z" fill="#B6B6B6"/>
</g>
<defs>
<clipPath id="clip0_16_1522">
<rect width="27.2509" height="27.2509" fill="white" transform="scale(1.02749)"/>
</clipPath>
</defs>
</svg>
