<svg width="1" height="4" viewBox="0 0 1 4" fill="none" xmlns="http://www.w3.org/2000/svg">
<path d="M0.325786 4C0.239381 4 0.156514 3.96581 0.0954169 3.90494C0.0343195 3.84406 0 3.7615 0 3.67542V0.324581C0 0.238496 0.0343195 0.155935 0.0954169 0.095064C0.156514 0.0341926 0.239381 0 0.325786 0C0.412191 0 0.495058 0.0341926 0.556155 0.095064C0.617253 0.155935 0.651572 0.238496 0.651572 0.324581V3.65634C0.654187 3.70054 0.647704 3.74481 0.632506 3.78642C0.617309 3.82803 0.593719 3.8661 0.563203 3.89829C0.532686 3.93049 0.495895 3.95611 0.455065 3.9736C0.414235 3.9911 0.370231 4.00008 0.325786 4Z" fill="#45596D"/>
</svg>
