<svg width="6" height="8" viewBox="0 0 6 8" fill="none" xmlns="http://www.w3.org/2000/svg">
<path d="M1.16915 0.11313C1.4151 0.00256133 1.68977 -0.0279436 1.95411 0.0259617C2.21846 0.079867 2.45901 0.215431 2.64158 0.413381C2.72544 0.516832 2.78402 0.63829 2.81268 0.768166C2.84135 0.898041 2.83931 1.03278 2.80674 1.16174C2.77418 1.2907 2.71197 1.41035 2.62502 1.51125C2.53808 1.61214 2.42878 1.69151 2.30576 1.7431C3.05489 1.70021 3.97623 1.7431 4.34649 2.40367C4.45885 2.72517 4.48618 3.07009 4.42585 3.40517C4.36552 3.74025 4.21957 4.0542 4.00206 4.31675C4.2643 4.16637 4.57144 4.11317 4.86923 4.16654C5.16702 4.21991 5.43629 4.37642 5.62948 4.60843C5.81885 4.84738 5.94099 5.13224 5.98336 5.43377C6.02573 5.73529 5.9868 6.04261 5.87058 6.32419C5.64761 6.88758 5.25701 7.36953 4.75119 7.70538C4.62164 7.81943 4.45852 7.88865 4.28622 7.90269C4.09114 7.88207 3.90745 7.80107 3.76097 7.67107C2.72169 6.92608 1.82122 6.00572 1.10026 4.95159C0.230585 3.61329 -0.897412 0.953854 1.16915 0.11313Z" fill="#A05E47"/>
</svg>
