<svg width="172" height="172" viewBox="0 0 172 172" fill="none" xmlns="http://www.w3.org/2000/svg">
<g style="mix-blend-mode:multiply" opacity="0.5">
<path d="M144.648 170.829L6.21941 151.582C4.47756 151.335 2.90469 150.411 1.84463 149.012C0.784572 147.613 0.323544 145.852 0.562309 144.116L19.8817 6.19923C20.1277 4.46291 21.0547 2.89462 22.4594 1.83811C23.8641 0.781596 25.6319 0.323076 27.3754 0.563057L165.781 19.8032C167.522 20.0503 169.095 20.9743 170.155 22.3733C171.215 23.7723 171.676 25.5326 171.438 27.2692L152.142 165.193C151.892 166.928 150.964 168.494 149.56 169.549C148.156 170.605 146.391 171.065 144.648 170.829V170.829Z" stroke="#808285" stroke-miterlimit="10"/>
<path d="M159.496 28.6174L29.8396 10.35L14.272 120.028L143.928 138.295L159.496 28.6174Z" stroke="#808285" stroke-width="0.99985" stroke-miterlimit="10"/>
<path d="M27.7241 140.88V140.772L28.1349 140.826V140.904C28.1194 140.98 28.121 141.06 28.1398 141.136C28.1585 141.212 28.1939 141.283 28.2433 141.344C28.2953 141.406 28.359 141.456 28.4309 141.494C28.5027 141.531 28.5812 141.553 28.6618 141.56C28.7479 141.578 28.8371 141.577 28.9228 141.557C29.0086 141.537 29.0888 141.499 29.1578 141.444C29.2917 141.325 29.3748 141.159 29.3903 140.981V140.834C29.4264 140.649 29.3874 140.458 29.2818 140.301C29.2278 140.229 29.1591 140.169 29.0804 140.126C29.0016 140.082 28.9144 140.055 28.8246 140.047H28.6231L28.6773 139.676H28.871C28.9517 139.693 29.0353 139.693 29.1157 139.674C29.1961 139.655 29.2714 139.619 29.336 139.568C29.4659 139.455 29.5489 139.298 29.5685 139.128V139.012C29.596 138.849 29.563 138.682 29.4755 138.541C29.4276 138.478 29.367 138.426 29.2976 138.387C29.2282 138.348 29.1516 138.325 29.0725 138.317C28.996 138.301 28.9169 138.302 28.8406 138.319C28.7644 138.337 28.6928 138.37 28.6308 138.418C28.5102 138.516 28.4325 138.657 28.4138 138.811V138.904L28.0186 138.85V138.75C28.0283 138.623 28.0652 138.501 28.1267 138.39C28.1883 138.28 28.273 138.184 28.3751 138.109C28.5996 137.971 28.8654 137.917 29.126 137.955C29.3866 137.993 29.6255 138.121 29.801 138.317C29.883 138.426 29.9401 138.552 29.9682 138.685C29.9963 138.819 29.9948 138.957 29.9637 139.089V139.205C29.9468 139.379 29.8764 139.543 29.7622 139.676C29.656 139.797 29.5197 139.887 29.367 139.939C29.5317 140.022 29.6609 140.162 29.7312 140.332C29.8042 140.519 29.8256 140.721 29.7932 140.919V141.05C29.7809 141.193 29.7386 141.331 29.6692 141.456C29.5998 141.581 29.5047 141.69 29.3903 141.776C29.2807 141.858 29.1554 141.917 29.0221 141.949C28.8888 141.981 28.7503 141.985 28.6153 141.961C28.3447 141.938 28.0928 141.814 27.9101 141.614C27.8282 141.512 27.7692 141.394 27.7371 141.267C27.705 141.141 27.7006 141.009 27.7241 140.88Z" fill="#808285"/>
<path d="M32.2576 141.629L32.1568 142.401L31.7151 142.317L31.8159 141.544L30.3667 141.344L30.421 140.981L31.9708 138.402L32.3816 138.464L30.8317 141.035L31.8701 141.182L32.0173 140.132L32.4281 140.186L32.2808 141.236L32.6993 141.297L32.6528 141.66L32.2576 141.629Z" fill="#808285"/>
<path d="M33.3192 141.691V141.614L33.7145 141.668V141.714C33.6999 141.789 33.7006 141.866 33.7166 141.94C33.7326 142.014 33.7635 142.085 33.8074 142.147C33.9132 142.264 34.0604 142.336 34.2182 142.348C34.6134 142.409 34.8459 142.193 34.9156 141.707L34.9621 141.344C35.0068 141.152 34.985 140.95 34.9001 140.772C34.8545 140.702 34.7928 140.644 34.72 140.602C34.6472 140.561 34.5655 140.537 34.4817 140.533C34.3577 140.506 34.2281 140.525 34.1174 140.587C34.0076 140.641 33.9199 140.731 33.8694 140.842L33.5052 140.796L33.7997 138.68L35.6518 138.935L35.6053 139.313L34.1252 139.105L33.9547 140.34C34.037 140.269 34.1353 140.219 34.2414 140.193C34.3565 140.17 34.4751 140.17 34.5902 140.193C34.722 140.201 34.8502 140.239 34.9646 140.305C35.079 140.37 35.1764 140.462 35.2488 140.572C35.3912 140.822 35.4353 141.117 35.3728 141.398L35.3186 141.823C35.3113 141.969 35.2747 142.113 35.2108 142.246C35.1469 142.379 35.0571 142.497 34.9466 142.595C34.8379 142.678 34.7124 142.737 34.5786 142.768C34.4449 142.798 34.3061 142.8 34.1717 142.772C33.9082 142.753 33.6631 142.631 33.4897 142.432C33.4044 142.331 33.3444 142.211 33.3147 142.082C33.2851 141.953 33.2866 141.819 33.3192 141.691Z" fill="#808285"/>
<path d="M56.7691 142.857L56.8311 142.402L57.6061 141.985L58.0168 142.039L57.4743 145.899L57.0714 145.845L57.5441 142.456L56.7691 142.857Z" fill="#808285"/>
<path d="M58.4042 144.98V144.795C58.4265 144.659 58.4655 144.527 58.5205 144.401C58.5868 144.264 58.6646 144.132 58.7529 144.007L59.9076 142.317L60.3338 142.371L59.2644 143.953C59.3228 143.917 59.3894 143.896 59.4581 143.892C59.5375 143.876 59.619 143.876 59.6984 143.892C59.8287 143.905 59.9548 143.945 60.0683 144.011C60.1818 144.076 60.2802 144.164 60.3571 144.27C60.5049 144.499 60.5629 144.774 60.5198 145.042V145.235C60.4976 145.441 60.4229 145.638 60.3028 145.806C60.192 145.95 60.0449 146.062 59.8766 146.131C59.6955 146.195 59.5011 146.214 59.3109 146.185C59.1694 146.171 59.0322 146.129 58.9081 146.06C58.784 145.991 58.6757 145.896 58.5902 145.783C58.5076 145.668 58.4487 145.538 58.4168 145.4C58.3849 145.262 58.3806 145.12 58.4042 144.98ZM60.1014 145.235V145.042C60.1355 144.856 60.0996 144.663 60.0006 144.502C59.949 144.431 59.883 144.371 59.8069 144.327C59.7308 144.284 59.6463 144.256 59.5589 144.247C59.4721 144.233 59.3834 144.236 59.2981 144.257C59.2127 144.279 59.1327 144.317 59.0629 144.37C58.9265 144.498 58.8411 144.671 58.8227 144.857V145.05C58.7886 145.236 58.8244 145.428 58.9234 145.59C58.9728 145.664 59.038 145.726 59.1145 145.771C59.1909 145.817 59.2765 145.845 59.3651 145.853C59.4524 145.868 59.542 145.864 59.6276 145.841C59.7132 145.819 59.7929 145.778 59.8611 145.721C59.9976 145.594 60.0829 145.421 60.1014 145.235Z" fill="#808285"/>
<path d="M50.3138 147.181C51.2073 146.636 51.879 145.794 52.2105 144.804C52.542 143.813 52.512 142.738 52.1258 141.768C51.7396 140.798 51.022 139.994 50.0995 139.499C49.177 139.004 48.1088 138.85 47.0831 139.063C46.0574 139.276 45.1401 139.843 44.4929 140.664C43.8457 141.485 43.51 142.507 43.5451 143.55C43.5802 144.593 43.9838 145.591 44.6848 146.366C45.3858 147.142 46.3391 147.647 47.3768 147.791C47.7219 147.829 48.0702 147.829 48.4152 147.791L50.5928 149.335L50.3138 147.181Z" stroke="#808285" stroke-linecap="round" stroke-linejoin="round"/>
<path d="M144.539 139.966L14.8289 121.942L14.6287 123.372L144.339 141.396L144.539 139.966Z" fill="#808285"/>
<path d="M71.2183 133.095L14.3761 125.196L14.176 126.626L71.0182 134.525L71.2183 133.095Z" fill="#808285"/>
<path d="M94.6528 139.663L13.9178 128.444L13.7176 129.874L94.4526 141.093L94.6528 139.663Z" fill="#808285"/>
<path d="M142.827 152.114L136.449 151.226L134.961 161.85L138.456 160.09L141.339 162.738L142.827 152.114Z" stroke="#808285" stroke-miterlimit="10"/>
<path d="M23.9656 136.387C23.6341 136.013 23.2179 135.724 22.7516 135.542C22.2853 135.361 21.7822 135.293 21.2843 135.345C20.8026 135.401 20.3374 135.554 19.9165 135.794C19.4957 136.034 19.128 136.357 18.8355 136.742C18.664 136.289 18.4027 135.875 18.0672 135.525C17.7317 135.175 17.3288 134.896 16.8826 134.704C16.4202 134.511 15.9178 134.433 15.4184 134.476C14.919 134.519 14.4376 134.682 14.0153 134.951C13.4519 135.376 13.027 135.957 12.794 136.622C12.561 137.287 12.5303 138.006 12.7057 138.688C13.0905 140.053 13.9293 141.248 15.0847 142.077C15.8844 142.775 16.8101 143.315 17.8125 143.668V143.668C18.8866 143.615 19.9399 143.353 20.9123 142.896C22.254 142.427 23.3979 141.521 24.1593 140.325C24.5171 139.721 24.6894 139.027 24.655 138.327C24.6206 137.627 24.3809 136.953 23.9656 136.387V136.387Z" stroke="#808285" stroke-linecap="round" stroke-linejoin="round"/>
</g>
</svg>
