<svg width="50" height="52" viewBox="0 0 50 52" fill="none" xmlns="http://www.w3.org/2000/svg">
<path d="M26.6569 35.7174L34.5634 5.64084C34.8158 4.68101 35.2554 3.7801 35.8573 2.98956C36.4591 2.19902 37.2114 1.53433 38.0711 1.03343C38.9308 0.532539 39.8811 0.205253 40.8677 0.0702577C41.8544 -0.0647373 42.858 -0.00480017 43.8214 0.246657C44.7848 0.498114 45.6891 0.936162 46.4825 1.53579C47.276 2.13542 47.9432 2.88489 48.4459 3.7414C48.9487 4.59791 49.2772 5.54468 49.4127 6.52768C49.5482 7.51067 49.488 8.51063 49.2356 9.47046L39.5323 46.3579C39.0933 48.0268 38.0944 49.4958 36.7016 50.521C35.3088 51.5461 33.6059 52.0657 31.8758 51.9933C31.2977 51.9933 17.3676 51.2539 0 39.8195L8.35177 27.2175C13.9694 30.9878 20.1463 33.856 26.6569 35.7174Z" fill="#FAA263"/>
</svg>
