<svg width="20" height="20" viewBox="0 0 20 20" fill="none" xmlns="http://www.w3.org/2000/svg">
<path d="M13.7364 12.4236C15.6417 12.3899 16.061 9.7688 14.2631 9.14457L12.1871 11.396C12.4462 12.0059 13.0569 12.4236 13.7364 12.4236Z" fill="#39C3F2"/>
<path d="M19.8848 9.02203C19.618 7.4208 18.8677 6.18491 17.703 5.41321C17.1604 6.00208 15.6656 7.62261 15.1015 8.2347C16.0091 8.72663 16.5902 9.67924 16.5902 10.742C16.5965 13.2053 13.6241 14.5134 11.8126 12.85C11.6399 13.2322 11.3977 13.5838 11.0925 13.889C9.88301 15.2003 6.13646 15.5173 4.53718 15.4707C4.49045 13.8674 4.80874 10.1227 6.11891 8.91536C6.78742 8.2472 7.65954 7.90453 8.53752 7.88773C9.49833 6.99877 10.8307 5.76581 11.7876 4.88025C10.4585 5.2305 8.51161 6.15779 7.91781 5.28231C7.63992 4.62647 8.90328 3.10249 7.90648 1.82354C7.08957 0.797821 5.26129 0.990491 4.22811 1.71921C-0.802354 5.1924 -1.475 12.8233 2.91654 17.0684C8.29257 22.4858 17.6706 20.0315 19.7309 12.6902C19.8427 12.2282 20.1629 10.7135 19.8848 9.02203Z" fill="#39C3F2"/>
<path d="M11.0925 8.91522C11.4191 9.24187 11.6735 9.62128 11.8478 10.0343C12.5131 9.31365 16.0263 5.50208 16.6096 4.86995L19.7289 1.48698C20.0696 1.11734 20.0786 0.570315 19.7496 0.240926C19.4198 -0.0884625 18.872 -0.0790849 18.5023 0.262807L13.9405 4.48469C12.95 5.40108 10.9799 7.22502 9.96911 8.16032C10.3778 8.33146 10.7603 8.5831 11.0925 8.91522Z" fill="#39C3F2"/>
<path d="M9.63782 9.29628C8.74784 8.86319 7.66934 9.02406 6.94762 9.74328C6.20217 10.4024 5.77893 12.9107 5.73595 14.2711C7.10031 14.2268 9.60257 13.806 10.2634 13.0594C10.7065 12.6163 10.9503 12.0275 10.9503 11.4016C10.9502 10.7747 10.7061 10.1859 10.2634 9.74367V9.74328C10.0758 9.55534 9.86405 9.40647 9.63782 9.29628Z" fill="#39C3F2"/>
</svg>
