<svg width="24" height="24" viewBox="0 0 24 24" fill="none" xmlns="http://www.w3.org/2000/svg">
<path d="M7.34056 5.92857C6.14758 5.92857 5.18051 6.88795 5.18051 8.07143C5.18051 9.25491 6.14758 10.2143 7.34056 10.2143C8.53353 10.2143 9.5006 9.25491 9.5006 8.07143C9.5006 6.88795 8.53308 5.92857 7.34056 5.92857ZM20.6203 2H3.33997C1.78969 2 0.5 3.27902 0.5 4.85714V19.1429C0.5 20.721 1.78928 22 3.33956 22H20.6199C22.2107 22 23.5 20.721 23.5 19.1429V4.85714C23.5004 3.27902 22.2494 2 20.6203 2ZM21.3404 18.8438L15.1842 10.5446C15.0717 10.3393 14.8152 10.2143 14.5407 10.2143C14.2656 10.2143 14.0088 10.3379 13.8562 10.5437L9.05914 16.9767L7.39006 14.9187C7.23521 14.7277 6.98802 14.6147 6.72539 14.6147C6.4625 14.6147 6.21553 14.7276 6.06028 14.9187L2.66181 19.1067C2.66181 19.1053 2.66181 19.108 2.66181 19.1067L2.66001 4.85714C2.66001 4.4633 2.98302 4.14286 3.38002 4.14286H20.6604C21.0574 4.14286 21.3804 4.4633 21.3804 4.85714V18.8438H21.3404Z" fill="white"/>
</svg>
