<svg width="27" height="31" viewBox="0 0 27 31" fill="none" xmlns="http://www.w3.org/2000/svg">
<path d="M0.0714727 22.2468C5.77814 26.0842 12.0526 29.0079 18.6671 30.9115C18.7308 30.9351 18.8009 30.9351 18.8647 30.9115C18.9214 30.8743 18.9633 30.8186 18.9833 30.754L26.9924 0.317116C27.0006 0.284516 27.0022 0.250608 26.997 0.217391C26.9919 0.184174 26.9801 0.152323 26.9625 0.1237C26.9448 0.0950761 26.9215 0.0702586 26.8941 0.0507179C26.8666 0.0311771 26.8355 0.0173048 26.8026 0.00991196C26.7704 0.000482687 26.7366 -0.00225949 26.7033 0.00185895C26.67 0.00597739 26.6379 0.016869 26.609 0.0338546C26.5801 0.0508402 26.555 0.0735525 26.5353 0.100598C26.5155 0.127644 26.5016 0.158444 26.4943 0.191081L18.588 30.3759C12.1228 28.4795 5.98937 25.6022 0.403541 21.8451C0.345649 21.8093 0.276027 21.7976 0.209552 21.8123C0.143076 21.827 0.085011 21.867 0.0477548 21.9238C0.0130062 21.9719 -0.00366212 22.0306 0.000674841 22.0896C0.0050118 22.1487 0.0300762 22.2043 0.0714727 22.2468Z" fill="#B56B39"/>
</svg>
