<svg width="1" height="3" viewBox="0 0 1 3" fill="none" xmlns="http://www.w3.org/2000/svg">
<path d="M0.355891 3C0.262869 3 0.173656 2.96319 0.10788 2.89765C0.0421039 2.83212 0.00515621 2.74324 0.00515621 2.65056V0.420291C-0.00369646 0.368672 -0.00112526 0.31575 0.0126803 0.265222C0.0264858 0.214694 0.0511953 0.167775 0.0850876 0.12775C0.11898 0.0877237 0.161238 0.055566 0.208904 0.0334978C0.25657 0.0114296 0.308493 0 0.361054 0C0.413615 0 0.465538 0.0114296 0.513204 0.0334978C0.560869 0.055566 0.603128 0.0877237 0.63702 0.12775C0.670912 0.167775 0.695622 0.214694 0.709427 0.265222C0.723233 0.31575 0.725804 0.368672 0.716951 0.420291V2.65056C0.714266 2.74417 0.675038 2.83306 0.607616 2.89831C0.540194 2.96356 0.449888 3.00003 0.355891 3Z" fill="#45596D"/>
</svg>
