<svg width="11" height="8" viewBox="0 0 11 8" fill="none" xmlns="http://www.w3.org/2000/svg">
<path d="M10.0195 0.712436C9.67654 0.419017 9.26837 0.211155 8.82876 0.10604C8.38916 0.000924694 7.93075 0.00157605 7.49145 0.107936C7.06723 0.221586 6.66994 0.418187 6.32272 0.686288C5.9755 0.954389 5.68528 1.28863 5.46897 1.66956C5.26029 1.28574 4.97574 0.948008 4.63249 0.676731C4.28924 0.405455 3.8944 0.20625 3.47177 0.0911405C3.0353 -0.0225185 2.5778 -0.0299838 2.13783 0.0693746C1.69785 0.168733 1.2883 0.371997 0.943674 0.66205C0.493225 1.11342 0.186557 1.68725 0.0621292 2.31157C-0.0622988 2.93589 0.00105295 3.58292 0.244235 4.17151C0.750464 5.34344 1.64208 6.30874 2.77233 6.90854C3.57849 7.43327 4.47589 7.80343 5.41841 8C6.3793 7.82157 7.29732 7.46257 8.12347 6.94213C9.24785 6.34658 10.1383 5.39136 10.6516 4.23027C10.904 3.64675 10.9786 3.00218 10.8662 2.37671C10.7539 1.75125 10.4594 1.1725 10.0195 0.712436Z" fill="#FF5C5C"/>
</svg>
