<svg width="19" height="21" viewBox="0 0 19 21" fill="none" xmlns="http://www.w3.org/2000/svg">
<path opacity="0.4" fill-rule="evenodd" clip-rule="evenodd" d="M6.24406 3.23611H12.6938V1.73439H6.24406V3.23611ZM4.77709 1.79576V1.80324C4.27361 1.84903 3.77553 1.94902 3.29097 2.09947V2.09386C3.27657 2.09992 3.263 2.10458 3.24999 2.10906L3.24999 2.10906L3.24999 2.10906C3.2329 2.11493 3.21675 2.12048 3.2009 2.12844C3.16217 2.13778 3.12435 2.1518 3.08832 2.16956C2.98204 2.20413 2.87576 2.24525 2.77578 2.2873C2.74921 2.29758 2.72264 2.3095 2.69607 2.32141C2.6695 2.33332 2.64293 2.34524 2.61636 2.35552C2.57989 2.37281 2.54183 2.39173 2.50378 2.41065L2.50377 2.41066C2.46572 2.42958 2.42767 2.4485 2.3912 2.46579L2.21106 2.56951C2.17775 2.5865 2.14692 2.60642 2.11547 2.62675L2.11547 2.62675C2.09673 2.63886 2.07778 2.65111 2.05795 2.66296C1.78684 2.83771 1.53555 3.04236 1.30858 3.27505L1.29507 3.28907C1.26526 3.32382 1.23558 3.35754 1.20629 3.3908C1.15683 3.44697 1.10852 3.50185 1.0627 3.5582L1.04919 3.57128C0.312436 4.588 -0.0568418 5.84114 0.00710613 7.1111V7.51386H1.4617V7.10736C1.4617 5.33745 2.02552 4.2357 3.28016 3.67127C3.75932 3.46849 4.2655 3.34327 4.78069 3.29748H4.7942V1.8023L4.77709 1.79576ZM17.8477 3.55301L17.854 3.56609C18.5899 4.58374 18.9573 5.83781 18.8925 7.10778V7.51428H17.4388V7.0975C17.4694 6.34804 17.319 5.60232 17.0002 4.92856C16.6939 4.35199 16.204 3.90437 15.6122 3.66141C15.1412 3.45862 14.6422 3.33247 14.1333 3.28761V1.79992C14.6368 1.84664 15.1349 1.9457 15.6203 2.09615V2.08867C15.6476 2.10105 15.6684 2.10841 15.7042 2.12104L15.7104 2.12325C15.727 2.12911 15.7425 2.13497 15.7577 2.14077C15.779 2.14883 15.7999 2.15675 15.823 2.16436C15.9226 2.19704 16.0157 2.23555 16.1115 2.27517L16.1283 2.28211C16.1725 2.29764 16.2142 2.3169 16.2517 2.33426C16.2639 2.33988 16.2756 2.3453 16.2868 2.35033C16.3661 2.3849 16.4472 2.42602 16.512 2.4606C16.5553 2.48304 16.5974 2.50705 16.6369 2.52958C16.6583 2.54176 16.6789 2.5535 16.6985 2.56432C16.7307 2.58214 16.7588 2.60121 16.7858 2.61955C16.8055 2.63294 16.8246 2.64594 16.8444 2.65777C17.1164 2.83345 17.3704 3.03904 17.6 3.26986L17.6081 3.28387C17.6928 3.36891 17.773 3.45862 17.8477 3.55301Z" fill="#9E1E63"/>
<path d="M14.1748 0.752767V4.06184C14.1748 4.47878 13.8365 4.81648 13.4188 4.81648C13.0011 4.81648 12.6628 4.47878 12.6628 4.06184V0.760313C12.6591 0.343377 12.9955 0.00284769 13.4132 1.78044e-05C13.8308 -0.00281208 14.172 0.332057 14.1748 0.748993V0.752767Z" fill="#9E1E63"/>
<path d="M6.23688 0.76457V4.06547C6.23688 4.48421 5.89816 4.82373 5.48042 4.82373C5.06267 4.82373 4.72489 4.48421 4.72489 4.06547V0.76457C4.72489 0.345828 5.06267 0.0072506 5.48042 0.0072506C5.89816 0.0072506 6.23688 0.345828 6.23688 0.76457Z" fill="#9E1E63"/>
<path fill-rule="evenodd" clip-rule="evenodd" d="M0 15.6557V7.51388H18.8998V15.6557C18.8998 19.2062 16.917 21 12.9874 21H5.90337C1.98281 21 0 19.2062 0 15.6557ZM4.2629 12.041C4.2629 12.5336 4.65045 12.9333 5.12813 12.9333C5.61482 12.9333 6.00237 12.5243 5.99336 12.0317C5.99336 11.5391 5.60581 11.1394 5.13714 11.1394H5.12813C4.65045 11.1394 4.2629 11.5484 4.2629 12.041ZM8.58039 12.0412C8.58039 12.5338 8.97695 12.9335 9.45463 12.9335C9.9323 12.9335 10.3199 12.5338 10.3199 12.0319C10.3199 11.5486 9.9323 11.149 9.45463 11.1397H9.44561C8.96794 11.149 8.58039 11.5486 8.58039 12.0412ZM13.7717 12.9334C13.294 12.9334 12.9064 12.5338 12.9064 12.0412C12.9064 11.5486 13.285 11.1489 13.7717 11.1489C14.2493 11.1489 14.6369 11.5486 14.6369 12.0412C14.6369 12.5338 14.2493 12.9334 13.7717 12.9334ZM13.7715 16.7438C13.2938 16.7438 12.9062 16.3442 12.8972 15.8516C12.8972 15.359 13.2848 14.9593 13.7624 14.9593H13.7715C14.2491 14.9593 14.6367 15.359 14.6367 15.8516C14.6367 16.3442 14.2491 16.7438 13.7715 16.7438ZM9.45463 16.7439C8.97695 16.7439 8.58039 16.3443 8.58039 15.8517C8.58039 15.359 8.96794 14.9594 9.44561 14.9501H9.45463C9.9323 14.9594 10.3108 15.359 10.3199 15.8424C10.3199 16.3443 9.9323 16.7439 9.45463 16.7439ZM5.12837 16.7439C4.65069 16.7439 4.26314 16.3443 4.26314 15.8517C4.25413 15.359 4.64168 14.9501 5.12837 14.9501C5.60604 14.9501 5.99359 15.3498 5.99359 15.8424C5.99359 16.335 5.60604 16.7439 5.12837 16.7439Z" fill="#9E1E63"/>
</svg>
