<svg width="23" height="23" viewBox="0 0 23 23" fill="none" xmlns="http://www.w3.org/2000/svg">
<path fill-rule="evenodd" clip-rule="evenodd" d="M8.16824 2.81438C10.26 1.59778 12.8312 1.61905 14.9033 2.87009C16.9551 4.1466 18.2021 6.42481 18.1905 8.87552C18.1428 11.3102 16.8056 13.5987 15.1341 15.3679C14.1694 16.3936 13.0902 17.3006 11.9186 18.0703C11.7979 18.1402 11.6657 18.1869 11.5286 18.2083C11.3966 18.2027 11.268 18.1636 11.1545 18.0947C9.36576 16.9381 7.79649 15.4618 6.52219 13.7367C5.45589 12.2967 4.85009 10.557 4.78706 8.75379C4.78568 6.29838 6.07646 4.03098 8.16824 2.81438ZM9.37699 9.76992C9.72886 10.6382 10.5594 11.2046 11.4808 11.2046C12.0845 11.2089 12.6647 10.9669 13.0923 10.5325C13.5199 10.098 13.7593 9.5072 13.7572 8.89171C13.7604 7.95221 13.2078 7.10339 12.3575 6.74159C11.5071 6.37978 10.5267 6.57635 9.87403 7.23951C9.22135 7.90267 9.02513 8.90162 9.37699 9.76992Z" fill="#5669FF"/>
<path opacity="0.4" d="M11.4889 21.0832C14.1327 21.0832 16.2759 20.6542 16.2759 20.1249C16.2759 19.5956 14.1327 19.1666 11.4889 19.1666C8.84513 19.1666 6.70191 19.5956 6.70191 20.1249C6.70191 20.6542 8.84513 21.0832 11.4889 21.0832Z" fill="#5669FF"/>
</svg>
