<svg width="36" height="52" viewBox="0 0 36 52" fill="none" xmlns="http://www.w3.org/2000/svg">
<path d="M4.80483 51.9951C4.75985 51.9959 4.71622 51.9797 4.68256 51.9499C0.244261 48.1388 -0.26315 44.4916 0.0914252 42.0976C0.615951 38.5726 3.28505 35.9231 5.6986 34.8618C6.5887 34.4693 7.44824 34.1502 8.20752 33.8678C11.6139 32.6035 13.6692 31.8394 12.6703 26.9218C12.0932 24.0791 13.5433 21.5176 16.9826 19.3094C19.4488 17.72 22.8722 16.3396 27.4475 15.068C34.1661 13.2022 35.1687 9.16248 34.9718 0.219861C34.9669 0.193394 34.9678 0.166171 34.9744 0.140079C34.981 0.113986 34.9932 0.0896409 35.0102 0.0687363C35.0272 0.0478316 35.0485 0.0308659 35.0726 0.0190056C35.0968 0.00714524 35.1233 0.000678562 35.1502 5.0562e-05C35.1771 -0.000577439 35.2038 0.00465111 35.2285 0.0153713C35.2532 0.0260914 35.2753 0.0420487 35.2932 0.0621394C35.3111 0.08223 35.3245 0.105973 35.3323 0.131728C35.3401 0.157483 35.3423 0.184634 35.3386 0.211302C35.5428 9.35811 34.5072 13.4932 27.5477 15.4311C16.9753 18.3655 12.0932 22.2108 13.0359 26.8533C14.0984 32.0827 11.8071 32.9337 8.33835 34.2211C7.58396 34.5011 6.72931 34.819 5.84899 35.2066C3.52591 36.2275 0.958302 38.7719 0.460674 42.1575C0.119549 44.4561 0.615952 47.9725 4.92587 51.6736C4.9546 51.6984 4.97503 51.7314 4.98442 51.7682C4.99381 51.805 4.99171 51.8438 4.97839 51.8793C4.96507 51.9149 4.94118 51.9455 4.90993 51.9671C4.87868 51.9887 4.84157 52.0002 4.8036 52L4.80483 51.9951Z" fill="#2B1710"/>
</svg>
