<svg width="44" height="6" viewBox="0 0 44 6" fill="none" xmlns="http://www.w3.org/2000/svg">
<path d="M23.9769 5.51606C15.7755 5.56171 7.65935 3.85752 0.174015 0.518069C0.138525 0.504764 0.106247 0.484134 0.0793387 0.457515C0.0524306 0.430896 0.0314908 0.398884 0.0178846 0.363621C0.0042784 0.328358 -0.00167695 0.290635 0.000405484 0.252913C0.00248792 0.215191 0.0125575 0.17834 0.0299632 0.144776C0.047369 0.111212 0.0717226 0.081702 0.101399 0.0581837C0.131074 0.0346655 0.16541 0.0176655 0.20215 0.00831837C0.238891 -0.00102873 0.277187 -0.0025169 0.314547 0.00394674C0.351907 0.0104104 0.387489 0.0246729 0.418915 0.0458135C0.624317 0.148135 20.7379 10.1598 43.6323 1.36811C43.6983 1.34226 43.7719 1.34348 43.8371 1.3715C43.9022 1.39951 43.9535 1.45205 43.9799 1.51766C43.9937 1.55061 44.0005 1.58604 44 1.62174C43.9994 1.65743 43.9914 1.69262 43.9766 1.72512C43.9618 1.75762 43.9404 1.78671 43.9138 1.81061C43.8872 1.8345 43.8559 1.85267 43.8219 1.86398C37.4906 4.2937 30.7617 5.53202 23.9769 5.51606Z" fill="#45596D"/>
</svg>
