<svg width="10" height="9" viewBox="0 0 10 9" fill="none" xmlns="http://www.w3.org/2000/svg">
<path d="M9.34919 8.99705H9.29768L3.88238 8.441C3.79749 8.43173 3.71643 8.40071 3.64702 8.35097C3.57761 8.30122 3.5222 8.23443 3.48614 8.15702L0.0414705 0.690511C-0.0103258 0.572396 -0.0137291 0.438687 0.031974 0.318083C0.0776771 0.19748 0.168846 0.0995978 0.285913 0.0454739C0.40298 -0.00864997 0.536598 -0.014698 0.658082 0.0286092C0.779567 0.0719163 0.879228 0.161126 0.935658 0.277098L4.26277 7.49001L9.39674 8.01833C9.52554 8.02663 9.6459 8.08529 9.73181 8.18161C9.81772 8.27793 9.86228 8.40419 9.85586 8.5331C9.84944 8.662 9.79256 8.78321 9.6975 8.87052C9.60244 8.95783 9.47686 9.00423 9.34787 8.9997L9.34919 8.99705Z" fill="#81589C"/>
</svg>
