<svg width="12" height="25" viewBox="0 0 12 25" fill="none" xmlns="http://www.w3.org/2000/svg">
<path d="M5.14115 25C5.03584 24.9998 4.93339 24.9657 4.84889 24.9029C4.76438 24.8401 4.70228 24.7518 4.67174 24.651C4.11141 22.7943 3.93447 21.0985 4.12371 19.6756C1.46704 18.7159 0.265274 16.3578 0.824377 13.1765C0.970532 12.2626 1.2936 11.3861 1.77547 10.596C0.819461 9.71741 0.232095 8.63975 0.0551484 7.54489C-0.340525 5.04797 1.32327 1.57661 7.31366 0.00743942C7.43541 -0.0139858 7.56076 0.0112565 7.66474 0.0781268C7.76871 0.144997 7.84366 0.248588 7.87466 0.368256C7.90566 0.487925 7.89044 0.614882 7.83202 0.723823C7.77359 0.832765 7.67626 0.915691 7.55942 0.956076C2.20309 2.35813 0.689214 5.29865 1.02099 7.39129C1.15739 8.25145 1.6145 9.11161 2.36284 9.81571C3.51913 8.5525 5.21241 7.95408 7.27802 8.15437C9.38664 8.35835 11.7177 9.53431 11.6919 10.8946C11.6784 11.5864 11.0898 12.4441 8.36306 12.6026C5.92389 12.7439 3.95658 12.1627 2.54469 11.2055C2.16186 11.8669 1.90481 12.5935 1.78653 13.3485C1.20039 16.6859 2.78185 18.1052 4.31908 18.7061C4.63119 17.6002 5.20996 16.7154 6.0394 16.1256C7.3751 15.1819 9.13965 15.2335 10.5356 16.2571C11.7644 17.1541 11.4768 18.0462 11.2987 18.3878C10.5786 19.7727 7.57171 20.4682 5.0625 19.9459C4.92242 21.1956 5.09814 22.7033 5.60195 24.3696C5.62088 24.4315 5.62741 24.4965 5.62116 24.5609C5.61491 24.6253 5.59599 24.6879 5.56551 24.7449C5.53503 24.802 5.49357 24.8525 5.44352 24.8935C5.39347 24.9346 5.33582 24.9653 5.27386 24.984C5.23051 24.9951 5.18589 25.0005 5.14115 25ZM5.25419 18.9789C7.54222 19.4704 10.0072 18.7577 10.4385 17.9282C10.4889 17.8312 10.6425 17.5375 9.96419 17.0398C8.89759 16.2583 7.61349 16.2116 6.61447 16.9169C5.96075 17.3814 5.50487 18.0843 5.25419 18.9789ZM3.13944 10.4203C4.38052 11.2436 6.12787 11.7449 8.30775 11.6184C10.2738 11.5041 10.7113 11.0396 10.7138 10.87C10.7236 10.3785 9.27483 9.32542 7.18587 9.12266C6.25075 9.02559 4.43828 9.0686 3.13944 10.4191V10.4203Z" fill="#C474BF"/>
</svg>
