<svg width="169" height="169" viewBox="0 0 169 169" fill="none" xmlns="http://www.w3.org/2000/svg">
<g style="mix-blend-mode:multiply" opacity="0.5">
<path d="M162.605 152.133L23.654 167.838C21.9042 168.029 20.1495 167.524 18.7725 166.431C17.3955 165.338 16.5081 163.748 16.3037 162.006L0.540781 23.5615C0.348749 21.8181 0.856412 20.0699 1.95304 18.698C3.04967 17.3262 4.6463 16.442 6.39468 16.2383L145.353 0.541482C147.101 0.348063 148.855 0.852249 150.231 1.94376C151.607 3.03528 152.493 4.62528 152.696 6.366L168.458 144.81C168.653 146.554 168.146 148.303 167.049 149.676C165.952 151.048 164.354 151.932 162.605 152.133Z" stroke="#808285" stroke-miterlimit="10"/>
<path d="M141.564 10.1411L11.3645 24.8518L23.901 134.989L154.101 120.279L141.564 10.1411Z" stroke="#808285" stroke-miterlimit="10"/>
<path d="M41.8127 152.133V152.033L42.2236 151.987V152.064C42.2298 152.142 42.2522 152.218 42.2896 152.288C42.327 152.357 42.3785 152.417 42.4407 152.466C42.5078 152.512 42.5835 152.545 42.6633 152.562C42.7431 152.579 42.8256 152.581 42.906 152.566C42.9923 152.563 43.0767 152.54 43.1532 152.5C43.2296 152.46 43.2962 152.403 43.3479 152.334C43.4526 152.186 43.4943 152.003 43.4642 151.824V151.678C43.4594 151.585 43.4356 151.493 43.3942 151.41C43.3529 151.326 43.295 151.252 43.2239 151.191C43.1537 151.135 43.0726 151.095 42.9858 151.072C42.899 151.05 42.8084 151.045 42.7199 151.06H42.5183L42.4718 150.689H42.6734C42.7558 150.682 42.8361 150.658 42.9093 150.62C42.9826 150.581 43.0473 150.529 43.0998 150.465C43.1965 150.322 43.2353 150.148 43.2083 149.978V149.87C43.1959 149.705 43.1211 149.55 42.999 149.437C42.9381 149.387 42.8673 149.35 42.7912 149.329C42.715 149.308 42.6353 149.303 42.5571 149.314C42.4783 149.317 42.4011 149.337 42.3308 149.372C42.2606 149.408 42.199 149.458 42.1503 149.52C42.1016 149.582 42.0669 149.653 42.0488 149.73C42.0307 149.806 42.0295 149.886 42.0453 149.963V150.048L41.6499 150.094V149.994C41.6307 149.869 41.6373 149.741 41.6693 149.619C41.7013 149.497 41.758 149.383 41.836 149.283C42.0131 149.086 42.2611 148.967 42.526 148.951C42.6606 148.926 42.7988 148.929 42.9322 148.96C43.0656 148.99 43.1912 149.048 43.3014 149.128C43.4012 149.211 43.483 149.314 43.5417 149.429C43.6003 149.545 43.6346 149.671 43.6425 149.801V149.924C43.6659 150.095 43.6389 150.27 43.565 150.426C43.4905 150.57 43.3779 150.69 43.2394 150.774C43.4224 150.813 43.5849 150.918 43.6968 151.067C43.8124 151.232 43.8844 151.424 43.9062 151.624V151.755C43.9247 151.961 43.8845 152.168 43.7902 152.352C43.6958 152.536 43.5512 152.69 43.3729 152.796C43.1946 152.901 42.9899 152.955 42.7825 152.95C42.575 152.945 42.3732 152.881 42.2004 152.767C42.0934 152.696 42.0033 152.602 41.9363 152.493C41.8694 152.383 41.8272 152.261 41.8127 152.133Z" fill="#808285"/>
<path d="M46.4028 151.732L46.488 152.504L46.0771 152.55L45.9841 151.778L44.5264 151.94V151.569L45.3793 148.696L45.7902 148.649L44.9373 151.523L45.9841 151.407L45.86 150.349L46.2787 150.303L46.395 151.361L46.8137 151.307L46.8602 151.678L46.4028 151.732Z" fill="#808285"/>
<path d="M47.4495 151.523V151.454L47.8449 151.407V151.446C47.8491 151.523 47.8691 151.598 47.9038 151.668C47.9385 151.737 47.9871 151.798 48.0465 151.847C48.1116 151.892 48.1849 151.923 48.262 151.939C48.3392 151.955 48.4188 151.955 48.4962 151.94C48.8916 151.894 49.0622 151.631 49.0002 151.168V150.805C48.9924 150.606 48.9188 150.416 48.7908 150.264C48.7303 150.208 48.6573 150.167 48.5778 150.144C48.4984 150.121 48.4146 150.117 48.3334 150.133C48.2069 150.144 48.0874 150.196 47.9922 150.279C47.8984 150.358 47.8354 150.468 47.8139 150.588L47.4495 150.635L47.2091 148.51L49.0699 148.302V148.68L47.5968 148.843L47.7363 150.078C47.7944 149.99 47.8746 149.918 47.969 149.87C48.0726 149.808 48.1895 149.771 48.3101 149.762C48.4389 149.737 48.5718 149.742 48.6983 149.776C48.8248 149.811 48.9415 149.875 49.0389 149.963C49.2414 150.171 49.36 150.446 49.3723 150.735L49.4189 151.16C49.4675 151.443 49.4036 151.734 49.2405 151.971C49.1576 152.078 49.0522 152.166 48.9317 152.229C48.8112 152.292 48.6785 152.328 48.5427 152.334C48.4092 152.362 48.2715 152.361 48.1381 152.333C48.0047 152.306 47.8785 152.251 47.7674 152.172C47.6694 152.094 47.59 151.995 47.5351 151.883C47.4801 151.771 47.4508 151.648 47.4495 151.523Z" fill="#808285"/>
<path d="M70.4541 146.842L70.3998 146.378L71.0124 145.791L71.4233 145.745L71.8575 149.607L71.4543 149.654L71.0667 146.255L70.4541 146.842Z" fill="#808285"/>
<path d="M72.5708 148.495V148.302C72.5513 148.166 72.5513 148.028 72.5708 147.892C72.5961 147.742 72.6377 147.594 72.6948 147.452L73.3927 145.529L73.8191 145.475L73.1756 147.274C73.2257 147.229 73.2834 147.192 73.3461 147.166C73.4228 147.134 73.5038 147.113 73.5865 147.105C73.7159 147.086 73.8478 147.095 73.9734 147.131C74.0991 147.167 74.2156 147.229 74.3153 147.313C74.5251 147.502 74.653 147.766 74.672 148.047V148.24C74.6981 148.446 74.6741 148.655 74.6022 148.85C74.5295 149.016 74.4146 149.16 74.2688 149.267C74.1104 149.377 73.926 149.444 73.7338 149.461C73.5971 149.481 73.4577 149.473 73.3242 149.437C73.1908 149.401 73.0662 149.338 72.9585 149.252C72.8455 149.159 72.7529 149.044 72.6863 148.913C72.6196 148.783 72.5803 148.641 72.5708 148.495ZM74.2766 148.31V148.116C74.262 147.929 74.1793 147.753 74.044 147.622C73.9753 147.568 73.8965 147.527 73.8121 147.503C73.7278 147.479 73.6395 147.472 73.5523 147.482C73.4652 147.492 73.3809 147.519 73.3042 147.562C73.2276 147.604 73.1602 147.662 73.1058 147.73C72.999 147.886 72.9573 148.077 72.9895 148.263V148.449C73.0003 148.642 73.0833 148.823 73.2221 148.958C73.2876 149.017 73.3657 149.06 73.4503 149.084C73.5349 149.108 73.6239 149.113 73.7106 149.098C73.799 149.091 73.885 149.066 73.9627 149.023C74.0403 148.98 74.1077 148.922 74.1603 148.85C74.2647 148.691 74.3061 148.498 74.2766 148.31Z" fill="#808285"/>
<path d="M65.2826 152.635C66.057 151.849 66.5133 150.806 66.5643 149.705C66.6153 148.604 66.2574 147.523 65.559 146.669C64.8607 145.815 63.8708 145.247 62.7786 145.073C61.6864 144.9 60.5685 145.134 59.6384 145.731C58.7084 146.327 58.0316 147.244 57.7372 148.306C57.4428 149.368 57.5516 150.501 58.0428 151.488C58.5339 152.475 59.373 153.247 60.3996 153.657C61.4262 154.067 62.5684 154.086 63.6078 153.709L66.0579 154.659L65.2826 152.635Z" stroke="#808285" stroke-linecap="round" stroke-linejoin="round"/>
<path d="M154.777 122.284L24.5774 136.994L24.7408 138.43L154.94 123.719L154.777 122.284Z" fill="#808285"/>
<path d="M82.0012 133.809L24.9445 140.255L25.1079 141.691L82.1646 135.244L82.0012 133.809Z" fill="#808285"/>
<path d="M106.353 134.36L25.3134 143.516L25.4768 144.951L106.516 135.795L106.353 134.36Z" fill="#808285"/>
<path d="M156.161 134.451L149.757 135.177L150.974 145.838L153.921 143.265L157.371 145.111L156.161 134.451Z" stroke="#808285" stroke-miterlimit="10"/>
<path d="M37.0675 148.704C36.6554 148.421 36.1806 148.241 35.6837 148.181C35.1869 148.12 34.6827 148.18 34.2142 148.356C33.7608 148.531 33.3477 148.796 32.9999 149.134C32.6521 149.473 32.3767 149.878 32.1906 150.326C31.9114 149.928 31.5547 149.59 31.1418 149.333C30.7288 149.075 30.2681 148.903 29.787 148.827C29.2912 148.755 28.7855 148.804 28.3129 148.97C27.8403 149.135 27.4149 149.412 27.0732 149.777C26.6316 150.328 26.3642 150.998 26.3048 151.701C26.2455 152.403 26.3969 153.108 26.7398 153.725C27.4472 154.957 28.5588 155.909 29.8878 156.421C30.8399 156.897 31.8736 157.191 32.9349 157.286V157.286C33.9506 156.967 34.8973 156.461 35.7262 155.795C36.9083 155.008 37.7883 153.845 38.2228 152.497C38.426 151.821 38.4247 151.101 38.2193 150.426C38.0138 149.752 37.6131 149.153 37.0675 148.704V148.704Z" stroke="#808285" stroke-linecap="round" stroke-linejoin="round"/>
</g>
</svg>
