<svg width="37" height="40" viewBox="0 0 37 40" fill="none" xmlns="http://www.w3.org/2000/svg">
<path d="M30.851 3.65871C31.6289 3.72071 32.5935 3.99971 32.8035 4.76697C33.1458 6.00698 31.2477 7.00675 31.5278 8.26227C31.6833 8.92103 32.4068 9.28527 33.0835 9.46353C33.7651 9.55622 34.411 9.82323 34.9582 10.2385C36.055 11.3235 35.0982 13.2766 35.7361 14.6638C35.9928 15.1909 36.514 15.6249 36.5685 16.2139C36.5624 16.6096 36.4377 16.9945 36.2103 17.319C35.983 17.6436 35.6635 17.8929 35.2927 18.0351C34.2946 18.5565 33.1553 18.7465 32.0411 18.5776C31.2633 18.4536 30.4854 18.1591 29.7075 18.0351C28.1021 17.907 26.4884 18.1401 24.9857 18.7171C24.7974 18.7561 24.6228 18.8443 24.4801 18.9729C24.2156 19.2519 24.309 19.7014 24.4179 20.0734C25.0578 22.3102 25.3953 24.622 25.4213 26.9477C25.4405 27.0699 25.4299 27.1949 25.3907 27.3122C25.3515 27.4295 25.2846 27.5357 25.1958 27.622C25.0882 27.6787 24.9672 27.7055 24.8457 27.6995C24.4964 27.6384 24.1693 27.4876 23.8964 27.262C23.6236 27.0364 23.4145 26.7437 23.2899 26.413C23.0513 25.7483 22.7214 25.1198 22.3098 24.5452C22.0451 24.3007 21.7321 24.1141 21.3908 23.9971C21.0495 23.8802 20.6874 23.8357 20.3278 23.8663C19.9682 23.897 19.619 24.0021 19.3026 24.1751C18.9862 24.3481 18.7095 24.585 18.4904 24.8707C18.0918 25.4832 17.9098 26.2107 17.9732 26.9379C18.0366 27.6651 18.3418 28.3504 18.8404 28.8853C19.3583 29.4015 19.9938 29.7852 20.6927 30.0039C21.3916 30.2225 22.1332 30.2695 22.8543 30.1408C23.3677 30.0633 24.0523 30.009 24.2312 30.4895C24.4101 30.97 23.9745 31.3033 23.7644 31.6986C23.251 32.6673 23.8733 34.1088 23.0332 34.7986C22.3253 35.3876 20.9096 35.0698 20.6451 35.9456C20.5966 36.2831 20.6231 36.627 20.7229 36.9531C20.7786 37.3786 20.6916 37.8105 20.4753 38.1816C20.2591 38.5527 19.9257 38.8422 19.5272 39.0049C19.1287 39.1676 18.6873 39.1945 18.2719 39.0813C17.8564 38.9681 17.4902 38.7212 17.2302 38.3791C16.9424 37.9916 16.6545 37.4259 16.1723 37.5111C16.0181 37.5545 15.8766 37.6342 15.76 37.7436C14.5543 38.6969 13.2941 39.7199 11.7694 39.9602C11.438 40.0295 11.0939 40.008 10.7737 39.8982C9.81692 39.4952 9.81692 38.1699 9.99583 37.1469C7.56882 37.3019 4.94735 37.4104 2.9015 36.1006C2.49686 35.8736 2.16715 35.5344 1.95248 35.1241C1.77755 34.6035 1.77755 34.0404 1.95248 33.5198C2.26364 32.2876 2.87039 31.156 3.22044 29.9393C3.43769 29.3425 3.52306 28.706 3.4707 28.0734C3.41834 27.4407 3.2295 26.8268 2.91708 26.2735C2.03029 24.9947 0.0700098 24.336 0 22.7782C0 21.8637 0.645632 21.0964 1.12792 20.3059C1.83324 19.1435 2.12892 17.7797 1.96805 16.4309C1.83581 15.3226 1.39242 14.2686 1.19017 13.1681C1.03657 12.6265 1.00153 12.0584 1.08742 11.5021C1.17331 10.9459 1.37812 10.4146 1.688 9.94404C3.0493 8.23902 6.2542 8.62652 7.13321 6.65025C7.31675 6.11447 7.44447 5.5613 7.51437 4.99947C7.7613 4.09219 8.21564 3.25416 8.84182 2.55097C9.468 1.84778 10.249 1.29852 11.1238 0.946171C12.8814 0.261891 14.7609 -0.057227 16.6468 0.00841021C17.8836 0.00841021 19.4627 0.124665 20.3651 1.07793C21.2674 2.03119 20.5984 3.89896 21.7808 4.76697C22.7454 5.47998 24.2779 4.95297 25.2813 4.61972C27.0521 3.92207 28.9479 3.59496 30.851 3.65871Z" fill="#F75454"/>
</svg>
