<svg width="31" height="55" viewBox="0 0 31 55" fill="none" xmlns="http://www.w3.org/2000/svg">
<path d="M23.3163 0L23.413 0.291576C24.5793 3.15833 23.0737 7.72554 18.8948 7.57975C14.716 7.43396 14.765 11.2722 14.6192 13.4603C14.4734 15.6483 10.6352 17.5913 9.37697 15.4021C8.96166 14.6829 9.52277 18.123 10.0079 19.1435C10.9806 24.1481 12.1457 36.926 0 40.2301C13.7016 46.3556 19.4339 55 19.4339 55C23.6127 52.377 26.2369 43.4362 26.2369 43.4362C24.5842 41.4932 17.2936 40.6185 20.4066 30.4158C26.1156 31.6543 28.6148 27.7205 29.6378 24.1481C30.5272 21.0363 30.6583 15.5478 30.9499 11.2477C31.2415 6.94759 28.5634 2.04103 23.3163 0Z" fill="#FF8762"/>
</svg>
