<svg width="22" height="22" viewBox="0 0 22 22" fill="none" xmlns="http://www.w3.org/2000/svg">
<path opacity="0.4" fill-rule="evenodd" clip-rule="evenodd" d="M8.19345 4.65811H13.8188V3.34708H8.19345V4.65811ZM6.91378 3.40104V3.40757C6.47466 3.44755 6.04025 3.53484 5.61763 3.66619V3.66129C5.60507 3.66658 5.59324 3.67065 5.58189 3.67456L5.58189 3.67456C5.56698 3.67969 5.5529 3.68453 5.53907 3.69148C5.5053 3.69964 5.4723 3.71187 5.44088 3.72737C5.34819 3.75756 5.25549 3.79346 5.1683 3.83017C5.14512 3.83914 5.12195 3.84954 5.09878 3.85994L5.09878 3.85995C5.0756 3.87035 5.05243 3.88075 5.02925 3.88972C4.99744 3.90482 4.96425 3.92134 4.93106 3.93786L4.93105 3.93787C4.89786 3.95438 4.86468 3.9709 4.83287 3.98599L4.67576 4.07655C4.64671 4.09138 4.61982 4.10877 4.59238 4.12652L4.59238 4.12652C4.57604 4.13709 4.55951 4.14778 4.54221 4.15813C4.30576 4.31069 4.0866 4.48936 3.88864 4.6925L3.87686 4.70473C3.85086 4.73507 3.82497 4.76451 3.79943 4.79355C3.75629 4.84259 3.71415 4.8905 3.67418 4.93969L3.6624 4.95111C3.01982 5.83873 2.69775 6.93276 2.75352 8.04146V8.39309H4.02218V8.0382C4.02218 6.49303 4.51393 5.53117 5.6082 5.03841C6.02611 4.86137 6.46759 4.75205 6.91693 4.71208H6.92871V3.40676L6.91378 3.40104ZM18.3136 4.93461L18.3191 4.94603C18.9609 5.83446 19.2814 6.9293 19.2249 8.03801V8.3929H17.957V8.02904C17.9837 7.37474 17.8525 6.72371 17.5744 6.1355C17.3074 5.63214 16.88 5.24136 16.3639 5.02924C15.9531 4.85221 15.5179 4.74207 15.074 4.70291V3.40412C15.5132 3.44491 15.9476 3.53139 16.371 3.66273V3.65621C16.3948 3.66701 16.4129 3.67344 16.4441 3.68446L16.4495 3.68639C16.464 3.69151 16.4775 3.69663 16.4908 3.70169C16.5094 3.70872 16.5276 3.71564 16.5477 3.72229C16.6346 3.75081 16.7158 3.78443 16.7994 3.81902L16.814 3.82508C16.8526 3.83864 16.8889 3.85546 16.9217 3.87061C16.9323 3.87552 16.9425 3.88025 16.9523 3.88464C17.0214 3.91482 17.0921 3.95072 17.1487 3.98091C17.1864 4.0005 17.2231 4.02147 17.2576 4.04113C17.2762 4.05176 17.2942 4.06202 17.3113 4.07146C17.3394 4.08702 17.3639 4.10367 17.3874 4.11967C17.4046 4.13137 17.4213 4.14271 17.4385 4.15305C17.6758 4.30642 17.8973 4.4859 18.0976 4.68741L18.1047 4.69965C18.1785 4.77389 18.2484 4.85221 18.3136 4.93461Z" fill="#5669FF"/>
<path d="M15.1103 2.49053V5.37944C15.1103 5.74343 14.8153 6.03825 14.451 6.03825C14.0867 6.03825 13.7916 5.74343 13.7916 5.37944V2.49712C13.7883 2.13313 14.0817 1.83583 14.446 1.83336C14.8103 1.83089 15.1078 2.12324 15.1103 2.48724V2.49053Z" fill="#5669FF"/>
<path d="M8.18703 2.50101V5.38277C8.18703 5.74834 7.89161 6.04475 7.52726 6.04475C7.16291 6.04475 6.86831 5.74834 6.86831 5.38277V2.50101C6.86831 2.13544 7.16291 1.83985 7.52726 1.83985C7.89161 1.83985 8.18703 2.13544 8.18703 2.50101Z" fill="#5669FF"/>
<path fill-rule="evenodd" clip-rule="evenodd" d="M2.74732 15.501V8.39295H19.2313V15.501C19.2313 18.6006 17.5019 20.1667 14.0746 20.1667H7.8961C4.47669 20.1667 2.74732 18.6006 2.74732 15.501ZM6.46547 12.3446C6.46547 12.7746 6.80348 13.1235 7.2201 13.1235C7.64457 13.1235 7.98259 12.7665 7.97472 12.3365C7.97472 11.9064 7.63671 11.5575 7.22796 11.5575H7.2201C6.80348 11.5575 6.46547 11.9145 6.46547 12.3446ZM10.2307 12.3446C10.2307 12.7746 10.5766 13.1235 10.9932 13.1235C11.4099 13.1235 11.7479 12.7746 11.7479 12.3365C11.7479 11.9145 11.4099 11.5656 10.9932 11.5575H10.9854C10.5688 11.5656 10.2307 11.9145 10.2307 12.3446ZM14.7585 13.1235C14.3419 13.1235 14.0039 12.7746 14.0039 12.3446C14.0039 11.9145 14.3341 11.5656 14.7585 11.5656C15.1751 11.5656 15.5132 11.9145 15.5132 12.3446C15.5132 12.7746 15.1751 13.1235 14.7585 13.1235ZM14.7585 16.4504C14.3419 16.4504 14.0039 16.1015 13.996 15.6714C13.996 15.2414 14.3341 14.8924 14.7507 14.8924H14.7585C15.1752 14.8924 15.5132 15.2414 15.5132 15.6714C15.5132 16.1015 15.1752 16.4504 14.7585 16.4504ZM10.9932 16.4504C10.5766 16.4504 10.2307 16.1015 10.2307 15.6714C10.2307 15.2414 10.5688 14.8924 10.9854 14.8843H10.9932C11.4099 14.8924 11.74 15.2414 11.7479 15.6633C11.7479 16.1015 11.4099 16.4504 10.9932 16.4504ZM7.22008 16.4504C6.80346 16.4504 6.46545 16.1015 6.46545 15.6714C6.45759 15.2414 6.7956 14.8843 7.22008 14.8843C7.6367 14.8843 7.97471 15.2332 7.97471 15.6633C7.97471 16.0933 7.6367 16.4504 7.22008 16.4504Z" fill="#5669FF"/>
</svg>
