<svg width="12" height="5" viewBox="0 0 12 5" fill="none" xmlns="http://www.w3.org/2000/svg">
<path d="M0 3.51739C1.05783 3.89262 2.16325 4.11826 3.28396 4.18771C4.39392 4.26113 5.5082 4.13958 6.57592 3.82861C7.6387 3.52738 8.63378 3.02627 9.50746 2.35231C9.95603 2.02582 10.3766 1.66281 10.765 1.26703C11.1574 0.883989 11.4938 0.42913 11.8783 0.0221491C11.885 0.0151487 11.8931 0.00957751 11.9021 0.00577168C11.911 0.00196585 11.9206 0 11.9304 0C11.9401 0 11.9497 0.00196585 11.9587 0.00577168C11.9676 0.00957751 11.9757 0.0151487 11.9824 0.0221491C11.9937 0.0340056 12 0.0497063 12 0.0660334C12 0.0823604 11.9937 0.0980733 11.9824 0.10993C11.6668 0.584229 11.3273 1.04232 10.9652 1.48248C10.5833 1.90818 10.1682 2.3031 9.72371 2.66353C8.82271 3.38555 7.78072 3.91278 6.66403 4.21166C5.55108 4.51513 4.38982 4.60183 3.24391 4.46701C2.11652 4.33537 1.01967 4.01428 0 3.51739Z" fill="#4F2014"/>
</svg>
