<svg width="5" height="5" viewBox="0 0 5 5" fill="none" xmlns="http://www.w3.org/2000/svg">
<path d="M2.22891 1.02883C2.16639 0.800531 2.08128 0.578983 1.97484 0.367437C1.92019 0.26296 1.83946 0.174261 1.74041 0.109903C1.64137 0.0455459 1.52734 0.00770204 1.40934 0C1.24894 0.0100248 1.09505 0.0668128 0.966796 0.163304C0.495654 0.53372 0.171325 1.05835 0.0513149 1.64423C-0.068695 2.2301 0.023348 2.83938 0.31113 3.36411C0.618763 3.88248 1.06167 4.30807 1.59275 4.59563C2.12382 4.88319 2.72322 5.02196 3.32714 4.99717C3.57964 5.00924 3.8317 4.96575 4.06542 4.86979C4.29914 4.77382 4.50877 4.62774 4.67942 4.44192C5.2695 3.62539 4.59746 2.91502 3.85985 2.72721C3.46689 2.60305 3.11157 2.38243 2.82657 2.08565C2.54158 1.78887 2.33604 1.42545 2.22891 1.02883Z" fill="#EEB399"/>
</svg>
