<svg width="24" height="10" viewBox="0 0 24 10" fill="none" xmlns="http://www.w3.org/2000/svg">
<path d="M7.20441e-07 3.12689V6.55403C-0.000164378 6.698 0.028048 6.84058 0.0830269 6.97364C0.138006 7.10669 0.218671 7.22761 0.320412 7.32947C0.422153 7.43133 0.542974 7.51213 0.675965 7.56726C0.808956 7.62239 0.951509 7.65076 1.09547 7.65076C1.38635 7.65076 1.6653 7.53522 1.87098 7.32954C2.07666 7.12387 2.19221 6.8449 2.19221 6.55403V4.78016C2.19221 4.59891 2.26421 4.42508 2.39238 4.29691C2.52055 4.16874 2.69437 4.09675 2.87562 4.09675C2.96531 4.09675 3.05412 4.11442 3.13697 4.14879C3.21982 4.18315 3.29507 4.23351 3.35843 4.29699C3.42179 4.36046 3.47202 4.43581 3.50623 4.51872C3.54043 4.60163 3.55796 4.69047 3.55779 4.78016V5.42086C3.55779 5.59645 3.62754 5.76485 3.7517 5.88901C3.87586 6.01317 4.04426 6.08292 4.21985 6.08292C4.39544 6.08292 4.56383 6.01317 4.68799 5.88901C4.81215 5.76485 4.88191 5.59645 4.88191 5.42086V5.19348C4.88191 5.00052 4.91994 4.80944 4.99382 4.63118C5.0677 4.45292 5.17599 4.29097 5.31249 4.15458C5.44899 4.01819 5.61104 3.91004 5.78936 3.83631C5.96768 3.76258 6.1588 3.72472 6.35176 3.72488H6.6206C6.93879 3.72488 7.24395 3.85128 7.46895 4.07628C7.69394 4.30128 7.82035 4.60644 7.82035 4.92464C7.82035 5.06724 7.877 5.204 7.97783 5.30483C8.07867 5.40567 8.21543 5.46233 8.35804 5.46233C8.50064 5.46233 8.63741 5.40567 8.73824 5.30483C8.83908 5.204 8.89573 5.06724 8.89573 4.92464V4.65453C8.89573 4.49527 8.959 4.34253 9.07161 4.22991C9.18423 4.11729 9.33697 4.05403 9.49623 4.05403C9.57503 4.05403 9.65305 4.06958 9.72584 4.09977C9.79862 4.12997 9.86475 4.17421 9.92041 4.22999C9.97607 4.28576 10.0202 4.35197 10.0502 4.42482C10.0803 4.49767 10.0956 4.57573 10.0955 4.65453V8.44097C10.0958 8.7043 10.2007 8.95674 10.387 9.14282C10.5733 9.32891 10.8259 9.43343 11.0892 9.43343C11.3525 9.43343 11.6051 9.32891 11.7914 9.14282C11.9777 8.95674 12.0826 8.7043 12.0829 8.44097V7.51006C12.0827 7.43126 12.0981 7.3532 12.1282 7.28035C12.1582 7.2075 12.2023 7.14129 12.258 7.08551C12.3136 7.02973 12.3798 6.98549 12.4525 6.9553C12.5253 6.9251 12.6034 6.90955 12.6822 6.90955C12.8414 6.90955 12.9942 6.84629 13.1068 6.73367C13.2194 6.62105 13.2827 6.46832 13.2827 6.30906V5.50252C13.2827 5.21732 13.396 4.94379 13.5976 4.74211C13.7993 4.54044 14.0728 4.42714 14.358 4.42714C14.6434 4.42714 14.917 4.5404 15.1189 4.74204C15.3208 4.94367 15.4343 5.2172 15.4347 5.50252V6.95102C15.4347 7.15938 15.5174 7.35922 15.6646 7.50667C15.8118 7.65412 16.0115 7.73712 16.2198 7.73745C16.4284 7.73745 16.6285 7.6546 16.7759 7.50711C16.9234 7.35963 17.0063 7.15959 17.0063 6.95102V3.49499C17.0063 3.2481 17.1044 3.01132 17.2789 2.83674C17.4535 2.66216 17.6903 2.56408 17.9372 2.56408C18.1841 2.56408 18.4209 2.66216 18.5954 2.83674C18.77 3.01132 18.8681 3.2481 18.8681 3.49499V3.90955C18.8681 4.00468 18.8868 4.0989 18.9233 4.18677C18.9597 4.27465 19.0131 4.35447 19.0805 4.42168C19.1478 4.48889 19.2277 4.54216 19.3157 4.57845C19.4036 4.61475 19.4978 4.63334 19.593 4.63317H20.0063C20.1014 4.63334 20.1956 4.61475 20.2836 4.57845C20.3715 4.54216 20.4514 4.48889 20.5188 4.42168C20.5861 4.35447 20.6395 4.27465 20.676 4.18677C20.7124 4.0989 20.7312 4.00468 20.7312 3.90955C20.7312 3.81626 20.7682 3.72679 20.8342 3.66083C20.9002 3.59486 20.9896 3.5578 21.0829 3.5578C21.1762 3.5578 21.2657 3.59486 21.3316 3.66083C21.3976 3.72679 21.4347 3.81626 21.4347 3.90955V8.27513C21.4347 8.61531 21.5698 8.94157 21.8104 9.18211C22.0509 9.42266 22.3771 9.5578 22.7173 9.5578C23.0575 9.5578 23.3838 9.42266 23.6243 9.18211C23.8649 8.94157 24 8.61531 24 8.27513V3.09674C24 2.68965 23.9197 2.28655 23.7638 1.91051C23.6079 1.53447 23.3793 1.19287 23.0912 0.905241C22.8031 0.617617 22.4611 0.389614 22.0849 0.234284C21.7086 0.0789543 21.3053 -0.000656518 20.8982 4.07761e-06L3.08919 0.0339261C2.26985 0.0359199 1.48469 0.362542 0.905675 0.942261C0.326662 1.52198 0.000995473 2.30754 7.20441e-07 3.12689Z" fill="white"/>
</svg>
