<svg width="5" height="5" viewBox="0 0 5 5" fill="none" xmlns="http://www.w3.org/2000/svg">
<g style="mix-blend-mode:multiply">
<path d="M2.18962 6.86786e-06C1.77529 -0.00092307 1.36619 0.0925967 0.993408 0.27345C0.620628 0.454304 0.29397 0.717739 0.0382496 1.04374C0.024222 1.06034 0.0136769 1.07958 0.00724682 1.10034C0.000816773 1.1211 -0.00136498 1.14294 0.000824375 1.16456C0.00301373 1.18618 0.00952687 1.20714 0.0199877 1.22618C0.0304485 1.24523 0.044642 1.26197 0.0617119 1.27542C0.0787817 1.28887 0.098383 1.29874 0.119349 1.30445C0.140315 1.31016 0.162216 1.31159 0.183747 1.30865C0.205277 1.30572 0.225996 1.29848 0.244669 1.28736C0.263342 1.27625 0.279586 1.26149 0.292434 1.24397C0.630289 0.813536 1.1048 0.511158 1.63765 0.386723C2.17051 0.262287 2.72986 0.323229 3.22341 0.559505C3.18791 0.559505 3.15525 0.54815 3.11833 0.54815C2.82432 0.546365 2.53525 0.623632 2.28135 0.771878C2.02746 0.920124 1.81808 1.13389 1.67513 1.39081C1.53218 1.64772 1.46092 1.93834 1.4688 2.23224C1.47668 2.52614 1.56342 2.81252 1.71993 3.0614C1.87645 3.31029 2.09698 3.51252 2.35846 3.64695C2.61993 3.78137 2.91274 3.84303 3.20622 3.82549C3.4997 3.80795 3.78308 3.71185 4.02668 3.54724C4.27028 3.38263 4.46516 3.15556 4.59091 2.8898C4.56864 3.2485 4.46657 3.5977 4.29214 3.91191C4.11771 4.22613 3.87533 4.49744 3.58268 4.70603C3.55455 4.72597 3.53352 4.75438 3.52265 4.7871C3.51179 4.81982 3.51166 4.85516 3.52228 4.88796C3.5329 4.92076 3.55371 4.94932 3.58169 4.96947C3.60966 4.98962 3.64335 5.00031 3.67782 4.99998C3.71136 4.99973 3.74403 4.98933 3.77154 4.97016C4.24511 4.63389 4.59947 4.15574 4.78338 3.60482C4.9673 3.0539 4.97125 2.45877 4.79467 1.90545C4.61808 1.35214 4.27011 0.869321 3.80105 0.526794C3.332 0.184267 2.76616 -0.000221029 2.18536 6.86786e-06H2.18962ZM3.11833 3.50468C2.85797 3.50468 2.60346 3.42747 2.38698 3.28283C2.1705 3.13818 2.00178 2.93259 1.90214 2.69206C1.80251 2.45152 1.77645 2.18684 1.82724 1.93149C1.87803 1.67614 2.00341 1.44158 2.1875 1.25748C2.3716 1.07338 2.60616 0.948008 2.86151 0.897216C3.11687 0.846423 3.38155 0.872484 3.62208 0.972118C3.86262 1.07175 4.06821 1.24048 4.21285 1.45696C4.3575 1.67343 4.43471 1.92794 4.43471 2.1883C4.43471 2.53743 4.29601 2.87225 4.04915 3.11912C3.80228 3.36599 3.46745 3.50468 3.11833 3.50468Z" fill="#E0B3A8"/>
</g>
</svg>
