<svg width="3" height="2" viewBox="0 0 3 2" fill="none" xmlns="http://www.w3.org/2000/svg">
<path d="M0.967485 0.00331719C1.2531 -0.0186215 1.53636 0.0688613 1.75944 0.247914C1.84292 0.318004 1.91506 0.400505 1.97329 0.49251C2.01151 0.569763 2.03819 0.652165 2.05249 0.737107C2.07825 0.914709 2.05752 1.09593 1.99231 1.2632C1.92709 1.43047 1.8196 1.57813 1.68027 1.69184C1.53878 1.80251 1.37755 1.8855 1.20509 1.93643C1.06478 1.99368 0.911725 2.01275 0.761593 1.99167C0.676787 1.96826 0.596477 1.93091 0.523991 1.88119C0.277021 1.71746 0.101559 1.46651 0.032982 1.17896C-0.00559601 1.03816 -0.0104039 0.89029 0.01894 0.747292C0.0482839 0.604294 0.110969 0.470173 0.201921 0.355752C0.292872 0.241332 0.409541 0.149815 0.542529 0.0885937C0.675516 0.0273722 0.821079 -0.00183441 0.967485 0.00331719Z" fill="#EEB399"/>
</svg>
