<svg width="4" height="3" viewBox="0 0 4 3" fill="none" xmlns="http://www.w3.org/2000/svg">
<g style="mix-blend-mode:screen">
<path d="M2.89584 2.38627C2.81956 2.38635 2.74349 2.37827 2.66893 2.36218C2.16606 2.25772 1.65382 2.20506 1.14021 2.205C0.992324 2.21002 0.844941 2.18522 0.706838 2.13209C0.568735 2.07896 0.442726 1.99858 0.336336 1.89574C0.229946 1.7929 0.145348 1.66969 0.0875656 1.53347C0.029783 1.39725 0 1.25079 0 1.10282C0 0.954854 0.029783 0.808398 0.0875656 0.672176C0.145348 0.535954 0.229946 0.412749 0.336336 0.309906C0.442726 0.207064 0.568735 0.126678 0.706838 0.0735458C0.844941 0.0204141 0.992324 -0.00438211 1.14021 0.000633839C1.80593 0.000832198 2.46986 0.0696458 3.12148 0.205985C3.38879 0.261251 3.62606 0.413806 3.78729 0.634065C3.94853 0.854323 4.02224 1.12661 3.99414 1.39812C3.96605 1.66964 3.83813 1.92104 3.6352 2.10362C3.43228 2.28619 3.1688 2.38692 2.89584 2.38627Z" fill="#6E4B4B"/>
</g>
</svg>
