<svg width="12" height="12" viewBox="0 0 12 12" fill="none" xmlns="http://www.w3.org/2000/svg">
<path d="M0.829406 6.40626C1.11039 6.46968 1.40476 6.4342 1.66245 6.30583C1.92014 6.17746 2.12526 5.96413 2.24292 5.70211C1.9062 6.31753 1.67028 6.98259 1.5441 7.67214C1.48684 8.01761 1.51635 8.37181 1.62998 8.70315C1.7436 9.03448 1.93782 9.33263 2.19528 9.57096C2.54329 9.80384 2.94682 9.94111 3.36511 9.96889C3.78341 9.99667 4.20166 9.91398 4.57762 9.72919C5.37173 9.42063 6.03085 8.89846 6.80113 8.55826C6.61284 8.76121 6.46822 9.00041 6.37618 9.26113C6.28415 9.52186 6.24666 9.79859 6.266 10.0743C6.28534 10.35 6.36112 10.6188 6.48866 10.8643C6.6162 11.1097 6.7928 11.3265 7.0076 11.5014C7.46579 11.8258 8.01392 12 8.57598 12C9.13803 12 9.68615 11.8258 10.1443 11.5014C10.5892 11.1607 10.9595 10.733 11.2326 10.2446C11.5057 9.75616 11.6759 9.21733 11.7326 8.66111C11.8748 7.81274 11.7206 6.94142 11.2958 6.19264C11.0775 5.82497 10.7602 5.52558 10.3798 5.32841C9.99946 5.13124 9.57126 5.04418 9.14376 5.07709C9.33025 4.56263 9.36832 4.0064 9.25368 3.47148C9.13904 2.93655 8.87626 2.44433 8.49514 2.05062C8.11402 1.65691 7.62981 1.37746 7.0974 1.24396C6.56499 1.11045 6.00569 1.12823 5.48291 1.29527C5.22232 0.913436 4.87566 0.597642 4.47066 0.373175C4.06565 0.148708 3.61354 0.0217877 3.15049 0.00256528C2.68744 -0.0166572 2.2263 0.0723619 1.80396 0.262483C1.38161 0.452605 1.00979 0.738563 0.71823 1.09748C0.0670581 2.1181 -0.55235 5.84452 0.829406 6.40626Z" fill="#171C27"/>
</svg>
