<svg width="20" height="20" viewBox="0 0 20 20" fill="none" xmlns="http://www.w3.org/2000/svg">
<path d="M17.5001 9.5833C17.5029 10.6832 17.246 11.7682 16.7501 12.75C16.1621 13.9264 15.2582 14.9159 14.1396 15.6077C13.021 16.2995 11.7319 16.6661 10.4167 16.6666C9.31684 16.6695 8.23183 16.4125 7.25007 15.9166L2.50006 17.5L4.0834 12.75C3.58751 11.7682 3.33053 10.6832 3.3334 9.5833C3.33391 8.2681 3.70057 6.97901 4.39233 5.86042C5.08409 4.74184 6.07361 3.83793 7.25007 3.24996C8.23183 2.75407 9.31684 2.49709 10.4167 2.49996H10.8334C12.5704 2.59579 14.2109 3.32893 15.441 4.55901C16.6711 5.78909 17.4042 7.42967 17.5001 9.16663V9.5833Z" stroke="#9E1E63" stroke-width="1.5" stroke-linecap="round" stroke-linejoin="round"/>
</svg>
