<svg width="24" height="24" viewBox="0 0 24 24" fill="none" xmlns="http://www.w3.org/2000/svg">
<path d="M3.875 8.46875H19.625M5.91071 2V3.68771M17.375 2V3.6875M17.375 3.6875H6.125C4.26104 3.6875 2.75 5.19854 2.75 7.0625V18.3126C2.75 20.1766 4.26104 21.6876 6.125 21.6876H17.375C19.239 21.6876 20.75 20.1766 20.75 18.3126L20.75 7.0625C20.75 5.19854 19.239 3.6875 17.375 3.6875ZM20.75 15.2188H14.5625M14.5625 15.2188H8.9375M14.5625 15.2188V20.8438M14.5625 15.2188V9.0313M8.9375 15.2188H2.75M8.9375 15.2188V20.8438M8.9375 15.2188V9.0313" stroke="white" stroke-width="2" stroke-linecap="round" stroke-linejoin="round"/>
</svg>
