<svg width="298" height="309" viewBox="0 0 298 309" fill="none" xmlns="http://www.w3.org/2000/svg">
<g style="mix-blend-mode:multiply" opacity="0.2">
<path d="M207.942 15.2694C195.849 8.4421 179.85 -0.0843255 165.726 0.000629836C103.385 0.379067 39.5017 35.1026 11.8585 91.9068C4.15311 107.732 -1.1957 125.202 0.230651 142.741C1.38568 157.261 7.09107 171.031 13.4089 184.161C30.556 219.687 53.4551 253.237 84.9355 277.094C116.416 300.951 157.299 314.235 196.191 307.052C210.425 304.531 223.973 299.072 235.965 291.027C250.182 281.303 261.43 267.772 270.585 253.183C286.089 228.584 296.043 200.356 297.717 171.379C301.267 108.311 263.105 46.4248 207.942 15.2694Z" fill="#FFC9A4"/>
</g>
<g style="mix-blend-mode:multiply" opacity="0.2">
<path d="M60.8737 262.914C57.8872 261.384 54.7751 260.11 51.5714 259.107C49.6429 258.433 47.6468 257.969 45.618 257.724C42.6174 257.448 39.5966 257.962 36.8583 259.215C32.9824 261.006 29.6103 264.899 30.1762 269.124C30.7963 273.804 35.7343 276.638 40.3467 277.727C47.3234 279.365 54.5714 278.677 61.7186 278.909C66.1992 279.048 76.9588 283.265 76.0829 276.445C75.3929 270.931 65.2225 265.185 60.8737 262.914Z" fill="#FFC9A4"/>
</g>
<g style="mix-blend-mode:multiply" opacity="0.2">
<path d="M30.1529 238.192C28.3206 240.17 27.3239 242.776 27.3699 245.467C27.4117 246.801 27.7795 248.105 28.4414 249.265C29.1034 250.425 30.0394 251.407 31.1684 252.125C32.932 253.055 34.9015 253.53 36.897 253.507C38.9513 253.585 41.2071 253.399 42.6954 251.963C43.7261 250.843 44.3558 249.414 44.4861 247.9C44.9865 244.999 44.381 242.016 42.7884 239.536C40.052 235.644 33.5559 234.416 30.1529 238.192Z" fill="#FFC9A4"/>
</g>
<g style="mix-blend-mode:multiply" opacity="0.2">
<path d="M268.012 54.5651C267.671 51.0356 267.849 47.2126 269.934 44.3319C272.019 41.4511 276.57 40.1613 279.236 42.5092C281.903 44.857 281.399 48.8268 280.787 52.1941C280.027 56.2205 279.252 60.2443 278.461 64.2655C278.066 66.343 278.236 72.1354 275.314 72.0814C272.392 72.0273 271.182 67.154 270.43 65.1305C269.252 61.8713 268.012 58.0097 268.012 54.5651Z" fill="#FFC9A4"/>
</g>
<g style="mix-blend-mode:multiply" opacity="0.2">
<path d="M258.632 51.0588C259.33 51.2655 260.06 51.3466 260.787 51.2982C261.487 51.2148 262.162 50.9886 262.77 50.6338C263.378 50.279 263.906 49.8033 264.322 49.2361C265.142 48.102 265.637 46.7673 265.756 45.3745C265.874 44.4964 265.8 43.6032 265.539 42.7564C264.159 38.7017 256.492 37.1262 253.872 40.7715C250.927 44.8339 254.407 49.9081 258.632 51.0588Z" fill="#FFC9A4"/>
</g>
</svg>
