<svg width="12" height="5" viewBox="0 0 12 5" fill="none" xmlns="http://www.w3.org/2000/svg">
<path d="M0 1.55893V3.2734C0.000324315 3.41869 0.0582669 3.55792 0.161119 3.66054C0.263972 3.76317 0.403332 3.8208 0.548625 3.8208C0.693805 3.8208 0.833039 3.76313 0.935697 3.66047C1.03836 3.55781 1.09603 3.41858 1.09603 3.2734V2.38432C1.09522 2.33894 1.10345 2.29386 1.12026 2.2517C1.13706 2.20953 1.1621 2.17114 1.19391 2.13876C1.22572 2.10638 1.26366 2.08067 1.30552 2.06312C1.34738 2.04556 1.39231 2.03653 1.4377 2.03654C1.52831 2.03654 1.61522 2.07253 1.67929 2.13661C1.74337 2.20068 1.77936 2.28759 1.77936 2.37821V2.69783C1.77936 2.78553 1.8142 2.86963 1.87621 2.93163C1.93822 2.99364 2.02232 3.02847 2.11001 3.02847C2.1977 3.02847 2.2818 2.99364 2.34381 2.93163C2.40582 2.86963 2.44066 2.78553 2.44066 2.69783V2.58394C2.44066 2.38906 2.51807 2.20218 2.65587 2.06439C2.79366 1.92659 2.98055 1.84917 3.17543 1.84917H3.31013C3.38893 1.84917 3.46697 1.8647 3.53977 1.89485C3.61257 1.92501 3.67872 1.9692 3.73444 2.02492C3.79016 2.08064 3.83436 2.1468 3.86452 2.2196C3.89467 2.2924 3.91019 2.37043 3.91019 2.44923C3.91019 2.48445 3.91713 2.51933 3.93061 2.55187C3.94409 2.58441 3.96384 2.61397 3.98874 2.63887C4.01365 2.66378 4.04322 2.68353 4.07575 2.69701C4.10829 2.71049 4.14317 2.71743 4.17839 2.71743C4.21371 2.71759 4.24871 2.71076 4.28139 2.69735C4.31407 2.68395 4.34379 2.66423 4.36882 2.63931C4.39385 2.61439 4.41372 2.58477 4.42727 2.55216C4.44082 2.51954 4.4478 2.48455 4.4478 2.44923V2.31453C4.4478 2.23495 4.47941 2.15864 4.53568 2.10237C4.59195 2.04611 4.66826 2.01449 4.74783 2.01449C4.82741 2.01449 4.90372 2.04611 4.95998 2.10237C5.01625 2.15864 5.04786 2.23495 5.04786 2.31453V3.9249C5.04753 4.0556 5.0988 4.18114 5.19052 4.27424C5.28225 4.36734 5.40702 4.42047 5.53771 4.42208C5.60294 4.42209 5.66753 4.40922 5.72779 4.38422C5.78804 4.35922 5.84278 4.32258 5.88885 4.27639C5.93492 4.23021 5.97143 4.17538 5.99628 4.11506C6.02113 4.05475 6.03384 3.99013 6.03368 3.9249V3.751C6.03368 3.67143 6.06528 3.59511 6.12155 3.53884C6.17782 3.48258 6.25413 3.45097 6.33371 3.45097C6.41328 3.45097 6.48959 3.41936 6.54586 3.36309C6.60213 3.30682 6.63374 3.23051 6.63374 3.15093V2.74805C6.63374 2.60546 6.69038 2.46872 6.7912 2.36789C6.89202 2.26707 7.02876 2.21044 7.17134 2.21044C7.31383 2.21076 7.45038 2.2675 7.55113 2.36825C7.65188 2.469 7.70863 2.60556 7.70895 2.74805V3.47178C7.70895 3.57604 7.75037 3.67604 7.82409 3.74976C7.89781 3.82348 7.99779 3.86489 8.10205 3.86489C8.20609 3.86457 8.30577 3.82301 8.37922 3.74932C8.45268 3.67564 8.49393 3.57583 8.49393 3.47178V1.74508C8.49393 1.62166 8.54295 1.50329 8.63022 1.41602C8.71749 1.32875 8.83586 1.27972 8.95928 1.27972C9.0827 1.27972 9.20106 1.32875 9.28834 1.41602C9.37561 1.50329 9.42463 1.62166 9.42463 1.74508V1.95205C9.42463 2.04948 9.46334 2.14292 9.53224 2.21181C9.60114 2.28071 9.69458 2.31943 9.79202 2.31943H9.99898C10.0964 2.31943 10.1899 2.28071 10.2588 2.21181C10.3277 2.14292 10.3664 2.04948 10.3664 1.95205C10.3664 1.90528 10.3849 1.86041 10.418 1.82734C10.4511 1.79427 10.4959 1.77569 10.5427 1.77569C10.5893 1.77602 10.6338 1.79474 10.6666 1.82778C10.6994 1.86081 10.7178 1.90549 10.7178 1.95205V2.72722C10.7182 2.89731 10.7859 3.06034 10.9061 3.18061C11.0264 3.30088 11.1894 3.3686 11.3595 3.36892C11.5295 3.36859 11.6924 3.30084 11.8125 3.18053C11.9326 3.06023 12 2.8972 12 2.72722V1.54669C11.9998 1.34331 11.9596 1.14197 11.8816 0.954146C11.8036 0.766326 11.6893 0.595711 11.5453 0.452072C11.4013 0.308433 11.2305 0.194576 11.0425 0.117007C10.8545 0.0394379 10.653 -0.000319926 10.4496 1.93872e-06L1.55036 0.0171483C1.14036 0.0161724 0.746753 0.178019 0.456039 0.467126C0.165325 0.756233 0.00129733 1.14894 0 1.55893Z" fill="white"/>
</svg>
