<svg width="1" height="3" viewBox="0 0 1 3" fill="none" xmlns="http://www.w3.org/2000/svg">
<path d="M0.293539 3C0.217492 2.99787 0.145163 2.9668 0.0913686 2.91321C0.0375739 2.85961 0.00639628 2.78752 0.00425285 2.71176V0.346682C-0.00304884 0.304107 -0.000928115 0.260457 0.0104587 0.218782C0.0218455 0.177106 0.042226 0.138407 0.0701804 0.105394C0.0981347 0.0723805 0.132989 0.0458309 0.172304 0.027629C0.211619 0.00942714 0.254445 0 0.297798 0C0.34115 0 0.383976 0.00942714 0.423291 0.027629C0.462606 0.0458309 0.497461 0.0723805 0.525415 0.105394C0.55337 0.138407 0.57375 0.177106 0.585137 0.218782C0.596524 0.260457 0.598644 0.304107 0.591343 0.346682V2.71176C0.589128 2.78897 0.556773 2.86228 0.501163 2.91611C0.445553 2.96993 0.371068 3.00003 0.293539 3Z" fill="#45596D"/>
</svg>
