<svg width="7" height="9" viewBox="0 0 7 9" fill="none" xmlns="http://www.w3.org/2000/svg">
<path d="M6.125 3.58334C6.125 4.9475 5.34859 6.20568 4.64027 7.06967C4.03627 7.80641 2.96373 7.80641 2.35973 7.06967C1.65141 6.20568 0.875 4.9475 0.875 3.58334C0.875 2.72801 1.15156 1.90772 1.64384 1.30292C2.13613 0.698113 2.80381 0.358337 3.5 0.358337C4.19619 0.358337 4.86387 0.698113 5.35615 1.30292C5.84844 1.90772 6.125 2.72801 6.125 3.58334Z" fill="#716E90"/>
<path d="M3.5 4.65836C3.98325 4.65836 4.375 4.17707 4.375 3.58336C4.375 2.98966 3.98325 2.50836 3.5 2.50836C3.01675 2.50836 2.625 2.98966 2.625 3.58336C2.625 4.17707 3.01675 4.65836 3.5 4.65836Z" fill="white"/>
</svg>
