<svg width="1" height="4" viewBox="0 0 1 4" fill="none" xmlns="http://www.w3.org/2000/svg">
<path d="M0.336985 4C0.249256 4.00003 0.164971 3.966 0.102045 3.90509C0.0391183 3.84419 0.00250654 3.76123 0 3.67386V0.335709C0 0.29162 0.00871592 0.24799 0.0256507 0.207257C0.0425855 0.166524 0.0674036 0.129506 0.098695 0.0983299C0.129986 0.0671542 0.167142 0.042428 0.208026 0.0255558C0.248911 0.00868368 0.292732 0 0.336985 0C0.424678 0.00249727 0.507918 0.0389444 0.569046 0.101638C0.630174 0.164331 0.664369 0.248305 0.664333 0.335709V3.67386C0.664333 3.76036 0.629849 3.84332 0.568458 3.90448C0.507068 3.96564 0.423804 4 0.336985 4Z" fill="#45596D"/>
</svg>
