<svg width="4" height="3" viewBox="0 0 4 3" fill="none" xmlns="http://www.w3.org/2000/svg">
<path d="M0.679723 2.21299C1.60566 1.65237 2.61171 1.23628 3.66313 0.979079C3.75869 0.954386 3.84346 0.898912 3.90434 0.82123C3.96522 0.743547 3.99883 0.64798 3.99997 0.54929C4.00111 0.4506 3.96972 0.354279 3.91065 0.275211C3.85157 0.196144 3.76811 0.138732 3.67315 0.11184C2.46051 -0.263589 0.926258 0.325829 0.0727834 1.58477C0.0173379 1.66976 -0.00760949 1.77106 0.0020239 1.87208C0.0116573 1.9731 0.0552972 2.06786 0.125807 2.14084C0.196317 2.21383 0.289518 2.2607 0.390147 2.27381C0.490776 2.28692 0.592872 2.26547 0.679723 2.21299Z" fill="#2B1710"/>
</svg>
