<svg width="23" height="23" viewBox="0 0 23 23" fill="none" xmlns="http://www.w3.org/2000/svg">
<path fill-rule="evenodd" clip-rule="evenodd" d="M6.98212 0C8.24808 0 9.43535 0.317103 10.4591 0.871518C10.8016 0.838391 11.1488 0.821441 11.5 0.821441C17.3976 0.821441 22.1785 5.60238 22.1785 11.5C22.1785 12.0268 22.1404 12.5446 22.0667 13.051C22.6593 14.038 23 15.1935 23 16.4286C23 20.0578 20.0578 23 16.4286 23C15.1935 23 14.038 22.6593 13.051 22.0667C12.5446 22.1404 12.0268 22.1785 11.5 22.1785C5.60238 22.1785 0.821441 17.3976 0.821441 11.5C0.821441 10.9471 0.863451 10.4041 0.944454 9.87392C0.343968 8.90357 0 7.77529 0 6.57141C0 2.94212 3.126 0 6.98212 0ZM15.0285 7.6667C15.6072 6.57147 13.2925 5.75004 11.5565 5.75004C9.82053 5.75004 7.50586 6.84527 7.50586 8.76193C7.50586 10.6786 8.95249 11.3631 10.3992 12.0476C10.6885 12.1845 11.014 12.3043 11.3395 12.4241C12.316 12.7835 13.2925 13.1429 13.2925 13.9643C13.2925 15.0595 12.1352 15.3333 10.9779 15.3333C10.5637 15.3333 10.0865 15.137 9.61397 14.9425C8.76611 14.5936 7.93319 14.2508 7.50588 15.0595C6.92721 16.1548 8.64519 17.25 10.9779 17.25C13.5818 17.25 15.6072 16.1548 15.6072 13.9643C15.6072 11.9112 13.3197 11.0609 11.8415 10.5114C11.7426 10.4746 11.6473 10.4391 11.5565 10.4048C10.1099 9.85717 9.82053 9.30955 9.82053 8.76193C9.82053 8.21432 10.3992 7.6667 11.5565 7.6667C11.9423 7.6667 12.3688 7.83303 12.7953 7.99936C13.6482 8.33202 14.5012 8.66467 15.0285 7.6667Z" fill="white"/>
</svg>
