<svg width="9" height="47" viewBox="0 0 9 47" fill="none" xmlns="http://www.w3.org/2000/svg">
<path d="M8.0848 47C6.25923 47 4.71114 45.8633 3.91397 43.9099C3.11681 41.9565 3.18374 39.2279 4.8584 37.7857C6.09006 36.7244 6.86896 35.0157 6.99797 33.0989C7.18418 30.313 6.04138 27.3787 3.77888 24.8229C0.0754023 20.646 1.9387 17.8967 3.91275 14.9867C4.42148 14.2383 4.94725 13.463 5.39634 12.6415C6.83367 10.0163 7.50062 5.97206 5.99148 3.32376C4.92899 1.45802 2.96224 0.462479 0.149641 0.365115C0.106465 0.356708 0.0676941 0.333194 0.0402897 0.298788C0.0128854 0.264381 -0.00136265 0.221335 0.000102757 0.177372C0.00156817 0.13341 0.0186552 0.0914044 0.04829 0.0588988C0.0779248 0.0263932 0.118169 0.00551254 0.161809 0C3.11437 0.102232 5.18579 1.15985 6.31521 3.14486C7.96431 6.04143 7.16714 10.1916 5.72372 12.824C5.2649 13.6614 4.73426 14.4427 4.22188 15.1997C2.24905 18.1085 0.545181 20.6205 4.0588 24.582C6.38458 27.2083 7.5566 30.2376 7.36674 33.1232C7.23165 35.1386 6.40527 36.9411 5.1006 38.0656C3.55981 39.3934 3.50991 41.9407 4.25596 43.7699C5.03244 45.6698 6.56105 46.7359 8.34646 46.6215C8.39064 46.6251 8.43206 46.6445 8.46317 46.676C8.49428 46.7076 8.513 46.7493 8.51595 46.7936C8.5189 46.8378 8.50587 46.8816 8.47923 46.917C8.45259 46.9525 8.41411 46.9772 8.37081 46.9866C8.27466 46.9976 8.17851 47 8.0848 47Z" fill="#2B1710"/>
</svg>
