<svg width="202" height="202" viewBox="0 0 202 202" fill="none" xmlns="http://www.w3.org/2000/svg">
<circle opacity="0.5" cx="101" cy="101" r="101" fill="#79C7FE"/>
<mask id="mask0_16_2308" style="mask-type:alpha" maskUnits="userSpaceOnUse" x="0" y="0" width="202" height="202">
<circle cx="101" cy="101" r="101" fill="#4F4242"/>
</mask>
<g mask="url(#mask0_16_2308)">
<g clip-path="url(#clip0_16_2308)">
<path d="M103.93 185.313H39.6944C33.4859 185.313 28.4531 180.28 28.4531 174.072V162.83H114.728L103.93 185.313Z" fill="#D3DCFB"/>
<path d="M174.606 95.379V142.607V174.071H39.6944C33.4859 174.071 28.4531 169.038 28.4531 162.829V95.379L107.151 67.2744L174.606 95.379Z" fill="#EBF5FC"/>
<path d="M48.3052 117.863H42.3332C40.8781 117.863 39.6984 116.683 39.6984 115.228V109.256C39.6984 107.801 40.8781 106.621 42.3332 106.621H48.3052C49.7603 106.621 50.94 107.801 50.94 109.256V115.228C50.94 116.683 49.7603 117.863 48.3052 117.863Z" fill="#3C58A0"/>
<path d="M70.7888 117.863H64.8168C63.3617 117.863 62.182 116.683 62.182 115.228V109.256C62.182 107.801 63.3617 106.621 64.8168 106.621H70.7888C72.2439 106.621 73.4236 107.801 73.4236 109.256V115.228C73.4236 116.683 72.2439 117.863 70.7888 117.863Z" fill="#3C58A0"/>
<path d="M93.2721 117.863H87.3C85.8449 117.863 84.6652 116.683 84.6652 115.228V109.256C84.6652 107.801 85.8449 106.621 87.3 106.621H93.2721C94.7271 106.621 95.9069 107.801 95.9069 109.256V115.228C95.9069 116.683 94.7275 117.863 93.2721 117.863Z" fill="#3C58A0"/>
<path d="M115.756 117.863H109.784C108.329 117.863 107.149 116.683 107.149 115.228V109.256C107.149 107.801 108.329 106.621 109.784 106.621H115.756C117.211 106.621 118.39 107.801 118.39 109.256V115.228C118.39 116.683 117.211 117.863 115.756 117.863Z" fill="#3C58A0"/>
<path d="M138.235 117.863H132.263C130.808 117.863 129.628 116.683 129.628 115.228V109.256C129.628 107.801 130.808 106.621 132.263 106.621H138.235C139.69 106.621 140.87 107.801 140.87 109.256V115.228C140.87 116.683 139.691 117.863 138.235 117.863Z" fill="#3C58A0"/>
<path d="M160.719 117.863H154.747C153.292 117.863 152.112 116.683 152.112 115.228V109.256C152.112 107.801 153.292 106.621 154.747 106.621H160.719C162.174 106.621 163.354 107.801 163.354 109.256V115.228C163.354 116.683 162.174 117.863 160.719 117.863Z" fill="#3C58A0"/>
<path d="M48.3052 140.346H42.3332C40.8781 140.346 39.6984 139.166 39.6984 137.711V131.739C39.6984 130.284 40.8781 129.104 42.3332 129.104H48.3052C49.7603 129.104 50.94 130.284 50.94 131.739V137.711C50.94 139.166 49.7603 140.346 48.3052 140.346Z" fill="#3C58A0"/>
<path d="M70.7888 140.346H64.8168C63.3617 140.346 62.182 139.166 62.182 137.711V131.739C62.182 130.284 63.3617 129.104 64.8168 129.104H70.7888C72.2439 129.104 73.4236 130.284 73.4236 131.739V137.711C73.4236 139.166 72.2439 140.346 70.7888 140.346Z" fill="#3C58A0"/>
<path d="M93.2721 140.346H87.3C85.8449 140.346 84.6652 139.166 84.6652 137.711V131.739C84.6652 130.284 85.8449 129.104 87.3 129.104H93.2721C94.7271 129.104 95.9069 130.284 95.9069 131.739V137.711C95.9069 139.166 94.7275 140.346 93.2721 140.346Z" fill="#3C58A0"/>
<path d="M118.39 140.346V131.915C118.39 130.362 117.132 129.104 115.58 129.104H109.959C108.407 129.104 107.149 130.362 107.149 131.915V137.536C107.149 139.088 108.407 140.346 109.959 140.346H118.39Z" fill="#3C58A0"/>
<path d="M48.3052 162.83H42.3332C40.8781 162.83 39.6984 161.65 39.6984 160.195V154.223C39.6984 152.768 40.8781 151.588 42.3332 151.588H48.3052C49.7603 151.588 50.94 152.768 50.94 154.223V160.195C50.94 161.65 49.7603 162.83 48.3052 162.83Z" fill="#3C58A0"/>
<path d="M70.7888 162.83H64.8168C63.3617 162.83 62.182 161.65 62.182 160.195V154.223C62.182 152.768 63.3617 151.588 64.8168 151.588H70.7888C72.2439 151.588 73.4236 152.768 73.4236 154.223V160.195C73.4236 161.65 72.2439 162.83 70.7888 162.83Z" fill="#3C58A0"/>
<path d="M93.2721 162.83H87.3C85.8449 162.83 84.6652 161.65 84.6652 160.195V154.223C84.6652 152.768 85.8449 151.588 87.3 151.588H93.2721C94.7271 151.588 95.9069 152.768 95.9069 154.223V160.195C95.9069 161.65 94.7275 162.83 93.2721 162.83Z" fill="#3C58A0"/>
<path d="M160.639 106.621H154.826C154.475 106.621 154.14 106.69 153.831 106.811C154.837 107.208 155.55 108.187 155.55 109.335V115.148C155.55 116.295 154.837 117.274 153.831 117.671C154.14 117.793 154.475 117.862 154.826 117.862H160.639C162.139 117.862 163.354 116.647 163.354 115.148V109.335C163.354 107.836 162.138 106.621 160.639 106.621Z" fill="#2A428C"/>
<path d="M138.156 106.621H132.343C131.991 106.621 131.656 106.69 131.348 106.811C132.354 107.208 133.066 108.187 133.066 109.335V115.148C133.066 116.295 132.353 117.274 131.348 117.671C131.656 117.793 131.991 117.862 132.343 117.862H138.156C139.655 117.862 140.87 116.647 140.87 115.148V109.335C140.87 107.836 139.655 106.621 138.156 106.621Z" fill="#2A428C"/>
<path d="M115.676 106.621H109.863C109.512 106.621 109.177 106.69 108.868 106.811C109.874 107.208 110.587 108.187 110.587 109.335V115.148C110.587 116.295 109.874 117.274 108.868 117.671C109.177 117.793 109.512 117.862 109.863 117.862H115.676C117.175 117.862 118.391 116.647 118.391 115.148V109.335C118.39 107.836 117.175 106.621 115.676 106.621Z" fill="#2A428C"/>
<path d="M93.1927 106.621H87.3797C87.0279 106.621 86.693 106.69 86.3844 106.811C87.3906 107.208 88.1036 108.187 88.1036 109.335V115.148C88.1036 116.295 87.3906 117.274 86.3844 117.671C86.693 117.793 87.0279 117.862 87.3797 117.862H93.1927C94.6919 117.862 95.9072 116.647 95.9072 115.148V109.335C95.9068 107.836 94.6919 106.621 93.1927 106.621Z" fill="#2A428C"/>
<path d="M70.7091 106.621H64.8961C64.5444 106.621 64.2094 106.69 63.9008 106.811C64.907 107.208 65.6197 108.187 65.6197 109.335V115.148C65.6197 116.295 64.9066 117.274 63.9008 117.671C64.2094 117.793 64.5444 117.862 64.8961 117.862H70.7091C72.2083 117.862 73.4236 116.647 73.4236 115.148V109.335C73.4236 107.836 72.2083 106.621 70.7091 106.621Z" fill="#2A428C"/>
<path d="M48.2258 106.621H42.4128C42.0611 106.621 41.7261 106.69 41.4175 106.811C42.4237 107.208 43.1367 108.187 43.1367 109.335V115.148C43.1367 116.295 42.4237 117.274 41.4175 117.671C41.7261 117.793 42.0611 117.862 42.4128 117.862H48.2258C49.725 117.862 50.9403 116.647 50.9403 115.148V109.335C50.94 107.836 49.7247 106.621 48.2258 106.621Z" fill="#2A428C"/>
<path d="M48.2258 129.104H42.4128C42.0611 129.104 41.7261 129.173 41.4175 129.295C42.4237 129.692 43.1367 130.671 43.1367 131.818V137.632C43.1367 138.779 42.4237 139.758 41.4175 140.155C41.7261 140.277 42.0611 140.346 42.4128 140.346H48.2258C49.725 140.346 50.9403 139.131 50.9403 137.632V131.819C50.94 130.32 49.7247 129.104 48.2258 129.104Z" fill="#2A428C"/>
<path d="M48.2258 151.588H42.4128C42.0611 151.588 41.7261 151.657 41.4175 151.779C42.4237 152.176 43.1367 153.155 43.1367 154.302V160.115C43.1367 161.263 42.4237 162.242 41.4175 162.639C41.7261 162.761 42.0611 162.83 42.4128 162.83H48.2258C49.725 162.83 50.9403 161.615 50.9403 160.116V154.302C50.94 152.803 49.7247 151.588 48.2258 151.588Z" fill="#2A428C"/>
<path d="M70.7091 129.104H64.8961C64.5444 129.104 64.2094 129.173 63.9008 129.295C64.907 129.692 65.6197 130.671 65.6197 131.818V137.632C65.6197 138.779 64.9066 139.758 63.9008 140.155C64.2094 140.277 64.5444 140.346 64.8961 140.346H70.7091C72.2083 140.346 73.4236 139.131 73.4236 137.632V131.819C73.4236 130.32 72.2083 129.104 70.7091 129.104Z" fill="#2A428C"/>
<path d="M70.7091 151.588H64.8961C64.5444 151.588 64.2094 151.657 63.9008 151.779C64.907 152.176 65.6197 153.155 65.6197 154.302V160.115C65.6197 161.263 64.9066 162.242 63.9008 162.639C64.2094 162.761 64.5444 162.83 64.8961 162.83H70.7091C72.2083 162.83 73.4236 161.615 73.4236 160.116V154.302C73.4236 152.803 72.2083 151.588 70.7091 151.588Z" fill="#2A428C"/>
<path d="M93.1927 129.104H87.3797C87.0279 129.104 86.693 129.173 86.3844 129.295C87.3906 129.692 88.1036 130.671 88.1036 131.818V137.632C88.1036 138.779 87.3906 139.758 86.3844 140.155C86.693 140.277 87.0279 140.346 87.3797 140.346H93.1927C94.6919 140.346 95.9072 139.131 95.9072 137.632V131.819C95.9068 130.32 94.6919 129.104 93.1927 129.104Z" fill="#2A428C"/>
<path d="M118.39 140.346V131.818C118.39 130.319 117.175 129.104 115.676 129.104H109.863C109.511 129.104 109.176 129.173 108.868 129.295C109.874 129.692 110.587 130.671 110.587 131.818V137.632C110.587 138.779 109.874 139.758 108.868 140.155C109.176 140.277 109.511 140.346 109.863 140.346H118.39V140.346Z" fill="#2A428C"/>
<path d="M93.1927 151.588H87.3797C87.0279 151.588 86.693 151.657 86.3844 151.779C87.3906 152.176 88.1036 153.155 88.1036 154.302V160.115C88.1036 161.263 87.3906 162.242 86.3844 162.639C86.693 162.761 87.0279 162.83 87.3797 162.83H93.1927C94.6919 162.83 95.9072 161.615 95.9072 160.116V154.302C95.9068 152.803 94.6919 151.588 93.1927 151.588Z" fill="#2A428C"/>
<path d="M166.797 92.1255V142.607V174.071H174.606V142.607V95.3791L166.797 92.1255Z" fill="#D3DCFB"/>
<path d="M174.606 95.3791V67.2745C174.606 61.066 169.573 56.0332 163.365 56.0332H39.6944C33.4859 56.0332 28.4531 61.066 28.4531 67.2745V95.3791H174.606Z" fill="#FF4155"/>
<path d="M63.8744 69.8193H56.5573C55.1517 69.8193 54.0128 68.6801 54.0128 67.2748C54.0128 65.8694 55.152 64.7302 56.5573 64.7302H63.8744C65.2801 64.7302 66.419 65.8694 66.419 67.2748C66.419 68.6801 65.2798 69.8193 63.8744 69.8193Z" fill="#E80054"/>
<path d="M81.8509 69.8193H74.5338C73.1281 69.8193 71.9892 68.6801 71.9892 67.2748C71.9892 65.8694 73.1285 64.7302 74.5338 64.7302H81.8509C83.2566 64.7302 84.3954 65.8694 84.3954 67.2748C84.3954 68.6801 83.2566 69.8193 81.8509 69.8193Z" fill="#E80054"/>
<path d="M128.518 69.8193H121.201C119.795 69.8193 118.656 68.6801 118.656 67.2748C118.656 65.8694 119.795 64.7302 121.201 64.7302H128.518C129.924 64.7302 131.063 65.8694 131.063 67.2748C131.063 68.6801 129.924 69.8193 128.518 69.8193Z" fill="#E80054"/>
<path d="M146.495 69.8193H139.178C137.772 69.8193 136.633 68.6801 136.633 67.2748C136.633 65.8694 137.772 64.7302 139.178 64.7302H146.495C147.901 64.7302 149.04 65.8694 149.04 67.2748C149.04 68.6801 147.9 69.8193 146.495 69.8193Z" fill="#E80054"/>
<path d="M76.2303 65.8695C76.2303 69.7499 73.0847 72.8955 69.2043 72.8955C65.3239 72.8955 62.1783 69.7499 62.1783 65.8695V51.8172C62.178 47.9369 65.3236 44.7913 69.204 44.7913C73.0844 44.7913 76.23 47.9369 76.23 51.8172V65.8695H76.2303Z" fill="#EBF5FC"/>
<path d="M140.874 65.8695C140.874 69.7499 137.728 72.8955 133.848 72.8955C129.968 72.8955 126.822 69.7499 126.822 65.8695V51.8172C126.822 47.9369 129.967 44.7913 133.848 44.7913C137.728 44.7913 140.874 47.9369 140.874 51.8172V65.8695H140.874Z" fill="#EBF5FC"/>
<path d="M133.848 44.7913C132.405 44.7913 131.065 45.2273 129.95 45.973C131.835 47.233 133.078 49.3794 133.078 51.8176V65.8695C133.078 68.3074 131.835 70.454 129.95 71.7141C131.065 72.4594 132.405 72.8958 133.848 72.8958C137.728 72.8958 140.874 69.7502 140.874 65.8699V51.8172C140.874 47.9369 137.728 44.7913 133.848 44.7913V44.7913Z" fill="#D3DCFB"/>
<path d="M69.2039 44.7913C67.7614 44.7913 66.4216 45.2273 65.3058 45.973C67.1913 47.233 68.4339 49.3794 68.4339 51.8176V65.8695C68.4339 68.3074 67.1913 70.454 65.3058 71.7141C66.4213 72.4594 67.7614 72.8958 69.2039 72.8958C73.0843 72.8958 76.2299 69.7502 76.2299 65.8699V51.8172C76.2302 47.9369 73.0847 44.7913 69.2039 44.7913V44.7913Z" fill="#D3DCFB"/>
<path d="M163.365 56.033H155.559C161.767 56.033 166.8 61.0657 166.8 67.2743V95.3792H174.606V67.2746C174.606 61.0661 169.573 56.033 163.365 56.033Z" fill="#E80054"/>
<path d="M28.4528 81.5925H174.606V86.6819H28.4528V81.5925Z" fill="#E80054"/>
<path d="M143.686 213.417C166.969 213.417 185.843 194.543 185.843 171.261C185.843 147.978 166.969 129.104 143.686 129.104C120.404 129.104 101.53 147.978 101.53 171.261C101.53 194.543 120.404 213.417 143.686 213.417Z" fill="#4FABF7"/>
<path d="M143.686 202.176C160.76 202.176 174.601 188.335 174.601 171.261C174.601 154.187 160.76 140.346 143.686 140.346C126.612 140.346 112.771 154.187 112.771 171.261C112.771 188.335 126.612 202.176 143.686 202.176Z" fill="#EBF5FC"/>
<path d="M143.686 168.184C142.281 168.184 141.142 167.045 141.142 165.64V151.588C141.142 150.182 142.281 149.043 143.686 149.043C145.092 149.043 146.231 150.182 146.231 151.588V165.64C146.231 167.045 145.092 168.184 143.686 168.184Z" fill="#3C58A0"/>
<path d="M157.739 173.805H149.307C147.901 173.805 146.762 172.666 146.762 171.261C146.762 169.856 147.902 168.716 149.307 168.716H157.739C159.144 168.716 160.283 169.856 160.283 171.261C160.283 172.666 159.144 173.805 157.739 173.805Z" fill="#3C58A0"/>
<path d="M143.686 129.104C142.371 129.104 141.07 129.168 139.785 129.286C161.237 131.255 178.039 149.294 178.039 171.261C178.039 193.227 161.237 211.267 139.784 213.236C141.069 213.354 142.37 213.417 143.686 213.417C166.968 213.417 185.843 194.543 185.843 171.261C185.843 147.979 166.969 129.104 143.686 129.104Z" fill="#1886EA"/>
<path d="M143.686 140.346C142.366 140.346 141.064 140.429 139.787 140.59C155.02 142.507 166.803 155.508 166.803 171.261C166.803 187.014 155.02 200.015 139.787 201.932C141.064 202.092 142.366 202.176 143.686 202.176C160.76 202.176 174.601 188.335 174.601 171.261C174.601 154.187 160.76 140.346 143.686 140.346Z" fill="#D3DCFB"/>
<path d="M143.686 176.882C146.791 176.882 149.307 174.365 149.307 171.261C149.307 168.156 146.791 165.64 143.686 165.64C140.582 165.64 138.065 168.156 138.065 171.261C138.065 174.365 140.582 176.882 143.686 176.882Z" fill="#FFDD40"/>
</g>
</g>
<defs>
<clipPath id="clip0_16_2308">
<rect width="168.626" height="168.626" fill="white" transform="translate(22.8348 44.7913)"/>
</clipPath>
</defs>
</svg>
