<svg width="10" height="4" viewBox="0 0 10 4" fill="none" xmlns="http://www.w3.org/2000/svg">
<path d="M7.18644 3.54556H0.473784C0.386467 3.54557 0.300851 3.52146 0.226381 3.47587C0.151911 3.43028 0.0914892 3.36498 0.0517931 3.28721C0.012097 3.20944 -0.00534204 3.12221 0.00142376 3.03516C0.00818956 2.9481 0.0389 2.86461 0.0901356 2.7939L1.73958 0.54417C1.86186 0.375581 2.02236 0.238369 2.20791 0.14378C2.39346 0.0491924 2.59877 -8.47253e-05 2.80704 1.09352e-07H9.52753C9.61474 0.000225427 9.70019 0.0245156 9.77447 0.0702018C9.84876 0.115888 9.90898 0.181207 9.94852 0.258935C9.98806 0.336663 10.0054 0.423795 9.99856 0.510734C9.99174 0.597674 9.96106 0.681038 9.90989 0.751653L8.2539 3.004C8.13119 3.17195 7.97056 3.30854 7.78506 3.40265C7.59956 3.49676 7.39445 3.54573 7.18644 3.54556Z" fill="#AA7EFA"/>
</svg>
