<svg width="12" height="25" viewBox="0 0 12 25" fill="none" xmlns="http://www.w3.org/2000/svg">
<path d="M5.14111 24.9999C5.03581 24.9997 4.93336 24.9656 4.84885 24.9028C4.76435 24.84 4.70226 24.7517 4.67172 24.6509C4.11139 22.7942 3.93445 21.0985 4.12368 19.6767C1.46703 18.7158 0.265272 16.359 0.823144 13.1764C0.970439 12.2627 1.29387 11.3863 1.77546 10.596C0.818229 9.71737 0.232095 8.64095 0.0551484 7.54486C-0.340523 5.04795 1.32326 1.57661 7.31363 0.00743939C7.43537 -0.0139858 7.56073 0.0112565 7.6647 0.0781265C7.76867 0.144997 7.84362 0.248587 7.87462 0.368255C7.90563 0.487923 7.8904 0.614879 7.83198 0.723821C7.77355 0.832762 7.67622 0.915688 7.55939 0.956072C2.20307 2.35935 0.689204 5.29986 1.02098 7.39126C1.15737 8.25142 1.61448 9.10543 2.36281 9.81567C3.51911 8.55247 5.21238 7.95405 7.27799 8.15435C9.3866 8.35833 11.7176 9.53428 11.6906 10.8958C11.6771 11.5876 11.0897 12.4453 8.36179 12.6026C5.92386 12.7439 3.95657 12.1627 2.54346 11.2054C2.16105 11.8669 1.90441 12.5935 1.78651 13.3485C1.20038 16.6859 2.78184 18.1051 4.31906 18.706C4.63117 17.6001 5.20993 16.7154 6.03937 16.1255C7.37384 15.1818 9.13838 15.2334 10.5355 16.257C11.7643 17.154 11.4768 18.0461 11.2986 18.3877C10.5785 19.7738 7.57168 20.4681 5.06125 19.9458C4.9224 21.1955 5.0981 22.7045 5.60191 24.3695C5.62084 24.4314 5.62738 24.4964 5.62112 24.5608C5.61487 24.6252 5.59596 24.6878 5.56548 24.7448C5.53499 24.8019 5.49355 24.8524 5.4435 24.8935C5.39345 24.9345 5.33579 24.9652 5.27383 24.9839C5.23058 24.9955 5.18588 25.0009 5.14111 24.9999ZM5.25294 18.9788C7.54218 19.4703 10.0071 18.7576 10.4385 17.9282C10.4888 17.8323 10.6412 17.5374 9.96413 17.0398C8.89753 16.2582 7.61346 16.2115 6.61445 16.9169C5.96073 17.39 5.50484 18.0891 5.25294 18.9874V18.9788ZM3.13942 10.4215C4.3805 11.2448 6.12784 11.7449 8.30772 11.6183C10.2738 11.504 10.71 11.0396 10.7137 10.87C10.7235 10.3785 9.27478 9.32538 7.18583 9.12386C6.25071 9.03416 4.43825 9.07348 3.13942 10.4252V10.4215Z" fill="#FAA75F"/>
</svg>
