<svg width="56" height="38" viewBox="0 0 56 38" fill="none" xmlns="http://www.w3.org/2000/svg">
<path d="M27.881 37.5113H1.82867C1.49114 37.5092 1.1607 37.4143 0.873488 37.237C0.586278 37.0597 0.35337 36.8068 0.200247 36.506C0.0471237 36.2052 -0.020314 35.8681 0.00531152 35.5316C0.0309371 35.195 0.148633 34.872 0.345533 34.5978L23.9861 2.10632C24.4609 1.45383 25.0832 0.922876 25.8023 0.556811C26.5214 0.190746 27.317 -5.74592e-05 28.1239 1.29796e-08H54.1713C54.5089 0.00209911 54.8393 0.0970021 55.1265 0.27431C55.4137 0.451618 55.6466 0.704508 55.7997 1.00531C55.9529 1.30611 56.0203 1.64323 55.9947 1.97978C55.9691 2.31634 55.8514 2.63936 55.6545 2.91351L32.0139 35.4038C31.5398 36.0559 30.9182 36.5866 30.2 36.9529C29.4818 37.3191 28.6872 37.5105 27.881 37.5113Z" fill="#643F7D"/>
</svg>
