<svg width="34" height="22" viewBox="0 0 34 22" fill="none" xmlns="http://www.w3.org/2000/svg">
<path d="M1.03448 4.46079C1.43047 3.10594 2.19634 1.88729 3.24672 0.940655C3.7776 0.478197 4.42662 0.171187 5.12187 0.0536416C5.81712 -0.0639041 6.53147 0.0125941 7.18576 0.274675C7.49989 0.424505 7.7804 0.636007 8.01048 0.896487C8.24057 1.15697 8.41548 1.46106 8.52472 1.79053C8.63396 2.12 8.67527 2.46806 8.6462 2.81383C8.61713 3.1596 8.51826 3.49597 8.35552 3.80274C9.95732 2.73972 11.7961 2.08371 13.711 1.89204C14.3118 1.78069 14.929 1.79361 15.5245 1.93C16.12 2.06639 16.681 2.32333 17.1726 2.68486C18.0798 3.47768 18.2071 5.19811 17.1726 5.85615C20.1285 4.098 23.6005 3.40393 27.0083 3.88995C28.1015 3.97769 29.1396 4.40469 29.9765 5.11089C30.3252 5.50722 30.5741 5.98071 30.7023 6.49205C30.8306 7.0034 30.8346 7.53785 30.714 8.05103C30.5934 8.56422 30.3516 9.04135 30.0089 9.44282C29.6661 9.84428 29.2321 10.1585 28.743 10.3594C29.7233 10.2282 30.72 10.4125 31.5876 10.8856C32.4553 11.3586 33.1485 12.0954 33.5661 12.9887C33.9838 13.8819 34.1039 14.8848 33.9091 15.8509C33.7143 16.817 33.2147 17.6957 32.4831 18.359C31.1781 19.5323 29.3558 19.8732 27.629 20.1666L23.6501 20.8326C21.7534 21.1995 19.8381 21.4642 17.9127 21.6254C14.755 21.8173 11.5879 21.4578 8.55447 20.563C6.36177 19.9961 4.33366 18.9234 2.63397 17.4313C-0.771904 14.1173 -0.374023 8.59932 1.03448 4.46079Z" fill="#171C27"/>
</svg>
