<svg width="36" height="51" viewBox="0 0 36 51" fill="none" xmlns="http://www.w3.org/2000/svg">
<path d="M35.5437 4.65601C34.9674 2.94264 33.7326 1.52693 32.1101 0.719387C30.4875 -0.0881562 28.6097 -0.221608 26.8886 0.348318C26.2532 0.556755 11.1823 5.6596 2.39547 16.4057C1.58068 17.4007 1.06492 18.605 0.907745 19.8796C0.822511 20.5512 -1.09138 36.5082 0.907745 50.3963C3.17649 51.0143 5.54872 51.1598 7.87642 50.8237C10.2041 50.4877 12.4373 49.6773 14.4367 48.4431C13.0729 39.0481 13.8401 28.0472 14.2507 23.5774C20.7053 16.8611 31.0961 13.3023 31.2045 13.2714C32.9265 12.702 34.3511 11.4746 35.1648 9.85893C35.9785 8.24328 36.1148 6.37177 35.5437 4.65601Z" fill="#7298E2"/>
</svg>
