<svg width="2" height="2" viewBox="0 0 2 2" fill="none" xmlns="http://www.w3.org/2000/svg">
<path d="M0.999994 0C1.19778 0 1.39112 0.0586301 1.55557 0.168512C1.72002 0.278393 1.84819 0.434578 1.92388 0.617304C1.99956 0.80003 2.01937 1.0011 1.98079 1.19508C1.9422 1.38906 1.84696 1.56725 1.7071 1.7071C1.56725 1.84696 1.38908 1.9422 1.1951 1.98079C1.00112 2.01937 0.800051 1.99956 0.617325 1.92388C0.434599 1.84819 0.278414 1.72002 0.168533 1.55557C0.0586511 1.39112 0 1.19778 0 0.999994C0.000453513 0.734916 0.10595 0.480826 0.293388 0.293388C0.480826 0.10595 0.734916 0.000453513 0.999994 0Z" fill="#A1529C"/>
</svg>
