<svg width="25" height="24" viewBox="0 0 25 24" fill="none" xmlns="http://www.w3.org/2000/svg">
<path d="M12.375 2.24983C6.83091 2.24983 2.32033 6.62374 2.32033 11.9998C2.32033 17.3759 6.83091 21.7498 12.375 21.7498C17.9191 21.7498 22.4297 17.3759 22.4297 11.9998C22.4297 6.62374 17.9191 2.24983 12.375 2.24983ZM13.9219 16.4998H10.8281C10.623 16.4998 10.4263 16.4208 10.2812 16.2802C10.1362 16.1395 10.0547 15.9487 10.0547 15.7498C10.0547 15.5509 10.1362 15.3601 10.2812 15.2195C10.4263 15.0788 10.623 14.9998 10.8281 14.9998H13.9219C14.127 14.9998 14.3237 15.0788 14.4688 15.2195C14.6138 15.3601 14.6953 15.5509 14.6953 15.7498C14.6953 15.9487 14.6138 16.1395 14.4688 16.2802C14.3237 16.4208 14.127 16.4998 13.9219 16.4998ZM16.2422 13.4998H8.50782C8.30269 13.4998 8.10597 13.4208 7.96092 13.2802C7.81587 13.1395 7.73439 12.9487 7.73439 12.7498C7.73439 12.5509 7.81587 12.3601 7.96092 12.2195C8.10597 12.0788 8.30269 11.9998 8.50782 11.9998H16.2422C16.4473 11.9998 16.644 12.0788 16.7891 12.2195C16.9341 12.3601 17.0156 12.5509 17.0156 12.7498C17.0156 12.9487 16.9341 13.1395 16.7891 13.2802C16.644 13.4208 16.4473 13.4998 16.2422 13.4998ZM17.7891 10.4998H6.96095C6.75582 10.4998 6.55909 10.4208 6.41405 10.2802C6.269 10.1395 6.18751 9.94874 6.18751 9.74983C6.18751 9.55092 6.269 9.36015 6.41405 9.2195C6.55909 9.07885 6.75582 8.99983 6.96095 8.99983H17.7891C17.9942 8.99983 18.1909 9.07885 18.336 9.2195C18.481 9.36015 18.5625 9.55092 18.5625 9.74983C18.5625 9.94874 18.481 10.1395 18.336 10.2802C18.1909 10.4208 17.9942 10.4998 17.7891 10.4998Z" fill="white"/>
</svg>
