<svg width="139" height="47" viewBox="0 0 139 47" fill="none" xmlns="http://www.w3.org/2000/svg">
<path fill-rule="evenodd" clip-rule="evenodd" d="M0 16.0676C0 10.4434 0 7.63134 1.09454 5.48318C2.05733 3.5936 3.5936 2.05733 5.48318 1.09454C7.63134 0 10.4434 0 16.0676 0H122.932C128.557 0 131.369 0 133.517 1.09454C135.406 2.05733 136.943 3.5936 137.905 5.48318C139 7.63134 139 10.4434 139 16.0676V30.2657C139 35.8899 139 38.702 137.905 40.8501C136.943 42.7397 135.406 44.276 133.517 45.2388C131.369 46.3333 128.557 46.3333 122.932 46.3333H16.0677C10.4434 46.3333 7.63134 46.3333 5.48318 45.2388C3.5936 44.276 2.05733 42.7397 1.09454 40.8501C0 38.702 0 35.8899 0 30.2657V16.0676Z" fill="#9E1E63"/>
</svg>
