<svg width="8" height="5" viewBox="0 0 8 5" fill="none" xmlns="http://www.w3.org/2000/svg">
<g style="mix-blend-mode:multiply">
<path d="M7.30428 4.97351L7.34032 4.99091C7.36931 5.00265 7.40165 5.00303 7.43091 4.99198C7.46016 4.98092 7.48418 4.95924 7.49816 4.93126C7.50514 4.91707 7.50912 4.90159 7.50987 4.8858C7.51063 4.87 7.50814 4.85422 7.50254 4.83942C7.49695 4.82462 7.48838 4.81113 7.47736 4.79978C7.46634 4.78843 7.45311 4.77946 7.43849 4.77343C7.39997 4.75727 3.59333 3.03354 0.230365 0.0595686C0.220246 0.042981 0.206377 0.0289866 0.189874 0.0187292C0.173372 0.0084718 0.154704 0.00222542 0.135351 0.000494051C0.115998 -0.00123732 0.0965068 0.00159678 0.0784458 0.00876206C0.0603848 0.0159273 0.0442586 0.0272302 0.0313561 0.0417583C0.0184535 0.0562863 0.00913712 0.0736323 0.00415505 0.0924131C-0.000827016 0.111194 -0.0013366 0.130882 0.00266833 0.149895C0.00667325 0.168908 0.0150799 0.186724 0.0272145 0.2019C0.039349 0.217075 0.0548778 0.229189 0.0725444 0.237278C3.28638 3.082 6.90162 4.78834 7.30428 4.97351Z" fill="#E0B3A8"/>
</g>
</svg>
