<svg width="21" height="18" viewBox="0 0 21 18" fill="none" xmlns="http://www.w3.org/2000/svg">
<path d="M6.59156 17.64C4.16531 17.64 1.90363 16.9184 0 15.6732C1.61625 15.7802 4.46856 15.5241 6.24269 13.7936C3.57381 13.6683 2.3702 11.5751 2.21321 10.6806C2.43997 10.7701 3.52148 10.8774 4.13201 10.6269C1.06192 9.83977 0.590946 7.08463 0.695608 6.24378C1.27125 6.65526 2.24809 6.79838 2.63185 6.7626C-0.228905 4.66942 0.80027 1.52069 1.30614 0.840853C3.35912 3.7494 6.43591 5.38294 10.2423 5.47381C10.1705 5.15193 10.1326 4.81681 10.1326 4.47262C10.1326 2.00246 12.0851 0 14.4935 0C15.7519 0 16.8858 0.546652 17.6818 1.42105C18.5227 1.21954 19.7882 0.747835 20.4069 0.339919C20.0951 1.48491 19.1242 2.44007 18.5369 2.79408C18.5418 2.80613 18.5322 2.78199 18.5369 2.79408C19.0528 2.71429 20.4486 2.43997 21 2.05741C20.7273 2.70065 19.698 3.77015 18.8533 4.36891C19.0105 11.4569 13.7074 17.64 6.59156 17.64Z" fill="white"/>
</svg>
