<svg width="3" height="3" viewBox="0 0 3 3" fill="none" xmlns="http://www.w3.org/2000/svg">
<path d="M2.99998 1.49444C2.99998 1.79001 2.912 2.07895 2.74718 2.32471C2.58236 2.57047 2.3481 2.76202 2.07401 2.87513C1.79992 2.98824 1.49833 3.01783 1.20736 2.96017C0.916396 2.9025 0.649109 2.76017 0.439332 2.55117C0.229555 2.34217 0.0867019 2.07589 0.0288246 1.78599C-0.0290528 1.4961 0.000644107 1.19562 0.114175 0.922542C0.227705 0.649469 0.419975 0.41607 0.666647 0.251859C0.913319 0.0876481 1.20331 0 1.49998 0C1.8978 0 2.27935 0.157452 2.56065 0.437714C2.84195 0.717976 2.99998 1.09809 2.99998 1.49444Z" fill="#31354F"/>
</svg>
