<svg width="3" height="2" viewBox="0 0 3 2" fill="none" xmlns="http://www.w3.org/2000/svg">
<g style="mix-blend-mode:multiply">
<path d="M2.08352 1.99998C1.81523 1.99825 1.55075 1.93631 1.3096 1.81872C0.994528 1.6575 0.716214 1.43283 0.492155 1.15886C0.268096 0.884893 0.103135 0.567532 0.0076384 0.226735C0.000911151 0.204691 -0.00140349 0.181534 0.000817474 0.158593C0.00303844 0.135652 0.00975651 0.113375 0.0205876 0.0930298C0.0314186 0.072685 0.0461452 0.0546722 0.0639375 0.0400209C0.0817297 0.0253696 0.102232 0.0143656 0.124277 0.0076384C0.146322 0.000911151 0.169478 -0.00140349 0.192419 0.000817474C0.21536 0.00303844 0.237638 0.00975651 0.257983 0.0205876C0.278327 0.0314186 0.29634 0.0461452 0.310991 0.0639375C0.325643 0.0817297 0.336647 0.102242 0.343374 0.124287C0.424726 0.418278 0.565806 0.69234 0.757815 0.929367C0.949823 1.16639 1.18864 1.3613 1.45934 1.5019C1.62706 1.58715 1.81081 1.63624 1.99869 1.64602C2.18658 1.65579 2.37442 1.62603 2.55008 1.55864C2.5714 1.5499 2.59423 1.54545 2.61727 1.54555C2.64031 1.54565 2.6631 1.55031 2.68434 1.55924C2.70557 1.56817 2.72483 1.58122 2.74101 1.59762C2.75719 1.61401 2.76998 1.63344 2.77864 1.65479C2.79592 1.6981 2.79554 1.74647 2.77756 1.7895C2.75958 1.83252 2.72545 1.86679 2.68249 1.88492C2.49215 1.96164 2.28873 2.00071 2.08352 1.99998Z" fill="#E0B3A8"/>
</g>
</svg>
