<svg width="7" height="6" viewBox="0 0 7 6" fill="none" xmlns="http://www.w3.org/2000/svg">
<g style="mix-blend-mode:screen">
<path d="M4.92547 5.38489C4.57553 5.38479 4.23134 5.296 3.92502 5.12682C3.09395 4.66721 2.21821 4.29347 1.31136 4.0114C0.824521 3.81794 0.428644 3.44783 0.202914 2.97508C-0.0228153 2.50233 -0.061764 1.9618 0.0938521 1.46157C0.249468 0.961343 0.588179 0.538298 1.04225 0.277031C1.49633 0.0157646 2.03229 -0.0644651 2.54297 0.0523899C3.7182 0.418559 4.85329 0.902918 5.93083 1.49804C6.33302 1.72064 6.64981 2.07061 6.83139 2.49291C7.01298 2.91522 7.04906 3.3859 6.93395 3.83094C6.81883 4.27598 6.55906 4.67014 6.19549 4.95144C5.83191 5.23273 5.38516 5.38521 4.92547 5.38489Z" fill="#3D2D2B"/>
</g>
</svg>
