<svg width="4" height="2" viewBox="0 0 4 2" fill="none" xmlns="http://www.w3.org/2000/svg">
<path d="M2.01158 1.13413C1.35995 1.12058 0.71747 0.978054 0.121243 0.714776C0.0972886 0.704717 0.0755527 0.690042 0.0572709 0.671581C0.0389891 0.653121 0.0245195 0.63124 0.0146939 0.607189C0.00486833 0.583137 -0.000124142 0.557382 2.34458e-06 0.531401C0.000128831 0.50542 0.00537157 0.479719 0.0154309 0.455764C0.0254902 0.431809 0.0401653 0.410073 0.058626 0.391792C0.0770866 0.37351 0.0989748 0.35904 0.123026 0.349215C0.147078 0.339389 0.172825 0.334397 0.198806 0.334523C0.224787 0.33465 0.250488 0.339892 0.274443 0.349952C1.71427 0.95756 3.00868 0.851097 3.65005 0.0721116C3.6665 0.0520783 3.68674 0.0354866 3.70961 0.0232744C3.73247 0.0110623 3.75752 0.00347564 3.78332 0.000943895C3.80912 -0.00158785 3.83516 0.000985402 3.85997 0.00851948C3.88477 0.0160536 3.90785 0.0283993 3.92789 0.0448522C3.94792 0.0613051 3.96451 0.0815439 3.97672 0.104411C3.98894 0.127278 3.99653 0.152323 3.99906 0.178122C4.00159 0.203922 3.99902 0.229969 3.99149 0.254774C3.98395 0.279578 3.9716 0.302651 3.95515 0.322684C3.50853 0.860184 2.82303 1.13413 2.01158 1.13413Z" fill="#FA6646"/>
</svg>
