<svg width="13" height="17" viewBox="0 0 13 17" fill="none" xmlns="http://www.w3.org/2000/svg">
<path d="M2.12086 16.7048C1.58093 16.7048 0.899306 16.5033 0.0747588 15.8888C0.055188 15.8743 0.0386867 15.8559 0.026192 15.835C0.0136973 15.814 0.00545475 15.7908 0.00193837 15.7666C-0.00157801 15.7424 -0.000301202 15.7178 0.00569607 15.6941C0.0116934 15.6705 0.0222931 15.6482 0.036891 15.6287C0.0514889 15.6091 0.0698051 15.5926 0.0907812 15.5801C0.111757 15.5676 0.134982 15.5594 0.159143 15.5558C0.183304 15.5523 0.207923 15.5536 0.231591 15.5596C0.255258 15.5656 0.277511 15.5762 0.297082 15.5908C1.27432 16.3237 2.15873 16.5155 2.85624 16.16C3.77606 15.6897 4.28912 14.302 4.26347 12.3512C4.22071 9.05304 5.72933 8.80873 8.2274 8.39584C8.67571 8.32133 9.13868 8.24559 9.64562 8.15153C10.9686 7.89012 11.9373 7.11566 12.3746 5.96984C12.9927 4.34885 12.4967 2.2319 11.0309 0.306731C11.0143 0.287499 11.0019 0.265084 10.9944 0.240867C10.9868 0.21665 10.9843 0.191141 10.987 0.165922C10.9897 0.140702 10.9976 0.116301 11.0101 0.0942271C11.0225 0.072153 11.0394 0.0528764 11.0597 0.0375782C11.0799 0.02228 11.103 0.0112861 11.1277 0.00527985C11.1523 -0.000726412 11.1779 -0.0016181 11.2029 0.00265542C11.2279 0.00692895 11.2518 0.0162794 11.273 0.0301299C11.2943 0.0439804 11.3125 0.0620357 11.3265 0.0831851C12.8607 2.10974 13.3811 4.35862 12.7166 6.10177C12.228 7.37219 11.1652 8.22972 9.71281 8.51556C9.19976 8.61695 8.71235 8.69757 8.28359 8.76842C5.74765 9.18497 4.59084 9.3792 4.62993 12.3525C4.65803 14.4499 4.07046 15.9609 3.01993 16.4972C2.74092 16.6366 2.43276 16.7078 2.12086 16.7048Z" fill="#2B1710"/>
</svg>
