<svg width="375" height="60" viewBox="0 0 375 60" fill="none" xmlns="http://www.w3.org/2000/svg">
<rect width="375" height="60" fill="#10283C"/>
<rect x="28.1196" y="10.6196" width="268.761" height="38.7609" rx="4.38043" fill="white" stroke="#F0F0F0" stroke-width="1.23913"/>
<path opacity="0.7" d="M43.552 35.112C43.328 35.112 43.062 35.0933 42.754 35.056C42.4553 35.0187 42.1613 34.958 41.872 34.874C41.5827 34.79 41.3447 34.678 41.158 34.538C41.0647 34.4633 40.99 34.3747 40.934 34.272C40.8873 34.16 40.864 33.9827 40.864 33.74C40.864 33.3947 40.8827 33.1427 40.92 32.984C40.9573 32.816 41.004 32.7087 41.06 32.662C41.1253 32.606 41.1813 32.578 41.228 32.578C41.284 32.578 41.368 32.6153 41.48 32.69C41.6013 32.7553 41.746 32.83 41.914 32.914C42.1007 33.0073 42.3153 33.0913 42.558 33.166C42.8007 33.2407 43.076 33.278 43.384 33.278C43.5893 33.278 43.7993 33.25 44.014 33.194C44.2287 33.138 44.4107 33.0307 44.56 32.872C44.7187 32.7133 44.798 32.4893 44.798 32.2C44.798 31.9853 44.728 31.8033 44.588 31.654C44.4573 31.4953 44.2847 31.3553 44.07 31.234C43.8553 31.1033 43.6173 30.9773 43.356 30.856C43.02 30.688 42.684 30.506 42.348 30.31C42.0213 30.1047 41.746 29.8433 41.522 29.526C41.298 29.2087 41.186 28.8027 41.186 28.308C41.186 27.692 41.2933 27.1787 41.508 26.768C41.7227 26.348 42.0073 26.0167 42.362 25.774C42.7167 25.5313 43.1087 25.3587 43.538 25.256C43.9673 25.144 44.3967 25.088 44.826 25.088C45.3487 25.088 45.7967 25.144 46.17 25.256C46.5527 25.3587 46.8327 25.4893 47.01 25.648C47.1687 25.7787 47.248 25.9093 47.248 26.04C47.248 26.1613 47.1967 26.32 47.094 26.516C46.9913 26.712 46.87 26.8893 46.73 27.048C46.59 27.2067 46.464 27.286 46.352 27.286C46.3147 27.286 46.2633 27.272 46.198 27.244C46.142 27.216 46.0673 27.1833 45.974 27.146C45.8527 27.0993 45.6987 27.0527 45.512 27.006C45.3253 26.9593 45.0967 26.936 44.826 26.936C44.4247 26.936 44.1213 26.9873 43.916 27.09C43.72 27.1927 43.5893 27.314 43.524 27.454C43.468 27.594 43.44 27.7153 43.44 27.818C43.44 28.042 43.5053 28.2287 43.636 28.378C43.7667 28.5273 43.9393 28.658 44.154 28.77C44.378 28.882 44.6207 28.9987 44.882 29.12C45.302 29.3067 45.6753 29.5307 46.002 29.792C46.3287 30.044 46.5853 30.338 46.772 30.674C46.9587 31.0007 47.052 31.3787 47.052 31.808C47.052 32.4613 46.9447 33.0027 46.73 33.432C46.5153 33.8613 46.2307 34.1973 45.876 34.44C45.5307 34.6827 45.1527 34.8553 44.742 34.958C44.3407 35.0607 43.944 35.112 43.552 35.112ZM51.812 27.566C52.3813 27.566 52.8433 27.636 53.198 27.776C53.562 27.916 53.8373 28.0933 54.024 28.308C54.22 28.5227 54.3507 28.7467 54.416 28.98C54.4907 29.204 54.528 29.4093 54.528 29.596C54.528 30.0627 54.4347 30.4593 54.248 30.786C54.0707 31.1127 53.8327 31.3787 53.534 31.584C53.2447 31.78 52.9227 31.9247 52.568 32.018C52.2133 32.1113 51.8633 32.158 51.518 32.158C51.0793 32.158 50.7107 32.1393 50.412 32.102C50.1227 32.0647 49.8427 32.0227 49.572 31.976L50.062 31.276V31.85C50.062 32.2887 50.1227 32.6293 50.244 32.872C50.3747 33.1053 50.5473 33.264 50.762 33.348C50.986 33.432 51.2427 33.474 51.532 33.474C51.9053 33.474 52.246 33.4227 52.554 33.32C52.862 33.2173 53.1187 33.1147 53.324 33.012C53.5293 32.9093 53.6553 32.858 53.702 32.858C53.73 32.858 53.7533 32.8673 53.772 32.886C53.8 32.9047 53.814 32.9607 53.814 33.054C53.814 33.222 53.8047 33.418 53.786 33.642C53.7673 33.8567 53.7393 34.02 53.702 34.132C53.646 34.328 53.5247 34.4913 53.338 34.622C53.1513 34.7433 52.932 34.8413 52.68 34.916C52.4373 34.9813 52.19 35.028 51.938 35.056C51.686 35.0933 51.462 35.112 51.266 35.112C50.6967 35.112 50.202 35.042 49.782 34.902C49.3713 34.7527 49.0307 34.5473 48.76 34.286C48.4893 34.0153 48.2887 33.6933 48.158 33.32C48.0273 32.9373 47.962 32.508 47.962 32.032C47.962 30.9493 48.1393 30.0813 48.494 29.428C48.8487 28.7747 49.3153 28.3033 49.894 28.014C50.482 27.7153 51.1213 27.566 51.812 27.566ZM51.672 29.204C51.2427 29.204 50.9067 29.358 50.664 29.666C50.4307 29.9647 50.2627 30.3333 50.16 30.772H50.832C51.0933 30.772 51.3173 30.7533 51.504 30.716C51.7 30.6787 51.8633 30.632 51.994 30.576C52.1247 30.5107 52.2273 30.4407 52.302 30.366C52.3767 30.282 52.428 30.198 52.456 30.114C52.4933 30.03 52.512 29.946 52.512 29.862C52.512 29.6287 52.4327 29.4607 52.274 29.358C52.1153 29.2553 51.9147 29.204 51.672 29.204ZM57.2954 35.126C56.9594 35.126 56.6514 35.0607 56.3714 34.93C56.0914 34.7993 55.8487 34.608 55.6434 34.356C55.4474 34.0947 55.2934 33.7773 55.1814 33.404C55.0787 33.0213 55.0274 32.5827 55.0274 32.088C55.0274 31.192 55.1581 30.408 55.4194 29.736C55.6807 29.0547 56.0447 28.5273 56.5114 28.154C56.9874 27.7713 57.5287 27.58 58.1354 27.58C58.5367 27.58 58.8821 27.6687 59.1714 27.846C59.4607 28.0233 59.6801 28.182 59.8294 28.322C59.8854 28.154 59.9367 28.0233 59.9834 27.93C60.0301 27.8367 60.1094 27.7713 60.2214 27.734C60.3334 27.6873 60.5061 27.664 60.7394 27.664H60.9074C61.1874 27.664 61.3927 27.6967 61.5234 27.762C61.6634 27.8273 61.7241 27.9347 61.7054 28.084L61.2154 32.942C61.1967 33.138 61.2201 33.278 61.2854 33.362C61.3601 33.4367 61.4721 33.474 61.6214 33.474C61.7241 33.474 61.8081 33.46 61.8734 33.432C61.9481 33.404 61.9994 33.39 62.0274 33.39C62.1021 33.39 62.1394 33.446 62.1394 33.558C62.1394 33.5953 62.1347 33.684 62.1254 33.824C62.1161 33.9547 62.0881 34.1413 62.0414 34.384C61.9947 34.6453 61.8361 34.832 61.5654 34.944C61.3041 35.056 61.0521 35.112 60.8094 35.112C60.3801 35.112 60.0301 35.028 59.7594 34.86C59.4887 34.692 59.3021 34.4213 59.1994 34.048C59.0034 34.356 58.7374 34.6127 58.4014 34.818C58.0747 35.0233 57.7061 35.126 57.2954 35.126ZM58.0794 33.432C58.2287 33.432 58.3687 33.3947 58.4994 33.32C58.6301 33.2453 58.7514 33.1473 58.8634 33.026C58.9754 32.8953 59.0781 32.76 59.1714 32.62L59.3674 30.73C59.3954 30.4407 59.4187 30.2167 59.4374 30.058C59.4654 29.8993 59.4981 29.7453 59.5354 29.596C59.4141 29.4933 59.2787 29.4047 59.1294 29.33C58.9801 29.2553 58.8074 29.218 58.6114 29.218C58.3034 29.218 58.0374 29.3253 57.8134 29.54C57.5894 29.7453 57.4167 30.0533 57.2954 30.464C57.1834 30.8653 57.1274 31.3647 57.1274 31.962C57.1274 32.2793 57.1601 32.55 57.2254 32.774C57.3001 32.9887 57.4074 33.152 57.5474 33.264C57.6874 33.376 57.8647 33.432 58.0794 33.432ZM63.4963 35.028C63.2163 35.028 63.011 34.9813 62.8803 34.888C62.7496 34.7947 62.689 34.6733 62.6983 34.524L63.1743 30.002C63.2023 29.722 63.221 29.484 63.2303 29.288C63.2396 29.092 63.2443 28.9333 63.2443 28.812C63.2443 28.644 63.2396 28.518 63.2303 28.434C63.221 28.3407 63.2163 28.2613 63.2163 28.196C63.235 28.0187 63.361 27.8973 63.5943 27.832C63.837 27.7573 64.2196 27.72 64.7423 27.72C64.9476 27.72 65.0876 27.8133 65.1623 28C65.237 28.1773 65.279 28.378 65.2883 28.602C65.4656 28.35 65.6803 28.1167 65.9323 27.902C66.1936 27.678 66.5203 27.566 66.9123 27.566C67.1176 27.566 67.267 27.608 67.3603 27.692C67.4536 27.7667 67.5096 27.8553 67.5283 27.958C67.5563 28.0513 67.5703 28.1353 67.5703 28.21C67.5703 28.3593 67.5376 28.5367 67.4723 28.742C67.407 28.9473 67.3276 29.1293 67.2343 29.288C67.1503 29.4373 67.0756 29.512 67.0103 29.512C66.945 29.512 66.875 29.4933 66.8003 29.456C66.7256 29.4093 66.6043 29.386 66.4363 29.386C66.2216 29.386 66.007 29.4513 65.7923 29.582C65.5776 29.7033 65.3863 29.876 65.2183 30.1L64.7703 34.552C64.7423 34.8693 64.4483 35.028 63.8883 35.028H63.4963ZM70.8138 35.112C69.7405 35.112 68.9425 34.8647 68.4198 34.37C67.8972 33.8753 67.6358 33.1287 67.6358 32.13C67.6358 30.646 67.9812 29.5167 68.6718 28.742C69.3625 27.958 70.3658 27.566 71.6818 27.566C71.9618 27.566 72.2605 27.6033 72.5778 27.678C72.9045 27.7433 73.1845 27.846 73.4178 27.986C73.6512 28.1167 73.7678 28.2847 73.7678 28.49C73.7678 28.5833 73.7118 28.7233 73.5998 28.91C73.4878 29.0873 73.3618 29.2507 73.2218 29.4C73.0912 29.54 72.9838 29.61 72.8998 29.61C72.8905 29.61 72.8672 29.6053 72.8298 29.596C72.8018 29.5867 72.7365 29.554 72.6338 29.498C72.5312 29.442 72.4005 29.3813 72.2418 29.316C72.0832 29.2413 71.8732 29.204 71.6118 29.204C71.0145 29.204 70.5572 29.4327 70.2398 29.89C69.9318 30.3473 69.7778 31.0193 69.7778 31.906C69.7778 32.4287 69.8805 32.8207 70.0858 33.082C70.2912 33.3433 70.6225 33.474 71.0798 33.474C71.3692 33.474 71.6118 33.4367 71.8078 33.362C72.0038 33.2873 72.1858 33.2173 72.3538 33.152C72.4098 33.1333 72.4565 33.1147 72.4938 33.096C72.5405 33.0773 72.5778 33.068 72.6058 33.068C72.7085 33.068 72.8065 33.1333 72.8998 33.264C72.9932 33.3853 73.0678 33.53 73.1238 33.698C73.1892 33.8567 73.2218 33.9873 73.2218 34.09C73.2218 34.2953 73.1192 34.4633 72.9138 34.594C72.7085 34.7247 72.4612 34.8273 72.1718 34.902C71.8918 34.9767 71.6212 35.028 71.3598 35.056C71.1078 35.0933 70.9258 35.112 70.8138 35.112ZM80.1568 35.112C79.6154 35.112 79.1814 34.9673 78.8548 34.678C78.5374 34.3887 78.4114 33.894 78.4768 33.194L78.7708 30.114C78.7988 29.8153 78.7474 29.6007 78.6168 29.47C78.4954 29.3393 78.2994 29.274 78.0288 29.274C77.8514 29.274 77.6881 29.316 77.5388 29.4C77.3894 29.4747 77.2541 29.5727 77.1328 29.694C77.0208 29.8153 76.9181 29.9413 76.8248 30.072L76.3488 34.58C76.3208 34.8787 76.0268 35.028 75.4668 35.028H75.0748C74.7948 35.028 74.5894 34.986 74.4588 34.902C74.3281 34.8087 74.2674 34.706 74.2768 34.594L75.2988 24.892C75.3268 24.5933 75.6208 24.444 76.1808 24.444H76.5728C76.8528 24.444 77.0581 24.4907 77.1888 24.584C77.3288 24.668 77.3894 24.766 77.3708 24.878L76.9928 28.518C77.2354 28.266 77.5388 28.0467 77.9028 27.86C78.2761 27.664 78.6588 27.566 79.0508 27.566C79.6761 27.566 80.1521 27.7247 80.4788 28.042C80.8148 28.35 80.9454 28.8773 80.8708 29.624L80.5628 32.942C80.5441 33.138 80.5674 33.278 80.6328 33.362C80.7074 33.4367 80.8194 33.474 80.9688 33.474C81.0714 33.474 81.1554 33.46 81.2208 33.432C81.2954 33.404 81.3468 33.39 81.3748 33.39C81.4494 33.39 81.4868 33.446 81.4868 33.558C81.4868 33.5953 81.4821 33.684 81.4728 33.824C81.4634 33.9547 81.4354 34.1413 81.3888 34.384C81.3421 34.6453 81.1834 34.832 80.9128 34.944C80.6514 35.056 80.3994 35.112 80.1568 35.112Z" fill="#8193AE"/>
<circle cx="272.25" cy="28.75" r="8.75001" stroke="#9E1E63" stroke-width="2" stroke-linecap="round" stroke-linejoin="round"/>
<path d="M283.5 39.9999L279.312 35.8124" stroke="#9E1E63" stroke-width="2" stroke-linecap="round" stroke-linejoin="round"/>
<g filter="url(#filter0_d_16_4062)">
<rect x="307.5" y="10" width="40" height="40" rx="12" fill="white"/>
<rect x="308" y="10.5" width="39" height="39" rx="11.5" stroke="#EEEEEE"/>
</g>
<path d="M334.845 29.2274C334.641 27.4018 333.823 25.6999 332.526 24.401C331.228 23.1021 329.528 22.2835 327.704 22.0796V21.1254C327.704 20.6303 327.299 20.2252 326.805 20.2252C326.31 20.2252 325.905 20.6303 325.905 21.1254V22.0796C324.082 22.2835 322.381 23.1021 321.084 24.401C319.786 25.6999 318.968 27.4018 318.765 29.2274H317.811C317.317 29.2274 316.912 29.6325 316.912 30.1276C316.912 30.6227 317.317 31.0278 317.811 31.0278H318.765C318.968 32.8534 319.786 34.5553 321.084 35.8542C322.381 37.1531 324.082 37.9717 325.905 38.1756V39.1298C325.905 39.6249 326.31 40.03 326.805 40.03C327.299 40.03 327.704 39.6249 327.704 39.1298V38.1756C329.528 37.9717 331.228 37.1531 332.526 35.8542C333.823 34.5553 334.641 32.8534 334.845 31.0278H335.798C336.293 31.0278 336.697 30.6227 336.697 30.1276C336.697 29.6325 336.293 29.2274 335.798 29.2274H334.845ZM326.805 36.4292C323.324 36.4292 320.509 33.6115 320.509 30.1276C320.509 26.6437 323.324 23.826 326.805 23.826C330.285 23.826 333.1 26.6437 333.1 30.1276C333.1 33.6115 330.285 36.4292 326.805 36.4292Z" fill="#5669FF"/>
<circle cx="327.108" cy="30.3921" r="3.13725" fill="#A7B1FE"/>
<defs>
<filter id="filter0_d_16_4062" x="247.5" y="-10" width="160" height="160" filterUnits="userSpaceOnUse" color-interpolation-filters="sRGB">
<feFlood flood-opacity="0" result="BackgroundImageFix"/>
<feColorMatrix in="SourceAlpha" type="matrix" values="0 0 0 0 0 0 0 0 0 0 0 0 0 0 0 0 0 0 127 0" result="hardAlpha"/>
<feOffset dy="40"/>
<feGaussianBlur stdDeviation="30"/>
<feColorMatrix type="matrix" values="0 0 0 0 0.827451 0 0 0 0 0.819608 0 0 0 0 0.847059 0 0 0 0.5 0"/>
<feBlend mode="normal" in2="BackgroundImageFix" result="effect1_dropShadow_16_4062"/>
<feBlend mode="normal" in="SourceGraphic" in2="effect1_dropShadow_16_4062" result="shape"/>
</filter>
</defs>
</svg>
