<svg width="29" height="18" viewBox="0 0 29 18" fill="none" xmlns="http://www.w3.org/2000/svg">
<path d="M25.4471 0H3.55296C2.61129 0.00207792 1.70879 0.375689 1.04293 1.03908C0.377072 1.70248 0.00208564 2.60163 0 3.53981V10.2261C0.00208564 11.1643 0.377072 12.0635 1.04293 12.7269C1.70879 13.3903 2.61129 13.7639 3.55296 13.7659H5.7163L4.92676 17.9665L10.0509 13.7659H25.4471C26.3887 13.7639 27.2912 13.3903 27.9571 12.7269C28.6229 12.0635 28.9979 11.1643 29 10.2261V3.53981C28.9979 2.60163 28.6229 1.70248 27.9571 1.03908C27.2912 0.375689 26.3887 0.00207792 25.4471 0Z" fill="white"/>
</svg>
