<svg width="89" height="95" viewBox="0 0 89 95" fill="none" xmlns="http://www.w3.org/2000/svg">
<g filter="url(#filter0_d_16_4227)">
<path fill-rule="evenodd" clip-rule="evenodd" d="M20.1906 5.04765C14.6151 5.04765 10.0953 9.56746 10.0953 15.1429V43.6186C10.0953 49.1941 14.6151 53.7139 20.1906 53.7139H27.4541L32.6199 58.881C33.6056 59.8669 35.2039 59.8669 36.1896 58.881L41.3555 53.7139H48.6189C54.1944 53.7139 58.7142 49.1941 58.7142 43.6186V15.1429C58.7142 9.56746 54.1944 5.04765 48.6189 5.04765H20.1906Z" fill="white"/>
</g>
<rect x="19.4906" y="14.3323" width="30.2859" height="30.2859" rx="8" fill="#39C3F2"/>
<g clip-path="url(#clip0_16_4227)">
<path d="M36.9593 31.8149C38.4019 31.7894 38.7194 29.8048 37.3581 29.3322L35.7863 31.0368C35.9824 31.4986 36.4448 31.8149 36.9593 31.8149Z" fill="white"/>
<path d="M41.6146 29.2394C41.4126 28.027 40.8445 27.0913 39.9626 26.507C39.5518 26.9528 38.4201 28.1798 37.9929 28.6433C38.6801 29.0157 39.1201 29.737 39.1201 30.5417C39.1249 32.4067 36.8743 33.3972 35.5028 32.1378C35.372 32.4271 35.1886 32.6934 34.9575 32.9244C34.0417 33.9173 31.205 34.1573 29.9941 34.122C29.9588 32.9081 30.1997 30.0728 31.1917 29.1586C31.6979 28.6527 32.3582 28.3933 33.023 28.3806C33.7505 27.7075 34.7593 26.7739 35.4838 26.1034C34.4775 26.3686 33.0034 27.0707 32.5538 26.4079C32.3434 25.9113 33.2999 24.7574 32.5452 23.789C31.9267 23.0124 30.5424 23.1583 29.7601 23.71C25.9513 26.3398 25.442 32.1175 28.7671 35.3317C32.8375 39.4335 39.9381 37.5752 41.4981 32.0168C41.5828 31.6669 41.8252 30.5201 41.6146 29.2394Z" fill="white"/>
<path d="M34.9574 29.1586C35.2047 29.4059 35.3973 29.6932 35.5293 30.0059C36.0331 29.4603 38.6931 26.5743 39.1347 26.0957L41.4965 23.5343C41.7544 23.2544 41.7612 22.8402 41.5121 22.5908C41.2625 22.3414 40.8477 22.3485 40.5678 22.6074L37.1138 25.804C36.3639 26.4979 34.8721 27.8789 34.1069 28.587C34.4163 28.7166 34.7059 28.9071 34.9574 29.1586Z" fill="white"/>
<path d="M33.8561 29.447C33.1823 29.1191 32.3657 29.2409 31.8192 29.7855C31.2548 30.2845 30.9343 32.1837 30.9018 33.2137C31.9348 33.1801 33.8294 32.8615 34.3297 32.2963C34.6652 31.9608 34.8498 31.515 34.8498 31.041C34.8498 30.5664 34.6649 30.1206 34.3297 29.7858V29.7855C34.1877 29.6432 34.0274 29.5304 33.8561 29.447Z" fill="white"/>
</g>
<defs>
<filter id="filter0_d_16_4227" x="0" y="0" width="89" height="94.9539" filterUnits="userSpaceOnUse" color-interpolation-filters="sRGB">
<feFlood flood-opacity="0" result="BackgroundImageFix"/>
<feColorMatrix in="SourceAlpha" type="matrix" values="0 0 0 0 0 0 0 0 0 0 0 0 0 0 0 0 0 0 127 0" result="hardAlpha"/>
<feOffset dx="10" dy="15"/>
<feGaussianBlur stdDeviation="10"/>
<feColorMatrix type="matrix" values="0 0 0 0 0.827451 0 0 0 0 0.819608 0 0 0 0 0.847059 0 0 0 0.45 0"/>
<feBlend mode="normal" in2="BackgroundImageFix" result="effect1_dropShadow_16_4227"/>
<feBlend mode="normal" in="SourceGraphic" in2="effect1_dropShadow_16_4227" result="shape"/>
</filter>
<clipPath id="clip0_16_4227">
<rect width="15" height="15" fill="white" transform="translate(26.5573 22.4085) scale(1.00953)"/>
</clipPath>
</defs>
</svg>
