<svg width="22" height="28" viewBox="0 0 22 28" fill="none" xmlns="http://www.w3.org/2000/svg">
<path d="M1.3609e-05 10.945C0.000445273 8.8274 0.617341 6.75535 1.77593 4.97999C2.93452 3.20462 4.58506 1.80215 6.52755 0.942534C8.47004 0.0829196 10.6211 -0.196938 12.72 0.136878C14.8189 0.470695 16.7756 1.40386 18.3529 2.82327C19.9303 4.24269 21.0605 6.08743 21.6068 8.13393C22.153 10.1804 22.0917 12.3409 21.4304 14.3534C20.7691 16.3659 19.5361 18.1441 17.8808 19.4725C16.2256 20.801 14.2191 21.6226 12.1047 21.8378L8.51232 28L7.73137 21.4177C5.4886 20.7243 3.52778 19.3332 2.13641 17.4485C0.745044 15.5638 -0.00368115 13.2846 1.3609e-05 10.945Z" fill="white"/>
</svg>
