<svg width="12" height="25" viewBox="0 0 12 25" fill="none" xmlns="http://www.w3.org/2000/svg">
<path d="M5.13679 24.9998C5.03178 24.9993 4.92969 24.9652 4.84549 24.9024C4.7613 24.8397 4.69944 24.7516 4.66899 24.6511C4.10909 22.7958 3.93229 21.1014 4.12014 19.6808C1.4668 18.7207 0.265987 16.3657 0.823422 13.1856C0.970767 12.2728 1.29349 11.3972 1.77376 10.6072C0.818509 9.72927 0.232834 8.65369 0.0547984 7.55846C-0.339335 5.06351 1.32315 1.59489 7.30882 0.0269465C7.37288 0.00480555 7.44083 -0.00383776 7.50839 0.00156031C7.57595 0.00695838 7.64166 0.0262816 7.70138 0.058313C7.76111 0.0903445 7.81357 0.134393 7.85544 0.187683C7.89732 0.240974 7.92771 0.302356 7.94471 0.367965C7.9617 0.433574 7.96494 0.501988 7.95421 0.568908C7.94347 0.635827 7.919 0.699804 7.88234 0.756807C7.84568 0.81381 7.79762 0.862609 7.74117 0.900131C7.68473 0.937654 7.62114 0.963086 7.55439 0.974832C2.20227 2.37579 0.688357 5.31521 1.01987 7.40498C1.15616 8.26446 1.61414 9.11781 2.36067 9.82749C3.51605 8.56528 5.20801 7.96733 7.27199 8.16747C9.37895 8.37129 11.7081 9.54632 11.6824 10.9068C11.6689 11.598 11.0807 12.4551 8.35616 12.6122C5.92137 12.751 3.95685 12.1702 2.54484 11.2137C2.16231 11.8746 1.90545 12.6006 1.78727 13.3551C1.20159 16.6898 2.78181 18.108 4.31783 18.7084C4.6297 17.6034 5.20923 16.7193 6.04416 16.13C7.37758 15.187 9.14075 15.2385 10.5356 16.2613C11.7634 17.1576 11.4773 18.0491 11.2993 18.3904C10.5785 19.7742 7.57404 20.4679 5.06189 19.9497C4.92315 21.1984 5.09873 22.7062 5.60091 24.3699C5.61986 24.4317 5.62643 24.4966 5.62027 24.5609C5.6141 24.6252 5.59531 24.6876 5.56497 24.7446C5.53463 24.8017 5.49334 24.8521 5.44347 24.8932C5.39359 24.9342 5.33611 24.965 5.27431 24.9838C5.22948 24.9957 5.18316 25.0011 5.13679 24.9998ZM5.24975 18.9834C7.53597 19.4807 9.999 18.7624 10.43 17.9336C10.4803 17.8379 10.6338 17.5432 9.95603 17.0459C8.89027 16.265 7.60842 16.2184 6.60896 16.9231C5.95575 17.3909 5.50023 18.0945 5.24975 18.9871V18.9834ZM3.13666 10.4328C4.37676 11.2555 6.12397 11.7552 8.30214 11.6287C10.2667 11.5145 10.7025 11.0504 10.7062 10.881C10.7148 10.3898 9.26844 9.33759 7.1799 9.13623C6.24675 9.04905 4.43447 9.08589 3.13666 10.4365V10.4328Z" fill="#FAA75F"/>
</svg>
