<svg width="20" height="20" viewBox="0 0 20 20" fill="none" xmlns="http://www.w3.org/2000/svg">
<g clip-path="url(#clip0_16_4098)">
<path d="M19.4801 17.0045L11.6377 9.16206L2.47525 -0.000435053H1.75919L1.61298 0.371088C1.22708 1.35171 1.0622 2.35468 1.13622 3.27144C1.2206 4.31644 1.61759 5.22117 2.28435 5.88792L9.43708 13.0407L10.3805 12.0972L16.9932 19.4915C17.651 20.1493 18.7833 20.1883 19.4801 19.4915C20.1658 18.8058 20.1658 17.6901 19.4801 17.0045Z" fill="#29D697"/>
<path d="M6.12218 11.3851L0.520185 16.9871C-0.16544 17.6727 -0.16544 18.7884 0.520185 19.474C1.17151 20.1253 2.29827 20.1828 3.0071 19.474L8.60913 13.872L6.12218 11.3851Z" fill="#29D697"/>
<path d="M19.151 3.3293L15.9732 6.50703L15.1442 5.67805L18.322 2.50028L17.493 1.67129L14.3153 4.84903L13.4863 4.02004L16.6641 0.842307L15.8351 0.0133623L11.6902 4.15828C11.1831 4.66535 10.8804 5.33863 10.8375 6.05418C10.8267 6.23547 10.7856 6.41379 10.7175 6.5834L13.41 9.27594C13.5796 9.2077 13.758 9.16664 13.9392 9.15582C14.6548 9.11313 15.328 8.81027 15.8351 8.3032L19.98 4.15832L19.151 3.3293Z" fill="#29D697"/>
</g>
<defs>
<clipPath id="clip0_16_4098">
<rect width="19.6411" height="19.6411" fill="white" transform="scale(1.01827)"/>
</clipPath>
</defs>
</svg>
